<svg width="92" height="18" viewBox="0 0 92 18" fill="none" xmlns="http://www.w3.org/2000/svg">
<g filter="url(#filter0_d_106_102)">
<path d="M90 16.9315H85.9947L72.7022 1.26851H76.8176L86.7649 12.971V1.26851H90V16.9315ZM76.0693 16.9315H72.8122V2.63342L76.0693 6.45967V16.9315Z" fill="#19C2EF"/>
<path d="M71.2629 8.33923H68.0278C68.0278 7.42928 67.9398 6.75055 67.7637 6.30304C67.5877 5.84061 67.3236 5.47514 66.9715 5.20663C66.5167 4.8337 65.8858 4.59503 65.0788 4.49061C64.2719 4.37127 63.1422 4.3116 61.6897 4.3116C60.2225 4.3116 59.1075 4.46823 58.3446 4.78149C57.5816 5.09475 57.0828 5.58702 56.8481 6.25829C56.6573 6.67597 56.562 7.36961 56.562 8.33923H53.3269C53.3269 7.11602 53.5103 6.01216 53.8771 5.02762C54.2585 4.04309 54.8454 3.23757 55.6377 2.61105C56.4299 1.98453 57.3322 1.55939 58.3446 1.33563C59.3716 1.11188 60.4866 1 61.6897 1H63.0101C64.1839 1 65.2696 1.11934 66.2672 1.35801C67.2796 1.58177 68.1819 2.00691 68.9742 2.63342C69.7664 3.24503 70.3459 4.04309 70.7127 5.02762C71.0795 6.01216 71.2629 7.11602 71.2629 8.33923ZM61.6897 17.2C60.4866 17.2 59.3716 17.0881 58.3446 16.8644C57.3322 16.6406 56.4299 16.2155 55.6377 15.589C54.8454 14.9624 54.2585 14.1569 53.8771 13.1724C53.5103 12.1878 53.3269 11.084 53.3269 9.86077H56.562C56.562 10.7856 56.65 11.4718 56.8261 11.9193C57.2075 12.9188 58.1025 13.5155 59.511 13.7094C60.3179 13.8287 61.4476 13.8884 62.9001 13.8884C64.3673 13.8884 65.4823 13.7318 66.2452 13.4185C67.0082 13.1052 67.507 12.613 67.7417 11.9417C67.9325 11.4942 68.0278 10.8006 68.0278 9.86077H71.2629C71.2629 11.084 71.0795 12.1878 70.7127 13.1724C70.3459 14.1569 69.7664 14.9624 68.9742 15.589C68.1819 16.2006 67.2796 16.6182 66.2672 16.842C65.2696 17.0657 64.1839 17.1776 63.0101 17.1776L61.6897 17.2Z" fill="#19C2EF"/>
<path d="M45.1437 8.20497C45.5986 8.19005 46.024 8.15276 46.4202 8.09309C47.7553 7.95884 48.4228 7.3547 48.4228 6.28066C48.4228 5.75856 48.3055 5.37072 48.0707 5.11713C47.6452 4.6547 46.853 4.39365 45.6939 4.33398C45.1511 4.31906 43.7499 4.3116 41.4905 4.3116L45.1437 8.20497ZM53.1984 16.9315H48.973L43.7353 11.2704H40.4782V16.9315H37.2431V8.22735H40.9403L37.2431 4.3116V1.26851H44.4395L45.0117 1.24613C46.3615 1.24613 47.5572 1.4326 48.5989 1.80552C49.4205 2.07403 50.1468 2.58867 50.7776 3.34945C51.3645 4.18481 51.6579 5.16188 51.6579 6.28066C51.6579 7.36961 51.3572 8.33923 50.7556 9.1895C50.0367 10.0994 49.039 10.6961 47.7626 10.9796L53.1984 16.9315Z" fill="#19C2EF"/>
<path d="M35.6379 16.9315H31.4345L26.4168 10.7558H23.2697V7.4442H26.4168L31.4345 1.26851H35.6379L29.2117 9.1L35.6379 16.9315ZM22.1474 16.9315H18.9123V1.26851H22.1474V16.9315Z" fill="#19C2EF"/>
<path d="M18.3102 16.9315H14.5469L13.2705 14.0898H5.06171L3.78528 16.9315H0L6.84431 2.76768L8.49486 6.41492L6.42616 11.0691H11.884L7.48252 1.26851H10.7396L18.3102 16.9315Z" fill="#19C2EF"/>
</g>
<path d="M90 16.9315H85.9947L72.7022 1.26851H76.8176L86.7649 12.971V1.26851H90V16.9315ZM76.0693 16.9315H72.8122V2.63342L76.0693 6.45967V16.9315Z" fill="url(#paint0_linear_106_102)"/>
<path d="M71.2629 8.33923H68.0278C68.0278 7.42928 67.9398 6.75055 67.7637 6.30304C67.5877 5.84061 67.3236 5.47514 66.9715 5.20663C66.5167 4.8337 65.8858 4.59503 65.0788 4.49061C64.2719 4.37127 63.1422 4.3116 61.6897 4.3116C60.2225 4.3116 59.1075 4.46823 58.3446 4.78149C57.5816 5.09475 57.0828 5.58702 56.8481 6.25829C56.6573 6.67597 56.562 7.36961 56.562 8.33923H53.3269C53.3269 7.11602 53.5103 6.01216 53.8771 5.02762C54.2585 4.04309 54.8454 3.23757 55.6377 2.61105C56.4299 1.98453 57.3322 1.55939 58.3446 1.33563C59.3716 1.11188 60.4866 1 61.6897 1H63.0101C64.1839 1 65.2696 1.11934 66.2672 1.35801C67.2796 1.58177 68.1819 2.00691 68.9742 2.63342C69.7664 3.24503 70.3459 4.04309 70.7127 5.02762C71.0795 6.01216 71.2629 7.11602 71.2629 8.33923ZM61.6897 17.2C60.4866 17.2 59.3716 17.0881 58.3446 16.8644C57.3322 16.6406 56.4299 16.2155 55.6377 15.589C54.8454 14.9624 54.2585 14.1569 53.8771 13.1724C53.5103 12.1878 53.3269 11.084 53.3269 9.86077H56.562C56.562 10.7856 56.65 11.4718 56.8261 11.9193C57.2075 12.9188 58.1025 13.5155 59.511 13.7094C60.3179 13.8287 61.4476 13.8884 62.9001 13.8884C64.3673 13.8884 65.4823 13.7318 66.2452 13.4185C67.0082 13.1052 67.507 12.613 67.7417 11.9417C67.9325 11.4942 68.0278 10.8006 68.0278 9.86077H71.2629C71.2629 11.084 71.0795 12.1878 70.7127 13.1724C70.3459 14.1569 69.7664 14.9624 68.9742 15.589C68.1819 16.2006 67.2796 16.6182 66.2672 16.842C65.2696 17.0657 64.1839 17.1776 63.0101 17.1776L61.6897 17.2Z" fill="url(#paint1_linear_106_102)"/>
<path d="M45.1437 8.20497C45.5986 8.19005 46.024 8.15276 46.4202 8.09309C47.7553 7.95884 48.4228 7.3547 48.4228 6.28066C48.4228 5.75856 48.3055 5.37072 48.0707 5.11713C47.6452 4.6547 46.853 4.39365 45.6939 4.33398C45.1511 4.31906 43.7499 4.3116 41.4905 4.3116L45.1437 8.20497ZM53.1984 16.9315H48.973L43.7353 11.2704H40.4782V16.9315H37.2431V8.22735H40.9403L37.2431 4.3116V1.26851H44.4395L45.0117 1.24613C46.3615 1.24613 47.5572 1.4326 48.5989 1.80552C49.4205 2.07403 50.1468 2.58867 50.7776 3.34945C51.3645 4.18481 51.6579 5.16188 51.6579 6.28066C51.6579 7.36961 51.3572 8.33923 50.7556 9.1895C50.0367 10.0994 49.039 10.6961 47.7626 10.9796L53.1984 16.9315Z" fill="url(#paint2_linear_106_102)"/>
<path d="M35.6379 16.9315H31.4345L26.4168 10.7558H23.2697V7.4442H26.4168L31.4345 1.26851H35.6379L29.2117 9.1L35.6379 16.9315ZM22.1474 16.9315H18.9123V1.26851H22.1474V16.9315Z" fill="url(#paint3_linear_106_102)"/>
<path d="M18.3102 16.9315H14.5469L13.2705 14.0898H5.06171L3.78528 16.9315H0L6.84431 2.76768L8.49486 6.41492L6.42616 11.0691H11.884L7.48252 1.26851H10.7396L18.3102 16.9315Z" fill="url(#paint4_linear_106_102)"/>
<path fill-rule="evenodd" clip-rule="evenodd" d="M76.8176 1.26851H72.7022L85.9947 16.9315H90V1.26851H86.7649V12.971L76.8176 1.26851ZM87.0984 1.60753V13.8818L76.665 1.60753H73.4303L86.1474 16.5925H89.6665V1.60753H87.0984ZM66.2672 1.35801C65.2696 1.11934 64.1839 1 63.0101 1H61.6897C60.4866 1 59.3716 1.11188 58.3446 1.33563C57.3322 1.55939 56.4299 1.98453 55.6377 2.61105C54.8454 3.23757 54.2585 4.04309 53.8771 5.02762C53.5445 5.92036 53.3627 6.91122 53.3317 8.0002C53.3285 8.11217 53.3269 8.22518 53.3269 8.33923H56.562C56.562 7.36961 56.6573 6.67597 56.8481 6.25829C57.0828 5.58702 57.5816 5.09475 58.3446 4.78149C59.1075 4.46823 60.2225 4.3116 61.6897 4.3116C63.1422 4.3116 64.2719 4.37127 65.0788 4.49061C65.8858 4.59503 66.5167 4.8337 66.9715 5.20663C67.3236 5.47514 67.5877 5.84061 67.7637 6.30304C67.9398 6.75055 68.0278 7.42928 68.0278 8.33923H71.2629C71.2629 8.22518 71.2613 8.11217 71.2581 8.0002C71.2271 6.91122 71.0453 5.92036 70.7127 5.02762C70.3459 4.04309 69.7664 3.24503 68.9742 2.63342C68.1819 2.00691 67.2796 1.58177 66.2672 1.35801ZM70.9246 8.0002C70.8937 6.94758 70.7176 5.99787 70.4009 5.14772C70.0553 4.22012 69.5128 3.47495 68.7725 2.90344L68.7694 2.90105C68.0178 2.30667 67.1616 1.90264 66.1964 1.6893L66.1936 1.68868L66.1909 1.68802C65.2215 1.45613 64.1618 1.33903 63.0101 1.33903H61.6897C60.507 1.33903 59.4158 1.44901 58.4149 1.66704C57.4499 1.8804 56.5938 2.2844 55.8424 2.87866C55.0997 3.46598 54.5486 4.22047 54.1882 5.14961C53.8719 5.99928 53.6961 6.94836 53.6653 8.0002H56.2326C56.2524 7.19559 56.3466 6.56112 56.5391 6.13009C56.8135 5.35895 57.3905 4.80761 58.2197 4.46713C59.042 4.12949 60.208 3.97258 61.6897 3.97258C63.1462 3.97258 64.2936 4.03215 65.1239 4.15468C65.9653 4.26394 66.659 4.5168 67.1762 4.93894C67.5807 5.24884 67.8787 5.6666 68.074 6.17884C68.2486 6.62357 68.3374 7.23785 68.3571 8.0002H70.9246ZM63.0101 17.1776L61.6897 17.2C60.4866 17.2 59.3716 17.0881 58.3446 16.8644C57.3322 16.6406 56.4299 16.2155 55.6377 15.589C54.8454 14.9624 54.2585 14.1569 53.8771 13.1724C53.5445 12.2796 53.3627 11.2888 53.3317 10.1998C53.3285 10.0878 53.3269 9.97482 53.3269 9.86077H56.562C56.562 10.7856 56.65 11.4718 56.8261 11.9193C57.2075 12.9188 58.1025 13.5155 59.511 13.7094C60.3179 13.8287 61.4476 13.8884 62.9001 13.8884C64.3673 13.8884 65.4823 13.7318 66.2452 13.4185C67.0082 13.1052 67.507 12.613 67.7417 11.9417C67.9325 11.4942 68.0278 10.8006 68.0278 9.86077H71.2629C71.2629 9.97482 71.2613 10.0878 71.2581 10.1998C71.2271 11.2888 71.0453 12.2796 70.7127 13.1724C70.3459 14.1569 69.7664 14.9624 68.9742 15.589C68.1819 16.2006 67.2796 16.6182 66.2672 16.842C65.2696 17.0657 64.1839 17.1776 63.0101 17.1776ZM68.771 15.3201C68.0194 15.9 67.1626 16.2971 66.1964 16.5107L66.1954 16.5109C65.2245 16.7287 64.1632 16.8386 63.0101 16.8386H63.0074L61.6897 16.861C61.6888 16.861 61.6878 16.861 61.6869 16.861C60.5053 16.8608 59.415 16.7508 58.4149 16.533C57.4499 16.3196 56.5939 15.9156 55.8424 15.3213C55.0997 14.734 54.5486 13.9795 54.1882 13.0504C53.8719 12.2007 53.6961 11.2516 53.6653 10.1998H56.2326C56.252 10.9755 56.3407 11.5977 56.5159 12.0438C56.9565 13.1962 57.9853 13.8411 59.4646 14.0451C60.295 14.1678 61.4428 14.2274 62.9001 14.2274C64.3819 14.2274 65.5478 14.0705 66.3701 13.7329C67.2007 13.3918 67.7783 12.8392 68.0522 12.0659C68.2413 11.6158 68.3365 10.9854 68.357 10.1998H70.9246C70.8937 11.2524 70.7176 12.2021 70.4009 13.0523C70.0553 13.9799 69.5125 14.7333 68.771 15.3201ZM45.0054 8.54871L40.7115 3.97258H41.4905C43.7481 3.97258 45.1545 3.98001 45.7029 3.99508L45.7069 3.99518L45.7108 3.99539C46.8895 4.05607 47.796 4.32231 48.3142 4.88552C48.63 5.22714 48.7563 5.71485 48.7563 6.28066C48.7563 6.89514 48.5618 7.41432 48.1439 7.79253C47.7386 8.15932 47.1618 8.35811 46.4611 8.42965C46.053 8.49076 45.6174 8.52864 45.1545 8.54382L45.0054 8.54871ZM46.4202 8.09309C47.7553 7.95884 48.4228 7.3547 48.4228 6.28066C48.4228 5.75856 48.3055 5.37072 48.0707 5.11713C47.6452 4.6547 46.853 4.39365 45.6939 4.33398C45.189 4.3201 43.9415 4.31268 41.9515 4.31171C41.802 4.31164 41.6483 4.3116 41.4905 4.3116L45.1437 8.20497C45.5986 8.19005 46.024 8.15276 46.4202 8.09309ZM43.7353 11.2704L48.973 16.9315H53.1984L47.7626 10.9796C47.8887 10.9516 48.012 10.9205 48.1326 10.8864C49.2334 10.5752 50.1077 10.0096 50.7556 9.1895C51.3572 8.33923 51.6579 7.36961 51.6579 6.28066C51.6579 5.16188 51.3645 4.18481 50.7776 3.34945C50.1468 2.58867 49.4205 2.07403 48.5989 1.80552C47.5572 1.4326 46.3615 1.24613 45.0117 1.24613L44.4395 1.26851H37.2431V4.3116L40.9403 8.22735H37.2431V16.9315H40.4782V11.2704H43.7353ZM40.1447 16.5925V10.9314H43.8794L49.1171 16.5925H52.4338L47.1208 10.7751L47.6915 10.6483C48.9009 10.3798 49.8259 9.82156 50.4901 8.98417C51.0457 8.19574 51.3245 7.2984 51.3245 6.28066C51.3245 5.23089 51.0517 4.32779 50.514 3.55754C49.9201 2.84456 49.2475 2.37362 48.4969 2.12829L48.4925 2.12686L48.4882 2.1253C47.4906 1.76816 46.3356 1.58575 45.0181 1.58516L44.4459 1.60753H37.5765V4.17521L41.7227 8.56637H37.5765V16.5925H40.1447ZM29.2117 9.1L35.6379 1.26851H31.4345L26.4168 7.4442H23.2697V10.7558H26.4168L31.4345 16.9315H35.6379L29.2117 9.1ZM34.9255 16.5925L28.7775 9.1L34.9255 1.60753H31.5915L26.5739 7.78322H23.6032V10.4168H26.5739L31.5915 16.5925H34.9255ZM8.49486 6.41492L6.84431 2.76768L0 16.9315H3.78528L5.06171 14.0898H13.2705L14.5469 16.9315H18.3102L10.7396 1.26851H7.48252L11.884 11.0691H6.42616L8.49486 6.41492ZM8.00134 1.60753L12.4028 11.4081H5.90956L8.12838 6.41618L6.83443 3.55694L0.535342 16.5925H3.57098L4.84741 13.7508H13.4848L14.7612 16.5925H17.7748L10.5319 1.60753H8.00134ZM73.1457 16.5925H75.7359V6.58601L73.1457 3.54319V16.5925ZM72.8122 2.63342L76.0693 6.45967V16.9315H72.8122V2.63342ZM19.2457 16.5925H21.8139V1.60753H19.2457V16.5925ZM18.9123 16.9315V1.26851H22.1474V16.9315H18.9123Z" fill="url(#paint5_linear_106_102)" fill-opacity="0.8"/>
<defs>
<filter id="filter0_d_106_102" x="0" y="0" width="92" height="17.2" filterUnits="userSpaceOnUse" color-interpolation-filters="sRGB">
<feFlood flood-opacity="0" result="BackgroundImageFix"/>
<feColorMatrix in="SourceAlpha" type="matrix" values="0 0 0 0 0 0 0 0 0 0 0 0 0 0 0 0 0 0 127 0" result="hardAlpha"/>
<feOffset dx="2" dy="-1"/>
<feComposite in2="hardAlpha" operator="out"/>
<feColorMatrix type="matrix" values="0 0 0 0 0.027451 0 0 0 0 0.423529 0 0 0 0 0.913725 0 0 0 0.3 0"/>
<feBlend mode="normal" in2="BackgroundImageFix" result="effect1_dropShadow_106_102"/>
<feBlend mode="normal" in="SourceGraphic" in2="effect1_dropShadow_106_102" result="shape"/>
</filter>
<linearGradient id="paint0_linear_106_102" x1="0" y1="9.1" x2="90" y2="9.1" gradientUnits="userSpaceOnUse">
<stop stop-color="#19C2EF"/>
<stop offset="1" stop-color="#0974F8"/>
</linearGradient>
<linearGradient id="paint1_linear_106_102" x1="0" y1="9.1" x2="90" y2="9.1" gradientUnits="userSpaceOnUse">
<stop stop-color="#19C2EF"/>
<stop offset="1" stop-color="#0974F8"/>
</linearGradient>
<linearGradient id="paint2_linear_106_102" x1="0" y1="9.1" x2="90" y2="9.1" gradientUnits="userSpaceOnUse">
<stop stop-color="#19C2EF"/>
<stop offset="1" stop-color="#0974F8"/>
</linearGradient>
<linearGradient id="paint3_linear_106_102" x1="0" y1="9.1" x2="90" y2="9.1" gradientUnits="userSpaceOnUse">
<stop stop-color="#19C2EF"/>
<stop offset="1" stop-color="#0974F8"/>
</linearGradient>
<linearGradient id="paint4_linear_106_102" x1="0" y1="9.1" x2="90" y2="9.1" gradientUnits="userSpaceOnUse">
<stop stop-color="#19C2EF"/>
<stop offset="1" stop-color="#0974F8"/>
</linearGradient>
<linearGradient id="paint5_linear_106_102" x1="0" y1="9.1" x2="90" y2="9.1" gradientUnits="userSpaceOnUse">
<stop stop-color="#6CE0FF"/>
<stop offset="1" stop-color="#19C2EF"/>
</linearGradient>
</defs>
</svg>
