<svg width="38" height="38" viewBox="0 0 38 38" fill="none" xmlns="http://www.w3.org/2000/svg">
<circle cx="19" cy="19" r="15" fill="url(#paint0_radial_1_6439)" fill-opacity="0.3"/>
<path d="M38 19C38.0022 21.0758 37.6638 23.1379 36.998 25.1041L35.4664 24.5848C34.6056 27.1032 33.1808 29.3915 31.3008 31.2753C29.4208 33.1591 27.1352 34.5885 24.6186 35.4544L25.1413 36.9854C21.1589 38.3382 16.8412 38.3382 12.8589 36.9854L13.3814 35.4543C10.8648 34.5885 8.57934 33.1591 6.69937 31.2754C4.81939 29.3917 3.39464 27.1033 2.53384 24.585L1.0021 25.1043C-0.334034 21.1445 -0.334034 16.8555 1.0021 12.8957L2.53384 13.415C3.39654 10.8909 4.82576 8.59785 6.71192 6.71169C8.59808 4.82553 10.8911 3.39631 13.4152 2.53361L12.896 1.00195C16.8558 -0.334011 21.1445 -0.333981 25.1043 1.00203L24.5851 2.53376C27.1092 3.39649 29.4022 4.82573 31.2884 6.7119C33.1745 8.59808 34.6037 10.8911 35.4664 13.4152L36.998 12.8959C37.6638 14.8621 38.0023 16.9242 38 19ZM19 2.23139C15.6835 2.2314 12.4415 3.21486 9.68389 5.05742C6.92632 6.89997 4.77706 9.51887 3.50789 12.5829C2.23872 15.647 1.90665 19.0186 2.55367 22.2714C3.20069 25.5241 4.79774 28.512 7.14286 30.8571C9.48799 33.2023 12.4759 34.7993 15.7286 35.4463C18.9814 36.0933 22.353 35.7613 25.4171 34.4921C28.4811 33.2229 31.1 31.0737 32.9426 28.3161C34.7851 25.5585 35.7686 22.3165 35.7686 19C35.7636 14.5542 33.9953 10.292 30.8517 7.14833C27.708 4.0047 23.4458 2.2364 19 2.23139Z" fill="url(#paint1_linear_1_6439)"/>
<g clip-path="url(#clip0_1_6439)">
<path fill-rule="evenodd" clip-rule="evenodd" d="M16.95 11.0178C15.854 11.5764 14.9573 12.0491 14.9575 12.0683C14.958 12.1179 17.588 13.421 17.6813 13.4178C17.7238 13.4164 18.0318 13.2777 18.3658 13.1096L18.9731 12.804L19.6364 13.1375L20.2997 13.4712L21.3859 12.9936C23.0226 12.2741 23.1926 12.1952 23.166 12.1687C23.1306 12.1336 22.5436 11.825 20.9508 11.0047C20.1811 10.6082 19.434 10.2194 19.2906 10.1407C19.1472 10.0621 19.0103 9.99879 18.9863 10C18.9624 10.0012 18.046 10.4593 16.95 11.0178ZM12.143 13.4532L11.0021 14.0298V16.5603C11.0021 17.9521 11.017 19.0908 11.0354 19.0908C11.0537 19.0908 11.6151 18.8527 12.2828 18.5618L13.4969 18.0327V15.3654L14.0901 15.6816C14.5473 15.9251 15.0048 16.1681 15.4625 16.4106L16.2415 16.8232L16.5882 16.6699C16.8056 16.5735 17.0225 16.4762 17.2391 16.378C17.4064 16.3018 17.8171 16.1208 18.1518 15.9757C18.4865 15.8306 18.7962 15.6847 18.8402 15.6514C18.8985 15.6073 18.187 15.2226 16.2083 14.2285C14.7169 13.4791 13.4487 12.8684 13.3903 12.8713C13.3318 12.8743 12.7705 13.1361 12.143 13.4532ZM23.3716 13.6152C22.5945 13.9584 21.9582 14.2529 21.9575 14.2697C21.9568 14.2864 22.3804 14.5328 22.8987 14.8171C23.417 15.1014 23.8411 15.3492 23.8411 15.3679C23.8411 15.3865 23.3825 15.604 22.8219 15.8512C22.2613 16.0983 20.8444 16.7244 19.673 17.2425L15.7483 18.9782C14.761 19.4148 13.8711 19.8084 13.7707 19.8529C11.7541 20.746 11.1999 20.9938 11.1238 21.0364C11.0472 21.0792 11.0299 21.328 11.0163 22.5769L11 24.0664L12.0203 24.575L13.0405 25.0836L14.4552 24.4589C15.2334 24.1154 15.87 23.8163 15.87 23.7942C15.87 23.7723 15.7262 23.6806 15.5505 23.5905C15.3748 23.5003 15.012 23.3008 14.7443 23.1469C14.4765 22.9931 14.2096 22.8519 14.151 22.8332C14.0924 22.8145 14.0453 22.7819 14.0463 22.7606C14.0472 22.7393 14.6702 22.4498 15.4306 22.1172C16.9074 21.4711 18.0376 20.9732 20.464 19.8997C21.549 19.4197 22.6342 18.9401 23.7195 18.4607C24.6733 18.0395 25.7822 17.5476 26.1838 17.3675L26.914 17.0402L26.9303 15.5337L26.9466 14.0273L25.9118 13.5077C25.3426 13.2219 24.8561 12.9888 24.8306 12.9896C24.8051 12.9904 24.1486 13.2719 23.3716 13.6152ZM26.6368 19.0499C26.4843 19.1227 26.1831 19.2592 25.9675 19.353C25.7518 19.4469 25.3426 19.6275 25.0581 19.7545L24.5409 19.9853L24.5291 21.3079C24.5226 22.0353 24.4952 22.6272 24.4683 22.6233C24.407 22.6144 23.4377 22.128 22.4632 21.6172C21.7599 21.2485 21.7158 21.2338 21.5505 21.3139C21.455 21.3602 20.8839 21.6108 20.2815 21.8708C19.6791 22.1308 19.1666 22.3605 19.1425 22.3813C19.1184 22.4021 20.3308 23.045 21.8368 23.8101L24.5748 25.2012L25.7444 24.6092C26.3877 24.2837 26.9346 23.9867 26.9598 23.9494C27.0165 23.8654 27.0117 18.9058 26.9549 18.9126C26.9325 18.9152 26.7893 18.977 26.6368 19.0499ZM20.1598 24.8711C19.9569 24.9565 19.7541 25.0419 19.5513 25.1275C18.939 25.3867 19.059 25.3953 18.3305 25.0405C17.8453 24.8042 17.6362 24.7313 17.5454 24.7667C17.4773 24.7932 16.8912 25.0512 16.243 25.3399C15.5947 25.6286 15.0419 25.8648 15.0144 25.8648C14.7424 25.8648 15.1945 26.1291 16.9393 26.9902L18.9856 28L19.8465 27.5842C20.32 27.3554 21.2751 26.8974 21.969 26.5664C22.6628 26.2352 23.2218 25.9557 23.2114 25.9452C23.2008 25.9347 22.6195 25.6426 21.9194 25.2961L20.6466 24.6663L20.1598 24.8711Z" fill="url(#paint2_linear_1_6439)"/>
<path d="M12.3685 13.8995L12.3685 13.8995L11.5021 14.3374V16.5603C11.5021 17.2547 11.5058 17.8851 11.5118 18.3409C11.5118 18.3441 11.5119 18.3474 11.5119 18.3506C11.6836 18.2769 11.8782 18.1927 12.0831 18.1034L12.9969 17.7052V15.3654V14.5323L13.7321 14.9242L14.3252 15.2403C14.3252 15.2404 14.3253 15.2404 14.3253 15.2404C14.7821 15.4837 15.2392 15.7264 15.6965 15.9687L16.2611 16.2678L16.3856 16.2127C16.3857 16.2127 16.3858 16.2126 16.3859 16.2126C16.6017 16.117 16.8171 16.0204 17.0321 15.9229C17.0323 15.9228 17.0324 15.9227 17.0325 15.9227L17.2391 16.378L12.3685 13.8995ZM12.3685 13.8995C12.6787 13.7427 12.9711 13.6003 13.1914 13.4976C13.2671 13.4622 13.3327 13.4323 13.3867 13.4085C13.4027 13.4156 13.4198 13.4234 13.4382 13.4318C13.5838 13.4981 13.7908 13.5959 14.045 13.7183C14.5526 13.9627 15.2399 14.3015 15.9839 14.6752L16.2083 14.2285L15.9839 14.6752C16.7803 15.0754 17.3674 15.3748 17.7802 15.5921L12.3685 13.8995ZM20.3538 25.332L20.3537 25.332C20.1511 25.4172 19.9485 25.5026 19.746 25.588C19.7071 25.6045 19.6677 25.6215 19.6291 25.6382C19.5368 25.6781 19.4483 25.7163 19.3772 25.7424C19.261 25.7852 19.119 25.8251 18.9489 25.813C18.7898 25.8016 18.6518 25.7474 18.5384 25.6967C18.4622 25.6626 18.368 25.6162 18.2617 25.5637C18.214 25.5402 18.1637 25.5154 18.1116 25.49C17.8729 25.3738 17.7226 25.308 17.6281 25.2748C17.6203 25.2781 17.6121 25.2817 17.6035 25.2854C17.5299 25.3174 17.4309 25.3608 17.3132 25.4126C17.0779 25.5161 16.77 25.6525 16.4464 25.7966C16.304 25.8601 16.166 25.921 16.037 25.9776C16.3227 26.1253 16.6927 26.3109 17.1606 26.5419L18.9879 27.4436L19.629 27.1339C20.1035 26.9047 21.0593 26.4464 21.7536 26.1151L20.3538 25.332ZM20.3538 25.332L20.6298 25.2158L21.6976 25.7442C21.6977 25.7442 21.6977 25.7442 21.6977 25.7443C21.8396 25.8145 21.9766 25.8825 22.1049 25.9463M20.3538 25.332L22.1049 25.9463M22.1049 25.9463C21.9938 26.0001 21.8759 26.0567 21.7536 26.1151L22.1049 25.9463ZM18.141 12.663L18.141 12.663C17.979 12.7445 17.8252 12.818 17.7089 12.8703C17.7006 12.8741 17.6926 12.8777 17.6848 12.8811C17.6163 12.8503 17.53 12.8104 17.4297 12.7631C17.1739 12.6424 16.8395 12.4798 16.5066 12.3148C16.3358 12.2302 16.1661 12.1453 16.0084 12.0656C16.3362 11.8943 16.7405 11.6858 17.1771 11.4633C17.7243 11.1844 18.2262 10.9309 18.5938 10.7472C18.7567 10.6657 18.8924 10.5984 18.9937 10.5488C19.0119 10.5584 19.0308 10.5685 19.0501 10.5791L19.0501 10.5791C19.2008 10.6618 19.9553 11.0543 20.7219 11.4491L20.7219 11.4492C21.295 11.7443 21.737 11.9728 22.0696 12.1459C21.8385 12.2483 21.5484 12.376 21.1847 12.5359L20.314 12.9187L19.8611 12.6909L19.8611 12.6908L19.1978 12.3573L18.9731 12.2443L18.7484 12.3573L18.141 12.663ZM18.8466 10.478C18.8467 10.478 18.8468 10.478 18.8469 10.4781L18.8466 10.478ZM23.5736 14.0725L23.5737 14.0725C23.961 13.9014 24.3176 13.746 24.5799 13.6335C24.6745 13.5929 24.7561 13.5583 24.822 13.5307C24.8598 13.5484 24.9031 13.569 24.9513 13.5921C25.1437 13.6843 25.4048 13.8126 25.6874 13.9545C25.6874 13.9545 25.6874 13.9545 25.6874 13.9545L26.4432 14.3341L26.4303 15.5283L26.4303 15.5283L26.4175 16.7148L25.9793 16.9113C25.5791 17.0907 24.4712 17.5821 23.5175 18.0033L23.5174 18.0033C22.4321 18.4827 21.3469 18.9624 20.2618 19.4424L20.2617 19.4424C17.8356 20.5158 16.7061 21.0134 15.2302 21.6591L15.2302 21.6591C14.8476 21.8264 14.4982 21.9836 14.2429 22.1022C14.1159 22.1612 14.0089 22.2123 13.9319 22.2509C13.8944 22.2697 13.8577 22.2887 13.8274 22.306C13.814 22.3136 13.7907 22.3272 13.7665 22.3442C13.756 22.3515 13.7303 22.3699 13.702 22.397C13.6882 22.4102 13.6615 22.4372 13.6345 22.4764C13.614 22.5063 13.5531 22.5998 13.5468 22.7376L13.5468 22.7382C13.5383 22.9259 13.6322 23.0524 13.667 23.0949C13.7117 23.1495 13.7592 23.1864 13.7914 23.2087C13.8525 23.2511 13.9191 23.2824 13.9822 23.304C13.9863 23.3058 13.9956 23.3101 14.0115 23.3179C14.0423 23.3329 14.0844 23.3544 14.1355 23.3814C14.2372 23.4352 14.3657 23.5061 14.4951 23.5804L14.4951 23.5805C14.5901 23.635 14.6972 23.6955 14.8042 23.755C14.6353 23.8317 14.449 23.9151 14.2533 24.0015L14.2533 24.0015L13.0534 24.5313L12.2433 24.1275L11.5034 23.7586L11.5162 22.5823L11.0163 22.5769L11.5162 22.5823C11.5231 21.9548 11.5308 21.5966 11.5451 21.3904C11.6347 21.3496 11.7578 21.2942 11.9237 21.22C12.3229 21.0415 12.9648 20.7567 13.9732 20.31L13.9733 20.31L15.9505 19.4354L15.9505 19.4354L19.8752 17.6998L19.8753 17.6997C21.0466 17.1817 22.4633 16.5557 23.0237 16.3087L23.0237 16.3087C23.3069 16.1838 23.566 16.0657 23.756 15.9756C23.8502 15.9309 23.9314 15.8913 23.9911 15.8603C24.0196 15.8455 24.0509 15.8287 24.0783 15.8122C24.0901 15.8051 24.114 15.7904 24.1397 15.7707C24.151 15.7621 24.1787 15.7405 24.2083 15.7081C24.2231 15.692 24.2494 15.6615 24.2743 15.618C24.2964 15.5796 24.3411 15.4908 24.3411 15.3679C24.3411 15.2564 24.3041 15.1745 24.2861 15.1393C24.2654 15.0989 24.2434 15.0695 24.2307 15.0535C24.2052 15.0216 24.1811 14.9994 24.1708 14.9901C24.1477 14.9694 24.1259 14.9534 24.1149 14.9454C24.0896 14.9271 24.0607 14.9083 24.0342 14.8915C23.9789 14.8565 23.9038 14.8114 23.8166 14.7604C23.6408 14.6577 23.4011 14.5224 23.1392 14.3787L23.1391 14.3787C23.1009 14.3577 23.0633 14.337 23.0264 14.3166C23.1945 14.2408 23.3795 14.1583 23.5736 14.0725ZM25.2619 20.2111L25.2619 20.2111C25.5454 20.0846 25.9531 19.9046 26.167 19.8115C26.2635 19.7695 26.3769 19.7191 26.4873 19.6693C26.4874 19.6772 26.4875 19.6851 26.4877 19.693C26.4952 20.1549 26.4993 20.7741 26.4999 21.3974C26.5005 22.0208 26.4976 22.6457 26.491 23.119C26.488 23.3381 26.4842 23.5223 26.4797 23.658C26.4401 23.6801 26.3952 23.7048 26.3453 23.7318C26.1303 23.8486 25.8371 24.0019 25.5187 24.1631L25.7444 24.6092L25.5187 24.1631L24.5752 24.6406L22.0633 23.3643C21.3632 23.0087 20.7276 22.6799 20.2518 22.4287C20.3256 22.3965 20.4018 22.3635 20.4796 22.3299L20.4797 22.3299C20.9983 22.106 21.5088 21.8827 21.7036 21.794C21.7329 21.8067 21.7726 21.8251 21.8264 21.8516C21.9254 21.9003 22.0543 21.9673 22.2311 22.06C22.7206 22.3166 23.2092 22.5673 23.584 22.7554C23.771 22.8492 23.9317 22.9285 24.0506 22.9853C24.1095 23.0135 24.1614 23.0377 24.2023 23.0558C24.2224 23.0646 24.244 23.0739 24.2646 23.0819C24.2654 23.0822 24.3262 23.1079 24.3963 23.1181L24.3977 23.1183C24.6566 23.1552 24.8141 22.9919 24.8578 22.9386C24.9077 22.8776 24.9312 22.8192 24.939 22.7993C24.9576 22.7516 24.9661 22.709 24.9692 22.6928C24.9772 22.6517 24.9823 22.6071 24.9859 22.5701C24.9936 22.4911 25.0002 22.3848 25.0058 22.2629C25.0172 22.0165 25.0258 21.6802 25.0291 21.3124V21.3123L25.038 20.311L25.2619 20.2111Z" stroke="#19C2EF" stroke-opacity="0.55"/>
</g>
<defs>
<radialGradient id="paint0_radial_1_6439" cx="0" cy="0" r="1" gradientUnits="userSpaceOnUse" gradientTransform="translate(19 19) rotate(90) scale(15)">
<stop stop-color="#054492" stop-opacity="0"/>
<stop offset="1" stop-color="#0974F8"/>
</radialGradient>
<linearGradient id="paint1_linear_1_6439" x1="19" y1="38" x2="19" y2="0" gradientUnits="userSpaceOnUse">
<stop stop-color="#0974F8"/>
<stop offset="1" stop-color="#4FB2FE"/>
</linearGradient>
<linearGradient id="paint2_linear_1_6439" x1="19" y1="10" x2="19" y2="28" gradientUnits="userSpaceOnUse">
<stop stop-color="#0974F8"/>
<stop offset="1" stop-color="#4FB2FE"/>
</linearGradient>
<clipPath id="clip0_1_6439">
<rect width="18" height="18" fill="white" transform="translate(10 10)"/>
</clipPath>
</defs>
</svg>
