<svg width="140" height="44" viewBox="0 0 140 44" fill="none" xmlns="http://www.w3.org/2000/svg">
<path d="M132 30.5L125 23.5H46L38 15.5H0" stroke="url(#paint0_linear_1_160)" stroke-width="1.25"/>
<path d="M132 0.5L125 7.5H86L78 15.5H50" stroke="url(#paint1_linear_1_160)" stroke-width="1.25"/>
<path opacity="0.3" d="M86.8636 10.5H124L114.136 20.5H77L86.8636 10.5Z" fill="url(#paint2_linear_1_160)"/>
<g opacity="0.8">
<path d="M49.5 31H47.5V26H49.5V31Z" fill="url(#paint3_linear_1_160)"/>
<path d="M54.5 31H52.5V26H54.5V31Z" fill="url(#paint4_linear_1_160)"/>
<path d="M59.5 31H57.5V26H59.5V31Z" fill="url(#paint5_linear_1_160)"/>
<path d="M64.5 31H62.5V26H64.5V31Z" fill="url(#paint6_linear_1_160)"/>
<path d="M69.5 31H67.5V26H69.5V31Z" fill="url(#paint7_linear_1_160)"/>
<path d="M74.5 31H72.5V26H74.5V31Z" fill="url(#paint8_linear_1_160)"/>
<path d="M79.5 31H77.5V26H79.5V31Z" fill="url(#paint9_linear_1_160)"/>
</g>
<g filter="url(#filter0_d_1_160)">
<rect width="9.15031" height="3" rx="1.5" transform="matrix(-0.707107 -0.707107 -0.707107 0.707107 130.5 31.8787)" fill="#1BDD15"/>
</g>
<g filter="url(#filter1_df_1_160)">
<rect width="9.15031" height="1.5" rx="0.75" transform="matrix(-0.707107 -0.707107 -0.707107 0.707107 129.97 32.409)" fill="#E2FFE1"/>
</g>
<defs>
<filter id="filter0_d_1_160" x="112.53" y="16.0297" width="27.3489" height="27.3489" filterUnits="userSpaceOnUse" color-interpolation-filters="sRGB">
<feFlood flood-opacity="0" result="BackgroundImageFix"/>
<feColorMatrix in="SourceAlpha" type="matrix" values="0 0 0 0 0 0 0 0 0 0 0 0 0 0 0 0 0 0 127 0" result="hardAlpha"/>
<feOffset/>
<feGaussianBlur stdDeviation="5"/>
<feComposite in2="hardAlpha" operator="out"/>
<feColorMatrix type="matrix" values="0 0 0 0 0.105882 0 0 0 0 0.866667 0 0 0 0 0.0823529 0 0 0 1 0"/>
<feBlend mode="normal" in2="BackgroundImageFix" result="effect1_dropShadow_1_160"/>
<feBlend mode="normal" in="SourceGraphic" in2="effect1_dropShadow_1_160" result="shape"/>
</filter>
<filter id="filter1_df_1_160" x="112.749" y="16.2494" width="26.9096" height="26.9096" filterUnits="userSpaceOnUse" color-interpolation-filters="sRGB">
<feFlood flood-opacity="0" result="BackgroundImageFix"/>
<feColorMatrix in="SourceAlpha" type="matrix" values="0 0 0 0 0 0 0 0 0 0 0 0 0 0 0 0 0 0 127 0" result="hardAlpha"/>
<feOffset/>
<feGaussianBlur stdDeviation="5"/>
<feComposite in2="hardAlpha" operator="out"/>
<feColorMatrix type="matrix" values="0 0 0 0 0.105882 0 0 0 0 0.866667 0 0 0 0 0.0823529 0 0 0 1 0"/>
<feBlend mode="normal" in2="BackgroundImageFix" result="effect1_dropShadow_1_160"/>
<feBlend mode="normal" in="SourceGraphic" in2="effect1_dropShadow_1_160" result="shape"/>
<feGaussianBlur stdDeviation="1" result="effect2_foregroundBlur_1_160"/>
</filter>
<linearGradient id="paint0_linear_1_160" x1="126" y1="23" x2="4.22448e-06" y2="23" gradientUnits="userSpaceOnUse">
<stop stop-color="#19C2EF"/>
<stop offset="1" stop-color="#076CE9" stop-opacity="0"/>
</linearGradient>
<linearGradient id="paint1_linear_1_160" x1="126" y1="8" x2="50" y2="8" gradientUnits="userSpaceOnUse">
<stop stop-color="#19C2EF"/>
<stop offset="1" stop-color="#076CE9" stop-opacity="0"/>
</linearGradient>
<linearGradient id="paint2_linear_1_160" x1="79.8182" y1="14.0714" x2="121.5" y2="14.0714" gradientUnits="userSpaceOnUse">
<stop stop-color="#19C2EF"/>
<stop offset="1" stop-color="#076CE9" stop-opacity="0"/>
</linearGradient>
<linearGradient id="paint3_linear_1_160" x1="79.5" y1="28.5" x2="47.5" y2="28.5" gradientUnits="userSpaceOnUse">
<stop stop-color="#076CE9" stop-opacity="0"/>
<stop offset="1" stop-color="#19C2EF"/>
</linearGradient>
<linearGradient id="paint4_linear_1_160" x1="79.5" y1="28.5" x2="47.5" y2="28.5" gradientUnits="userSpaceOnUse">
<stop stop-color="#076CE9" stop-opacity="0"/>
<stop offset="1" stop-color="#19C2EF"/>
</linearGradient>
<linearGradient id="paint5_linear_1_160" x1="79.5" y1="28.5" x2="47.5" y2="28.5" gradientUnits="userSpaceOnUse">
<stop stop-color="#076CE9" stop-opacity="0"/>
<stop offset="1" stop-color="#19C2EF"/>
</linearGradient>
<linearGradient id="paint6_linear_1_160" x1="79.5" y1="28.5" x2="47.5" y2="28.5" gradientUnits="userSpaceOnUse">
<stop stop-color="#076CE9" stop-opacity="0"/>
<stop offset="1" stop-color="#19C2EF"/>
</linearGradient>
<linearGradient id="paint7_linear_1_160" x1="79.5" y1="28.5" x2="47.5" y2="28.5" gradientUnits="userSpaceOnUse">
<stop stop-color="#076CE9" stop-opacity="0"/>
<stop offset="1" stop-color="#19C2EF"/>
</linearGradient>
<linearGradient id="paint8_linear_1_160" x1="79.5" y1="28.5" x2="47.5" y2="28.5" gradientUnits="userSpaceOnUse">
<stop stop-color="#076CE9" stop-opacity="0"/>
<stop offset="1" stop-color="#19C2EF"/>
</linearGradient>
<linearGradient id="paint9_linear_1_160" x1="79.5" y1="28.5" x2="47.5" y2="28.5" gradientUnits="userSpaceOnUse">
<stop stop-color="#076CE9" stop-opacity="0"/>
<stop offset="1" stop-color="#19C2EF"/>
</linearGradient>
</defs>
</svg>
