<svg width="370" height="47" viewBox="0 0 370 47" fill="none" xmlns="http://www.w3.org/2000/svg">
<path opacity="0.7" d="M1 14L6 19H141.5L148.5 12H171.5L179.5 20" stroke="#076CE9" stroke-width="1.25"/>
<path opacity="0.4" d="M62 19L54 27H40L32 19" stroke="#076CE9"/>
<path d="M169.892 15.2028L173.782 19.0919L148.411 19.0065L141.739 25.6789L131.168 25.6433L129.061 27.7504L128 26.6897L130.107 24.5826L139.973 24.6159L149.455 15.134L169.892 15.2028Z" fill="url(#paint0_linear_1_36964)"/>
<path d="M170.6 15.9098L174.489 19.7989L149.118 19.7135L142.446 26.3859L131.875 26.3503L129.768 28.4574L128.707 27.3968L130.814 25.2897L140.68 25.3229L150.162 15.841L170.6 15.9098Z" fill="url(#paint1_linear_1_36964)"/>
<ellipse opacity="0.9" cx="161.99" cy="15.4869" rx="4.99037" ry="0.497476" transform="rotate(180 161.99 15.4869)" fill="url(#paint2_radial_1_36964)"/>
<ellipse opacity="0.3" cx="161.99" cy="15.4872" rx="4.99037" ry="2.48738" transform="rotate(180 161.99 15.4872)" fill="url(#paint3_radial_1_36964)"/>
<path d="M129.596 23.0957C127.939 23.0957 126.596 24.4388 126.596 26.0957C126.596 27.7526 127.939 29.0957 129.596 29.0957C131.253 29.0957 132.596 27.7526 132.596 26.0957C132.596 24.4388 131.253 23.0957 129.596 23.0957Z" fill="url(#paint4_angular_1_36964)"/>
<path fill-rule="evenodd" clip-rule="evenodd" d="M127.596 26.0957C127.596 24.9911 128.492 24.0957 129.596 24.0957C130.701 24.0957 131.596 24.9911 131.596 26.0957C131.596 27.2003 130.701 28.0957 129.596 28.0957C128.492 28.0957 127.596 27.2003 127.596 26.0957ZM126.596 26.0957C126.596 24.4388 127.939 23.0957 129.596 23.0957C131.253 23.0957 132.596 24.4388 132.596 26.0957C132.596 27.7526 131.253 29.0957 129.596 29.0957C127.939 29.0957 126.596 27.7526 126.596 26.0957Z" fill="url(#paint5_linear_1_36964)" fill-opacity="0.2"/>
<ellipse opacity="0.9" cx="129.596" cy="25.5959" rx="3" ry="0.7" transform="rotate(180 129.596 25.5959)" fill="url(#paint6_radial_1_36964)"/>
<ellipse opacity="0.3" cx="129.596" cy="25.5957" rx="3" ry="3.5" transform="rotate(180 129.596 25.5957)" fill="url(#paint7_radial_1_36964)"/>
<path d="M151.944 27L157 21.75L157 21L150.778 21L145 27L151.944 27Z" fill="url(#paint8_linear_1_36964)"/>
<path d="M162.944 27L168 21.75L168 21L161.778 21L156 27L162.944 27Z" fill="#076CE9" fill-opacity="0.26"/>
<path opacity="0.7" d="M369.5 14L364.5 19H229L222 12H199L191 20" stroke="#076CE9" stroke-width="1.25"/>
<path opacity="0.4" d="M308.5 19L316.5 27H330.5L338.5 19" stroke="#076CE9"/>
<path d="M200.608 15.2028L196.718 19.0919L222.089 19.0065L228.761 25.6789L239.332 25.6433L241.439 27.7504L242.5 26.6897L240.393 24.5826L230.527 24.6159L221.045 15.134L200.608 15.2028Z" fill="url(#paint9_linear_1_36964)"/>
<path d="M199.9 15.9098L196.011 19.7989L221.382 19.7135L228.054 26.3859L238.625 26.3503L240.732 28.4574L241.793 27.3968L239.686 25.2897L229.82 25.3229L220.338 15.841L199.9 15.9098Z" fill="url(#paint10_linear_1_36964)"/>
<ellipse opacity="0.9" cx="4.98257" cy="0.498257" rx="4.98257" ry="0.498257" transform="matrix(1.00157 8.75597e-08 8.71538e-08 -0.998432 203.519 15.9844)" fill="url(#paint11_radial_1_36964)"/>
<ellipse opacity="0.3" cx="4.98257" cy="2.49129" rx="4.98257" ry="2.49129" transform="matrix(1.00157 8.75597e-08 8.71538e-08 -0.998432 203.519 17.9746)" fill="url(#paint12_radial_1_36964)"/>
<path d="M240.904 23.0957C242.561 23.0957 243.904 24.4388 243.904 26.0957C243.904 27.7526 242.561 29.0957 240.904 29.0957C239.247 29.0957 237.904 27.7526 237.904 26.0957C237.904 24.4388 239.247 23.0957 240.904 23.0957Z" fill="url(#paint13_angular_1_36964)"/>
<path fill-rule="evenodd" clip-rule="evenodd" d="M242.904 26.0957C242.904 24.9911 242.008 24.0957 240.904 24.0957C239.799 24.0957 238.904 24.9911 238.904 26.0957C238.904 27.2003 239.799 28.0957 240.904 28.0957C242.008 28.0957 242.904 27.2003 242.904 26.0957ZM243.904 26.0957C243.904 24.4388 242.561 23.0957 240.904 23.0957C239.247 23.0957 237.904 24.4388 237.904 26.0957C237.904 27.7526 239.247 29.0957 240.904 29.0957C242.561 29.0957 243.904 27.7526 243.904 26.0957Z" fill="url(#paint14_linear_1_36964)" fill-opacity="0.2"/>
<ellipse opacity="0.9" cx="3" cy="0.7" rx="3" ry="0.7" transform="matrix(1 1.28005e-07 1.28005e-07 -1 237.904 26.2959)" fill="url(#paint15_radial_1_36964)"/>
<ellipse opacity="0.3" cx="3" cy="3.5" rx="3" ry="3.5" transform="matrix(1 1.28005e-07 1.28005e-07 -1 237.904 29.0957)" fill="url(#paint16_radial_1_36964)"/>
<path d="M218.556 27L213.5 21.75L213.5 21L219.722 21L225.5 27L218.556 27Z" fill="url(#paint17_linear_1_36964)"/>
<path d="M207.556 27L202.5 21.75L202.5 21L208.722 21L214.5 27L207.556 27Z" fill="#076CE9" fill-opacity="0.26"/>
<g filter="url(#filter0_d_1_36964)">
<rect x="183" y="19" width="4.99998" height="5" rx="2.49999" transform="rotate(-90 183 19)" fill="#1BDD15"/>
</g>
<g filter="url(#filter1_df_1_36964)">
<rect x="184.25" y="19" width="4.99998" height="2.5" rx="1.25" transform="rotate(-90 184.25 19)" fill="#E2FFE1"/>
</g>
<defs>
<filter id="filter0_d_1_36964" x="173" y="4" width="25" height="25" filterUnits="userSpaceOnUse" color-interpolation-filters="sRGB">
<feFlood flood-opacity="0" result="BackgroundImageFix"/>
<feColorMatrix in="SourceAlpha" type="matrix" values="0 0 0 0 0 0 0 0 0 0 0 0 0 0 0 0 0 0 127 0" result="hardAlpha"/>
<feOffset/>
<feGaussianBlur stdDeviation="5"/>
<feComposite in2="hardAlpha" operator="out"/>
<feColorMatrix type="matrix" values="0 0 0 0 0.105882 0 0 0 0 0.866667 0 0 0 0 0.0823529 0 0 0 1 0"/>
<feBlend mode="normal" in2="BackgroundImageFix" result="effect1_dropShadow_1_36964"/>
<feBlend mode="normal" in="SourceGraphic" in2="effect1_dropShadow_1_36964" result="shape"/>
</filter>
<filter id="filter1_df_1_36964" x="174.25" y="4" width="22.5" height="25" filterUnits="userSpaceOnUse" color-interpolation-filters="sRGB">
<feFlood flood-opacity="0" result="BackgroundImageFix"/>
<feColorMatrix in="SourceAlpha" type="matrix" values="0 0 0 0 0 0 0 0 0 0 0 0 0 0 0 0 0 0 127 0" result="hardAlpha"/>
<feOffset/>
<feGaussianBlur stdDeviation="5"/>
<feComposite in2="hardAlpha" operator="out"/>
<feColorMatrix type="matrix" values="0 0 0 0 0.105882 0 0 0 0 0.866667 0 0 0 0 0.0823529 0 0 0 1 0"/>
<feBlend mode="normal" in2="BackgroundImageFix" result="effect1_dropShadow_1_36964"/>
<feBlend mode="normal" in="SourceGraphic" in2="effect1_dropShadow_1_36964" result="shape"/>
<feGaussianBlur stdDeviation="1" result="effect2_foregroundBlur_1_36964"/>
</filter>
<linearGradient id="paint0_linear_1_36964" x1="164.236" y1="9.54594" x2="137.546" y2="36.2357" gradientUnits="userSpaceOnUse">
<stop stop-color="#CFCFCF"/>
<stop offset="1" stop-color="#776A83"/>
</linearGradient>
<linearGradient id="paint1_linear_1_36964" x1="164.943" y1="10.253" x2="138.253" y2="36.9427" gradientUnits="userSpaceOnUse">
<stop stop-color="#888F95"/>
<stop offset="1" stop-color="#5A5A5A"/>
</linearGradient>
<radialGradient id="paint2_radial_1_36964" cx="0" cy="0" r="1" gradientUnits="userSpaceOnUse" gradientTransform="translate(162.236 15.4634) rotate(90) scale(0.497476 4.99037)">
<stop stop-color="white"/>
<stop offset="1" stop-color="white" stop-opacity="0"/>
</radialGradient>
<radialGradient id="paint3_radial_1_36964" cx="0" cy="0" r="1" gradientUnits="userSpaceOnUse" gradientTransform="translate(162.236 15.4668) rotate(90) scale(2.48738 4.99037)">
<stop stop-color="white"/>
<stop offset="1" stop-color="white" stop-opacity="0"/>
</radialGradient>
<radialGradient id="paint4_angular_1_36964" cx="0" cy="0" r="1" gradientUnits="userSpaceOnUse" gradientTransform="translate(129.596 26.0957) rotate(180) scale(3)">
<stop stop-color="#3C4C64"/>
<stop offset="1" stop-color="#99ADCF"/>
</radialGradient>
<linearGradient id="paint5_linear_1_36964" x1="132.596" y1="26.0957" x2="126.596" y2="26.0957" gradientUnits="userSpaceOnUse">
<stop stop-color="white"/>
<stop offset="1"/>
</linearGradient>
<radialGradient id="paint6_radial_1_36964" cx="0" cy="0" r="1" gradientUnits="userSpaceOnUse" gradientTransform="translate(129.596 25.5959) rotate(90) scale(0.7 3)">
<stop stop-color="white"/>
<stop offset="1" stop-color="white" stop-opacity="0"/>
</radialGradient>
<radialGradient id="paint7_radial_1_36964" cx="0" cy="0" r="1" gradientUnits="userSpaceOnUse" gradientTransform="translate(129.596 25.5957) rotate(90) scale(3.5 3)">
<stop stop-color="white"/>
<stop offset="1" stop-color="white" stop-opacity="0"/>
</radialGradient>
<linearGradient id="paint8_linear_1_36964" x1="152.5" y1="21" x2="152.5" y2="27" gradientUnits="userSpaceOnUse">
<stop stop-color="#888F95"/>
<stop offset="1" stop-color="#5A5A5A"/>
</linearGradient>
<linearGradient id="paint9_linear_1_36964" x1="206.264" y1="9.54594" x2="232.954" y2="36.2357" gradientUnits="userSpaceOnUse">
<stop stop-color="#CFCFCF"/>
<stop offset="1" stop-color="#776A83"/>
</linearGradient>
<linearGradient id="paint10_linear_1_36964" x1="205.557" y1="10.253" x2="232.247" y2="36.9427" gradientUnits="userSpaceOnUse">
<stop stop-color="#888F95"/>
<stop offset="1" stop-color="#5A5A5A"/>
</linearGradient>
<radialGradient id="paint11_radial_1_36964" cx="0" cy="0" r="1" gradientUnits="userSpaceOnUse" gradientTransform="translate(4.98257 0.498257) rotate(90) scale(0.498257 4.98257)">
<stop stop-color="white"/>
<stop offset="1" stop-color="white" stop-opacity="0"/>
</radialGradient>
<radialGradient id="paint12_radial_1_36964" cx="0" cy="0" r="1" gradientUnits="userSpaceOnUse" gradientTransform="translate(4.98257 2.49129) rotate(90) scale(2.49129 4.98257)">
<stop stop-color="white"/>
<stop offset="1" stop-color="white" stop-opacity="0"/>
</radialGradient>
<radialGradient id="paint13_angular_1_36964" cx="0" cy="0" r="1" gradientUnits="userSpaceOnUse" gradientTransform="translate(240.904 26.0957) scale(3)">
<stop stop-color="#3C4C64"/>
<stop offset="1" stop-color="#99ADCF"/>
</radialGradient>
<linearGradient id="paint14_linear_1_36964" x1="237.904" y1="26.0957" x2="243.904" y2="26.0957" gradientUnits="userSpaceOnUse">
<stop stop-color="white"/>
<stop offset="1"/>
</linearGradient>
<radialGradient id="paint15_radial_1_36964" cx="0" cy="0" r="1" gradientUnits="userSpaceOnUse" gradientTransform="translate(3 0.7) rotate(90) scale(0.7 3)">
<stop stop-color="white"/>
<stop offset="1" stop-color="white" stop-opacity="0"/>
</radialGradient>
<radialGradient id="paint16_radial_1_36964" cx="0" cy="0" r="1" gradientUnits="userSpaceOnUse" gradientTransform="translate(3 3.5) rotate(90) scale(3.5 3)">
<stop stop-color="white"/>
<stop offset="1" stop-color="white" stop-opacity="0"/>
</radialGradient>
<linearGradient id="paint17_linear_1_36964" x1="218" y1="21" x2="218" y2="27" gradientUnits="userSpaceOnUse">
<stop stop-color="#888F95"/>
<stop offset="1" stop-color="#5A5A5A"/>
</linearGradient>
</defs>
</svg>
