<svg width="10" height="62" viewBox="0 0 10 62" fill="none" xmlns="http://www.w3.org/2000/svg">
<g opacity="0.25">
<path d="M9 0.5C9 0.223857 9.22386 0 9.5 0C9.77614 0 10 0.223858 10 0.5V61.5C10 61.7761 9.77614 62 9.5 62C9.22386 62 9 61.7761 9 61.5V0.5Z" fill="url(#paint0_linear_92_9494)"/>
<path d="M6 0.5C6 0.223857 6.22386 0 6.5 0C6.77614 0 7 0.223858 7 0.5V61.5C7 61.7761 6.77614 62 6.5 62C6.22386 62 6 61.7761 6 61.5V0.5Z" fill="url(#paint1_linear_92_9494)"/>
<path d="M3 0.5C3 0.223857 3.22386 0 3.5 0C3.77614 0 4 0.223858 4 0.5V61.5C4 61.7761 3.77614 62 3.5 62C3.22386 62 3 61.7761 3 61.5V0.5Z" fill="url(#paint2_linear_92_9494)"/>
<path d="M0 0.5C0 0.223857 0.223858 0 0.5 0C0.776142 0 1 0.223858 1 0.5V61.5C1 61.7761 0.776142 62 0.5 62C0.223858 62 0 61.7761 0 61.5V0.5Z" fill="url(#paint3_linear_92_9494)"/>
</g>
<defs>
<linearGradient id="paint0_linear_92_9494" x1="0.363014" y1="1.58974" x2="0.359772" y2="62" gradientUnits="userSpaceOnUse">
<stop stop-color="#076CE9" stop-opacity="0"/>
<stop offset="1" stop-color="#19C2EF"/>
</linearGradient>
<linearGradient id="paint1_linear_92_9494" x1="0.363014" y1="1.58974" x2="0.359772" y2="62" gradientUnits="userSpaceOnUse">
<stop stop-color="#076CE9" stop-opacity="0"/>
<stop offset="1" stop-color="#19C2EF"/>
</linearGradient>
<linearGradient id="paint2_linear_92_9494" x1="0.363014" y1="1.58974" x2="0.359772" y2="62" gradientUnits="userSpaceOnUse">
<stop stop-color="#076CE9" stop-opacity="0"/>
<stop offset="1" stop-color="#19C2EF"/>
</linearGradient>
<linearGradient id="paint3_linear_92_9494" x1="0.363014" y1="1.58974" x2="0.359772" y2="62" gradientUnits="userSpaceOnUse">
<stop stop-color="#076CE9" stop-opacity="0"/>
<stop offset="1" stop-color="#19C2EF"/>
</linearGradient>
</defs>
</svg>
