<svg width="316" height="201" viewBox="0 0 316 201" fill="none" xmlns="http://www.w3.org/2000/svg">
<g opacity="0.15">
<mask id="mask0_92_15082" style="mask-type:alpha" maskUnits="userSpaceOnUse" x="0" y="0" width="316" height="201">
<rect x="6.10352e-05" y="0.5" width="316" height="200" rx="24" fill="url(#paint0_linear_92_15082)"/>
</mask>
<g mask="url(#mask0_92_15082)">
<g opacity="0.06">
<path d="M2.19888 149.124H-16.8123V150.382H2.19888V149.124Z" fill="#EEF5FE" fill-opacity="0.5"/>
</g>
<g opacity="0.45">
<path d="M-6.75046 165.833L-7.84354 166.464L1.61989 182.856L2.71297 182.225L-6.75046 165.833Z" fill="#EEF5FE" fill-opacity="0.5"/>
</g>
<path d="M13.1731 198.937C13.172 199.248 13.079 199.551 12.9057 199.809C12.7325 200.066 12.4868 200.267 12.1997 200.385C11.9126 200.503 11.5969 200.534 11.2925 200.472C10.988 200.411 10.7086 200.261 10.4893 200.042C10.27 199.822 10.1207 199.542 10.0603 199.237C9.9999 198.933 10.0311 198.617 10.1499 198.33C10.2687 198.044 10.4698 197.798 10.7279 197.626C10.986 197.453 11.2894 197.361 11.5999 197.36C11.8068 197.36 12.0117 197.401 12.2028 197.48C12.3939 197.56 12.5676 197.676 12.7137 197.822C12.8599 197.969 12.9756 198.143 13.0545 198.334C13.1333 198.525 13.1736 198.73 13.1731 198.937Z" fill="#EEF5FE" fill-opacity="0.5"/>
<g opacity="0.11">
<path d="M2.17051 83.551H-16.8408V84.8115H2.17051V83.551Z" fill="#EEF5FE" fill-opacity="0.5"/>
</g>
<g opacity="0.63">
<path d="M-6.77831 100.259L-7.87158 100.89L1.59204 117.283L2.68531 116.652L-6.77831 100.259Z" fill="#EEF5FE" fill-opacity="0.5"/>
</g>
<g opacity="0.29">
<path d="M11.0608 100.26L1.5907 116.65L2.6826 117.281L12.1527 100.89L11.0608 100.26Z" fill="#EEF5FE" fill-opacity="0.5"/>
</g>
<g opacity="0.18">
<path d="M1.5983 116.653L-7.87665 133.041L-6.78316 133.673L2.69179 117.285L1.5983 116.653Z" fill="#EEF5FE" fill-opacity="0.5"/>
</g>
<g opacity="0.14">
<path d="M2.06073 116.337H-16.7868V117.594H2.06073V116.337Z" fill="#EEF5FE" fill-opacity="0.5"/>
</g>
<g opacity="0.05">
<path d="M12.1198 133.046L11.028 133.676L20.4925 150.069L21.5842 149.438L12.1198 133.046Z" fill="#EEF5FE" fill-opacity="0.5"/>
</g>
<g opacity="0.56">
<path d="M20.5078 149.445L11.0135 165.822L12.1049 166.455L21.5992 150.077L20.5078 149.445Z" fill="#EEF5FE" fill-opacity="0.5"/>
</g>
<g opacity="0.03">
<path d="M20.9578 149.124H2.11017V150.382H20.9578V149.124Z" fill="#EEF5FE" fill-opacity="0.5"/>
</g>
<g opacity="0.39">
<path d="M31.0213 199.245L29.923 198.619L39.393 182.225L40.484 182.858L31.0213 199.245Z" fill="#EEF5FE" fill-opacity="0.5"/>
</g>
<g opacity="0.94">
<path d="M39.8591 181.911H21.0079V183.172H39.8591V181.911Z" fill="#EEF5FE" fill-opacity="0.5"/>
</g>
<g opacity="0.52">
<path d="M40.441 182.246L39.351 182.878L48.8552 199.251L49.9451 198.618L40.441 182.246Z" fill="#EEF5FE" fill-opacity="0.5"/>
</g>
<g opacity="0.18">
<path d="M2.14227 17.9768H-16.8653V19.2373H2.14227V17.9768Z" fill="#EEF5FE" fill-opacity="0.5"/>
</g>
<g opacity="0.78">
<path d="M-6.80769 34.6857L-7.89767 35.3149L1.56707 51.7089L2.65705 51.0796L-6.80769 34.6857Z" fill="#EEF5FE" fill-opacity="0.5"/>
</g>
<g opacity="0.34">
<path d="M11.0302 34.6848L1.5687 51.0806L2.6588 51.7096L12.1203 35.3138L11.0302 34.6848Z" fill="#EEF5FE" fill-opacity="0.5"/>
</g>
<g opacity="0.8">
<path d="M1.58574 51.0876L-7.91556 67.4583L-6.82608 68.0906L2.67522 51.72L1.58574 51.0876Z" fill="#EEF5FE" fill-opacity="0.5"/>
</g>
<g opacity="0.97">
<path d="M2.03238 50.7637H-16.8152V52.0242H2.03238V50.7637Z" fill="#EEF5FE" fill-opacity="0.5"/>
</g>
<g opacity="0.05">
<path d="M21.0399 50.7637H2.03241V52.0242H21.0399V50.7637Z" fill="#EEF5FE" fill-opacity="0.5"/>
</g>
<g opacity="0.37">
<path d="M2.61787 51.0984L1.52856 51.7307L11.0318 68.1015L12.1211 67.4691L2.61787 51.0984Z" fill="#EEF5FE" fill-opacity="0.5"/>
</g>
<g opacity="0.72">
<path d="M20.4603 84.4924L10.9976 68.1054L12.0959 67.4727L21.5586 83.8669L20.4603 84.4924Z" fill="#EEF5FE" fill-opacity="0.5"/>
</g>
<g opacity="0.24">
<path d="M21.5586 84.4924L20.4603 83.8669L29.9303 67.4727L31.0213 68.1054L21.5586 84.4924Z" fill="#EEF5FE" fill-opacity="0.5"/>
</g>
<g opacity="0.39">
<path d="M12.0959 100.887L10.9976 100.261L20.4603 83.8669L21.5586 84.4925L12.0959 100.887Z" fill="#EEF5FE" fill-opacity="0.5"/>
</g>
<g opacity="0.95">
<path d="M20.9331 83.551H2.08197V84.8115H20.9331V83.551Z" fill="#EEF5FE" fill-opacity="0.5"/>
</g>
<g opacity="0.78">
<path d="M39.9406 83.551H20.933V84.8115H39.9406V83.551Z" fill="#EEF5FE" fill-opacity="0.5"/>
</g>
<g opacity="0.12">
<path d="M21.5176 83.8847L20.4262 84.5181L29.9285 100.892L31.0199 100.259L21.5176 83.8847Z" fill="#EEF5FE" fill-opacity="0.5"/>
</g>
<path d="M13.1162 67.7896C13.1155 68.0997 13.023 68.4026 12.8502 68.6602C12.6775 68.9178 12.4323 69.1184 12.1456 69.2367C11.859 69.3551 11.5437 69.3859 11.2395 69.3252C10.9354 69.2645 10.6561 69.1151 10.4368 68.8958C10.2175 68.6765 10.0681 68.3972 10.0074 68.093C9.94671 67.7889 9.97749 67.4736 10.0958 67.1869C10.2142 66.9003 10.4148 66.6551 10.6724 66.4824C10.9299 66.3096 11.2329 66.217 11.543 66.2163C11.7498 66.2156 11.9547 66.2559 12.1459 66.3347C12.337 66.4135 12.5108 66.5294 12.657 66.6756C12.8032 66.8218 12.9191 66.9955 12.9979 67.1867C13.0767 67.3779 13.1169 67.5828 13.1162 67.7896Z" fill="#EEF5FE" fill-opacity="0.5"/>
<path d="M3.65141 84.1785C3.65141 84.4888 3.55944 84.7921 3.38713 85.0501C3.21482 85.3082 2.9699 85.5093 2.6833 85.6283C2.39671 85.7472 2.0813 85.7785 1.77693 85.7182C1.47256 85.6579 1.19287 85.5088 0.973216 85.2896C0.753559 85.0705 0.603783 84.7912 0.542809 84.4869C0.481836 84.1827 0.512411 83.8672 0.630652 83.5803C0.748894 83.2935 0.9495 83.0481 1.20714 82.8752C1.46478 82.7023 1.7679 82.6096 2.07818 82.6089C2.28455 82.6086 2.48895 82.649 2.67972 82.7277C2.87049 82.8064 3.04387 82.922 3.18997 83.0677C3.33606 83.2135 3.45202 83.3866 3.5312 83.5772C3.61037 83.7678 3.65122 83.9721 3.65141 84.1785Z" fill="#EEF5FE" fill-opacity="0.5"/>
<path d="M13.1162 100.576C13.1155 100.886 13.023 101.189 12.8502 101.446C12.6775 101.704 12.4323 101.905 12.1456 102.023C11.859 102.141 11.5437 102.172 11.2395 102.111C10.9354 102.051 10.6561 101.901 10.4368 101.682C10.2175 101.463 10.0681 101.183 10.0074 100.879C9.94671 100.575 9.97749 100.26 10.0958 99.9731C10.2142 99.6864 10.4148 99.4412 10.6724 99.2685C10.9299 99.0957 11.2329 99.0032 11.543 99.0024C11.7497 99.002 11.9545 99.0424 12.1456 99.1213C12.3367 99.2002 12.5103 99.3161 12.6564 99.4623C12.8026 99.6084 12.9185 99.782 12.9974 99.9731C13.0763 100.164 13.1167 100.369 13.1162 100.576Z" fill="#EEF5FE" fill-opacity="0.5"/>
<g opacity="0.73">
<path d="M30.9914 100.258L29.9006 100.888L39.3648 117.281L40.4556 116.651L30.9914 100.258Z" fill="#EEF5FE" fill-opacity="0.5"/>
</g>
<g opacity="0.06">
<path d="M30.9921 133.675L29.9011 133.042L39.3638 116.648L40.4548 117.281L30.9921 133.675Z" fill="#EEF5FE" fill-opacity="0.5"/>
</g>
<path d="M32.0135 100.576C32.0127 100.886 31.9201 101.189 31.7472 101.447C31.5743 101.704 31.3289 101.905 31.042 102.023C30.7551 102.141 30.4397 102.172 30.1354 102.111C29.8312 102.05 29.5519 101.9 29.3327 101.681C29.1136 101.461 28.9644 101.181 28.9042 100.877C28.8439 100.573 28.8752 100.257 28.9941 99.9706C29.113 99.684 29.3142 99.439 29.5722 99.2667C29.8303 99.0944 30.1336 99.0024 30.4439 99.0024C30.6505 99.0018 30.8551 99.0421 31.0461 99.121C31.237 99.1999 31.4105 99.3158 31.5564 99.4621C31.7023 99.6083 31.8178 99.7821 31.8963 99.9732C31.9747 100.164 32.0146 100.369 32.0135 100.576Z" fill="#EEF5FE" fill-opacity="0.5"/>
<g opacity="0.89">
<path d="M67.7418 133.054L58.2487 149.43L59.3382 150.061L68.8313 133.686L67.7418 133.054Z" fill="#EEF5FE" fill-opacity="0.5"/>
</g>
<g opacity="0.28">
<path d="M77.7389 149.124H58.7277V150.382H77.7389V149.124Z" fill="#EEF5FE" fill-opacity="0.5"/>
</g>
<g opacity="0.74">
<path d="M59.3138 149.458L58.2238 150.091L67.7272 166.463L68.8172 165.831L59.3138 149.458Z" fill="#EEF5FE" fill-opacity="0.5"/>
</g>
<path d="M88.7124 198.937C88.7113 199.248 88.6183 199.551 88.4451 199.809C88.2718 200.066 88.0261 200.267 87.739 200.385C87.4519 200.503 87.1362 200.534 86.8318 200.472C86.5273 200.411 86.2479 200.261 86.0286 200.042C85.8093 199.822 85.66 199.542 85.5996 199.237C85.5392 198.933 85.5704 198.617 85.6892 198.33C85.808 198.044 86.0092 197.798 86.2672 197.626C86.5253 197.453 86.8287 197.361 87.1392 197.36C87.3461 197.36 87.551 197.401 87.7422 197.48C87.9334 197.559 88.107 197.676 88.2531 197.822C88.3993 197.969 88.5151 198.143 88.5939 198.334C88.6727 198.525 88.713 198.73 88.7124 198.937Z" fill="#EEF5FE" fill-opacity="0.5"/>
<g opacity="0.76">
<path d="M20.4384 18.9225L10.9684 2.52829L12.0667 1.89551L21.5294 18.2897L20.4384 18.9225Z" fill="#EEF5FE" fill-opacity="0.5"/>
</g>
<g opacity="0.67">
<path d="M21.5297 18.9225L20.4387 18.2897L29.9013 1.89551L30.9924 2.52829L21.5297 18.9225Z" fill="#EEF5FE" fill-opacity="0.5"/>
</g>
<g opacity="0.19">
<path d="M12.0667 35.3173L10.9684 34.6845L20.4384 18.2903L21.5294 18.9231L12.0667 35.3173Z" fill="#EEF5FE" fill-opacity="0.5"/>
</g>
<g opacity="0.91">
<path d="M20.9047 17.9768H2.05356V19.2373H20.9047V17.9768Z" fill="#EEF5FE" fill-opacity="0.5"/>
</g>
<g opacity="0.22">
<path d="M39.9122 17.9768H20.9046V19.2373H39.9122V17.9768Z" fill="#EEF5FE" fill-opacity="0.5"/>
</g>
<g opacity="0.23">
<path d="M21.489 18.3134L20.3977 18.9473L29.9045 35.3148L30.9958 34.6809L21.489 18.3134Z" fill="#EEF5FE" fill-opacity="0.5"/>
</g>
<path d="M13.0881 2.2151C13.0877 2.5251 12.9954 2.82801 12.8229 3.08557C12.6503 3.34313 12.4054 3.54378 12.1189 3.66218C11.8324 3.78058 11.5172 3.81141 11.2132 3.75077C10.9092 3.69014 10.63 3.54076 10.4108 3.32151C10.1917 3.10226 10.0425 2.82297 9.98196 2.51894C9.92147 2.2149 9.95244 1.89976 10.071 1.61332C10.1895 1.32688 10.3903 1.082 10.6479 0.909611C10.9055 0.737223 11.2085 0.645063 11.5185 0.644775C11.9347 0.645602 12.3335 0.811336 12.6277 1.10567C12.9219 1.40001 13.0875 1.79895 13.0881 2.2151Z" fill="#EEF5FE" fill-opacity="0.5"/>
<path d="M3.6232 18.6053C3.62392 18.9159 3.53248 19.2197 3.36045 19.4783C3.18842 19.7369 2.94353 19.9386 2.65679 20.058C2.37004 20.1773 2.05433 20.2089 1.74962 20.1488C1.44491 20.0886 1.1649 19.9394 0.945023 19.7201C0.725147 19.5007 0.575295 19.221 0.514436 18.9165C0.453577 18.6119 0.484448 18.2961 0.603139 18.0091C0.721831 17.7221 0.923012 17.4767 1.18121 17.3041C1.43941 17.1315 1.74301 17.0393 2.05361 17.0393C2.46914 17.0397 2.8676 17.2047 3.16177 17.4982C3.45594 17.7917 3.62185 18.1897 3.6232 18.6053Z" fill="#EEF5FE" fill-opacity="0.5"/>
<path d="M13.0881 35.0024C13.0871 35.3123 12.9943 35.6149 12.8214 35.8721C12.6486 36.1293 12.4034 36.3295 12.1169 36.4474C11.8303 36.5654 11.5153 36.5958 11.2114 36.5348C10.9076 36.4739 10.6287 36.3243 10.4098 36.1049C10.191 35.8855 10.042 35.6063 9.98175 35.3023C9.92149 34.9983 9.95263 34.6833 10.0712 34.3971C10.1899 34.1108 10.3906 33.8661 10.6482 33.6938C10.9058 33.5216 11.2086 33.4295 11.5185 33.4292C11.9352 33.43 12.3345 33.5962 12.6287 33.8911C12.923 34.1861 13.0882 34.5858 13.0881 35.0024Z" fill="#EEF5FE" fill-opacity="0.5"/>
<g opacity="0.63">
<path d="M30.9623 34.6857L29.8723 35.3149L39.337 51.7089L40.427 51.0796L30.9623 34.6857Z" fill="#EEF5FE" fill-opacity="0.5"/>
</g>
<g opacity="0.61">
<path d="M48.7993 34.6842L39.3382 51.0798L40.4283 51.7089L49.8894 35.3133L48.7993 34.6842Z" fill="#EEF5FE" fill-opacity="0.5"/>
</g>
<g opacity="0.98">
<path d="M39.3557 51.0876L29.8544 67.4583L30.9439 68.0906L40.4452 51.72L39.3557 51.0876Z" fill="#EEF5FE" fill-opacity="0.5"/>
</g>
<g opacity="0.32">
<path d="M58.813 50.7637H39.8018V52.0242H58.813V50.7637Z" fill="#EEF5FE" fill-opacity="0.5"/>
</g>
<g opacity="0.09">
<path d="M40.3881 51.0984L39.2988 51.7307L48.8013 68.1015L49.8906 67.4692L40.3881 51.0984Z" fill="#EEF5FE" fill-opacity="0.5"/>
</g>
<path d="M31.9887 35.0024C31.9884 35.3132 31.8958 35.6169 31.7229 35.8752C31.5499 36.1334 31.3043 36.3345 31.017 36.4531C30.7297 36.5717 30.4137 36.6025 30.109 36.5415C29.8042 36.4805 29.5244 36.3305 29.3049 36.1105C29.0853 35.8905 28.936 35.6103 28.8757 35.3054C28.8154 35.0005 28.8469 34.6846 28.9662 34.3976C29.0855 34.1106 29.2872 33.8654 29.5458 33.693C29.8044 33.5207 30.1083 33.4288 30.4191 33.4292C30.6255 33.4293 30.8299 33.4701 31.0205 33.5492C31.2111 33.6284 31.3843 33.7443 31.5301 33.8904C31.6758 34.0366 31.7914 34.21 31.8701 34.4008C31.9488 34.5916 31.9891 34.796 31.9887 35.0024Z" fill="#EEF5FE" fill-opacity="0.5"/>
<path d="M22.5207 51.396C22.5204 51.7062 22.4281 52.0093 22.2556 52.267C22.083 52.5247 21.8379 52.7255 21.5513 52.8439C21.2646 52.9623 20.9493 52.9931 20.6452 52.9323C20.3411 52.8715 20.0618 52.7219 19.8427 52.5024C19.6236 52.2829 19.4745 52.0033 19.4142 51.6991C19.354 51.3948 19.3854 51.0796 19.5043 50.7931C19.6233 50.5067 19.8245 50.262 20.0825 50.0899C20.3406 49.9178 20.6439 49.8261 20.954 49.8264C21.1602 49.8258 21.3644 49.866 21.5549 49.9447C21.7455 50.0234 21.9186 50.139 22.0642 50.285C22.2099 50.4309 22.3252 50.6042 22.4035 50.7949C22.4819 50.9855 22.5217 51.1899 22.5207 51.396Z" fill="#EEF5FE" fill-opacity="0.5"/>
<path d="M31.9887 67.7859C31.9891 68.0969 31.8972 68.4009 31.7247 68.6596C31.5521 68.9183 31.3067 69.12 31.0195 69.2392C30.7323 69.3583 30.4162 69.3896 30.1112 69.329C29.8062 69.2685 29.526 69.1188 29.3061 68.8989C29.0863 68.679 28.9366 68.3988 28.876 68.0939C28.8154 67.7889 28.8467 67.4727 28.9659 67.1855C29.085 66.8983 29.2867 66.6529 29.5454 66.4804C29.8041 66.3079 30.1082 66.216 30.4191 66.2163C30.8353 66.2165 31.2345 66.382 31.5288 66.6763C31.8231 66.9706 31.9885 67.3697 31.9887 67.7859Z" fill="#EEF5FE" fill-opacity="0.5"/>
<g opacity="0.7">
<path d="M58.2309 84.4924L48.7682 68.1054L49.8592 67.4727L59.3292 83.8669L58.2309 84.4924Z" fill="#EEF5FE" fill-opacity="0.5"/>
</g>
<g opacity="0.86">
<path d="M59.3294 84.4924L58.2311 83.8669L67.7011 67.4727L68.7921 68.1054L59.3294 84.4924Z" fill="#EEF5FE" fill-opacity="0.5"/>
</g>
<g opacity="0.27">
<path d="M49.8592 100.887L48.7682 100.261L58.2309 83.8669L59.3292 84.4925L49.8592 100.887Z" fill="#EEF5FE" fill-opacity="0.5"/>
</g>
<g opacity="0.82">
<path d="M58.6995 83.551H39.8519V84.8115H58.6995V83.551Z" fill="#EEF5FE" fill-opacity="0.5"/>
</g>
<g opacity="0.35">
<path d="M77.7104 83.551H58.6993V84.8115H77.7104V83.551Z" fill="#EEF5FE" fill-opacity="0.5"/>
</g>
<g opacity="0.57">
<path d="M67.7008 100.894L58.1945 84.5139L59.2855 83.8884L68.7918 100.254L67.7008 100.894Z" fill="#EEF5FE" fill-opacity="0.5"/>
</g>
<path d="M50.8864 67.7895C50.8857 68.0998 50.7932 68.4029 50.6204 68.6605C50.4477 68.9182 50.2025 69.1189 49.9157 69.2374C49.629 69.3558 49.3136 69.3866 49.0093 69.3259C48.7051 69.2652 48.4257 69.1158 48.2063 68.8964C47.9869 68.677 47.8375 68.3976 47.7768 68.0934C47.7161 67.7891 47.7469 67.4737 47.8653 67.187C47.9838 66.9003 48.1845 66.655 48.4422 66.4823C48.6998 66.3095 49.0029 66.217 49.3132 66.2163C49.5199 66.2159 49.7246 66.2564 49.9156 66.3353C50.1067 66.4142 50.2803 66.5301 50.4264 66.6763C50.5726 66.8224 50.6885 66.996 50.7674 67.1871C50.8463 67.3781 50.8868 67.5828 50.8864 67.7895Z" fill="#EEF5FE" fill-opacity="0.5"/>
<path d="M39.8519 85.7481C40.7188 85.7481 41.4215 85.0454 41.4215 84.1785C41.4215 83.3116 40.7188 82.6089 39.8519 82.6089C38.9851 82.6089 38.2823 83.3116 38.2823 84.1785C38.2823 85.0454 38.9851 85.7481 39.8519 85.7481Z" fill="#EEF5FE" fill-opacity="0.5"/>
<path d="M50.8864 100.576C50.8857 100.886 50.7931 101.189 50.6202 101.447C50.4473 101.705 50.2019 101.905 49.915 102.024C49.6281 102.142 49.3126 102.173 49.0083 102.112C48.7039 102.051 48.4245 101.901 48.2053 101.682C47.986 101.462 47.8368 101.182 47.7764 100.878C47.7161 100.573 47.7473 100.258 47.8662 99.9711C47.985 99.6844 48.1862 99.4394 48.4443 99.267C48.7023 99.0946 49.0057 99.0025 49.316 99.0024C49.5225 99.0026 49.7268 99.0434 49.9175 99.1226C50.1081 99.2018 50.2813 99.3177 50.4271 99.4638C50.5729 99.6099 50.6885 99.7833 50.7673 99.9741C50.8461 100.165 50.8866 100.369 50.8864 100.576Z" fill="#EEF5FE" fill-opacity="0.5"/>
<g opacity="0.92">
<path d="M78.2257 117.281L77.1347 116.648L86.5974 100.261L87.6884 100.887L78.2257 117.281Z" fill="#EEF5FE" fill-opacity="0.5"/>
</g>
<g opacity="0.46">
<path d="M68.763 133.675L67.672 133.042L77.1347 116.648L78.2257 117.281L68.763 133.675Z" fill="#EEF5FE" fill-opacity="0.5"/>
</g>
<g opacity="0.29">
<path d="M77.6 116.337H58.7488V117.594H77.6V116.337Z" fill="#EEF5FE" fill-opacity="0.5"/>
</g>
<path d="M69.7834 100.576C69.7826 100.886 69.6899 101.189 69.5168 101.447C69.3437 101.705 69.0981 101.905 68.8111 102.024C68.524 102.142 68.2083 102.172 67.904 102.111C67.5997 102.049 67.3203 101.899 67.1013 101.679C66.8823 101.459 66.7335 101.179 66.6736 100.875C66.6138 100.57 66.6456 100.255 66.765 99.968C66.8845 99.6815 67.0862 99.4368 67.3448 99.265C67.6033 99.0931 67.907 99.0017 68.2174 99.0024C68.4236 99.0025 68.6278 99.0433 68.8183 99.1225C69.0087 99.2017 69.1816 99.3177 69.3271 99.4638C69.4726 99.61 69.5878 99.7835 69.6661 99.9743C69.7444 100.165 69.7842 100.369 69.7834 100.576Z" fill="#EEF5FE" fill-opacity="0.5"/>
<path d="M60.3185 116.966C60.3181 117.276 60.2258 117.579 60.0533 117.836C59.8807 118.094 59.6356 118.295 59.349 118.413C59.0624 118.531 58.7471 118.562 58.4431 118.501C58.139 118.44 57.8598 118.291 57.6408 118.071C57.4218 117.852 57.2728 117.572 57.2127 117.268C57.1526 116.964 57.184 116.648 57.303 116.362C57.422 116.076 57.6232 115.831 57.8812 115.659C58.1392 115.487 58.4425 115.396 58.7525 115.396C59.168 115.398 59.566 115.564 59.8594 115.858C60.1529 116.152 60.3179 116.55 60.3185 116.966Z" fill="#EEF5FE" fill-opacity="0.5"/>
<g opacity="0.68">
<path d="M97.1217 150.069L96.0307 149.436L105.493 133.049L106.592 133.675L97.1217 150.069Z" fill="#EEF5FE" fill-opacity="0.5"/>
</g>
<path d="M88.684 133.363C88.6833 133.673 88.5907 133.976 88.418 134.233C88.2452 134.491 88.0001 134.692 87.7134 134.81C87.4267 134.928 87.1114 134.959 86.8073 134.898C86.5032 134.838 86.2238 134.688 86.0045 134.469C85.7852 134.25 85.6358 133.97 85.5751 133.666C85.5145 133.362 85.5452 133.047 85.6636 132.76C85.7819 132.474 85.9826 132.228 86.2401 132.056C86.4977 131.883 86.8007 131.79 87.1108 131.79C87.3176 131.789 87.5225 131.829 87.7138 131.908C87.905 131.986 88.0788 132.102 88.225 132.249C88.3713 132.395 88.4871 132.569 88.5659 132.76C88.6447 132.951 88.6848 133.156 88.684 133.363Z" fill="#EEF5FE" fill-opacity="0.5"/>
<path d="M79.2198 149.753C79.2199 150.063 79.128 150.367 78.9556 150.625C78.7833 150.883 78.5383 151.084 78.2517 151.203C77.965 151.322 77.6495 151.353 77.345 151.293C77.0405 151.233 76.7607 151.084 76.541 150.864C76.3213 150.645 76.1715 150.366 76.1105 150.061C76.0495 149.757 76.0801 149.442 76.1984 149.155C76.3167 148.868 76.5174 148.622 76.7752 148.449C77.033 148.276 77.3362 148.184 77.6466 148.183C77.853 148.183 78.0576 148.223 78.2484 148.301C78.4393 148.38 78.6128 148.496 78.759 148.641C78.9051 148.787 79.021 148.96 79.1001 149.151C79.1792 149.342 79.2199 149.546 79.2198 149.753Z" fill="#EEF5FE" fill-opacity="0.5"/>
<path d="M98.1204 182.54C98.1211 182.851 98.0294 183.156 97.8568 183.415C97.6842 183.675 97.4385 183.877 97.1509 183.996C96.8633 184.116 96.5466 184.147 96.2411 184.087C95.9356 184.026 95.655 183.876 95.4347 183.656C95.2145 183.436 95.0646 183.155 95.004 182.849C94.9434 182.544 94.9749 182.227 95.0944 181.94C95.2139 181.652 95.4161 181.406 95.6754 181.234C95.9347 181.061 96.2393 180.969 96.5508 180.97C96.9668 180.971 97.3655 181.137 97.6597 181.431C97.9539 181.725 98.1195 182.124 98.1204 182.54Z" fill="#EEF5FE" fill-opacity="0.5"/>
<path d="M107.582 198.934C107.581 199.245 107.488 199.548 107.315 199.806C107.142 200.064 106.896 200.264 106.609 200.382C106.322 200.5 106.006 200.531 105.702 200.469C105.397 200.408 105.118 200.258 104.899 200.038C104.68 199.817 104.531 199.537 104.471 199.233C104.411 198.928 104.443 198.612 104.563 198.326C104.682 198.039 104.884 197.795 105.143 197.623C105.401 197.451 105.705 197.36 106.016 197.36C106.222 197.361 106.426 197.402 106.616 197.481C106.807 197.561 106.979 197.677 107.125 197.823C107.27 197.969 107.385 198.142 107.464 198.333C107.542 198.524 107.582 198.728 107.582 198.934Z" fill="#EEF5FE" fill-opacity="0.5"/>
<g opacity="0.17">
<path d="M49.8345 1.89885L48.7446 2.52808L58.2095 18.9215L59.2993 18.2923L49.8345 1.89885Z" fill="#EEF5FE" fill-opacity="0.5"/>
</g>
<g opacity="0.06">
<path d="M67.6683 1.8953L58.2154 18.2957L59.3057 18.9241L68.7586 2.52373L67.6683 1.8953Z" fill="#EEF5FE" fill-opacity="0.5"/>
</g>
<g opacity="0.56">
<path d="M58.2031 18.2889L48.7502 34.6892L49.8405 35.3176L59.2934 18.9173L58.2031 18.2889Z" fill="#EEF5FE" fill-opacity="0.5"/>
</g>
<g opacity="0.62">
<path d="M58.6746 17.9768H39.8234V19.2373H58.6746V17.9768Z" fill="#EEF5FE" fill-opacity="0.5"/>
</g>
<g opacity="0.66">
<path d="M77.6816 17.9768H58.6747V19.2373H77.6816V17.9768Z" fill="#EEF5FE" fill-opacity="0.5"/>
</g>
<g opacity="0.47">
<path d="M59.2581 18.3132L58.1694 18.9453L67.6742 35.3144L68.7629 34.6823L59.2581 18.3132Z" fill="#EEF5FE" fill-opacity="0.5"/>
</g>
<path d="M50.858 2.2151C50.8575 2.52506 50.7653 2.82795 50.5928 3.08549C50.4203 3.34304 50.1754 3.54369 49.8889 3.66211C49.6025 3.78053 49.2873 3.8114 48.9834 3.75082C48.6794 3.69025 48.4002 3.54094 48.181 3.32176C47.9618 3.10259 47.8125 2.82337 47.7519 2.51938C47.6913 2.2154 47.7222 1.90028 47.8406 1.61382C47.9591 1.32737 48.1597 1.08244 48.4172 0.909964C48.6748 0.737489 48.9777 0.645207 49.2876 0.644775C49.7041 0.644833 50.1035 0.810296 50.398 1.10478C50.6924 1.39926 50.8579 1.79864 50.858 2.2151Z" fill="#EEF5FE" fill-opacity="0.5"/>
<path d="M41.3967 18.6053C41.3979 18.9163 41.3067 19.2207 41.1348 19.4799C40.9628 19.7391 40.7178 19.9415 40.4308 20.0614C40.1438 20.1813 39.8277 20.2133 39.5224 20.1535C39.2172 20.0936 38.9366 19.9445 38.7161 19.7251C38.4957 19.5056 38.3453 19.2257 38.284 18.9208C38.2227 18.6158 38.2533 18.2995 38.3718 18.012C38.4904 17.7244 38.6916 17.4785 38.95 17.3053C39.2085 17.1322 39.5124 17.0396 39.8235 17.0393C40.2396 17.039 40.6388 17.2036 40.9337 17.4971C41.2287 17.7907 41.3952 18.1892 41.3967 18.6053Z" fill="#EEF5FE" fill-opacity="0.5"/>
<path d="M50.858 35.0024C50.857 35.3123 50.7642 35.6149 50.5914 35.872C50.4185 36.1292 50.1734 36.3294 49.8869 36.4474C49.6004 36.5653 49.2854 36.5958 48.9816 36.5349C48.6778 36.474 48.3988 36.3245 48.18 36.1052C47.9611 35.8859 47.812 35.6066 47.7517 35.3027C47.6914 34.9988 47.7224 34.6839 47.8409 34.3976C47.9594 34.1113 48.1601 33.8665 48.4175 33.6942C48.675 33.5218 48.9778 33.4296 49.2876 33.4292C49.4941 33.4292 49.6985 33.47 49.8892 33.5491C50.0799 33.6282 50.2531 33.7441 50.399 33.8902C50.5448 34.0364 50.6605 34.2098 50.7392 34.4006C50.818 34.5915 50.8583 34.796 50.858 35.0024Z" fill="#EEF5FE" fill-opacity="0.5"/>
<g opacity="0.36">
<path d="M68.7339 34.6861L67.6425 35.3162L77.1061 51.7093L78.1975 51.0793L68.7339 34.6861Z" fill="#EEF5FE" fill-opacity="0.5"/>
</g>
<g opacity="0.39">
<path d="M86.5697 34.6846L77.1085 51.0806L78.1986 51.7096L87.6599 35.3137L86.5697 34.6846Z" fill="#EEF5FE" fill-opacity="0.5"/>
</g>
<g opacity="0.01">
<path d="M77.1128 51.0824L67.6358 67.4656L68.7276 68.0971L78.2045 51.7139L77.1128 51.0824Z" fill="#EEF5FE" fill-opacity="0.5"/>
</g>
<g opacity="0.02">
<path d="M77.5716 50.7637H58.7241V52.0242H77.5716V50.7637Z" fill="#EEF5FE" fill-opacity="0.5"/>
</g>
<g opacity="0.15">
<path d="M96.5827 50.7637H77.5715V52.0242H96.5827V50.7637Z" fill="#EEF5FE" fill-opacity="0.5"/>
</g>
<g opacity="0.75">
<path d="M78.1579 51.0984L77.0686 51.7307L86.5711 68.1015L87.6604 67.4692L78.1579 51.0984Z" fill="#EEF5FE" fill-opacity="0.5"/>
</g>
<path d="M69.7549 35.0024C69.7539 35.3124 69.6609 35.615 69.4879 35.8721C69.3149 36.1293 69.0696 36.3294 68.7829 36.4472C68.4963 36.5649 68.1811 36.5951 67.8773 36.5338C67.5735 36.4726 67.2947 36.3227 67.076 36.103C66.8574 35.8833 66.7087 35.6038 66.6489 35.2997C66.589 34.9956 66.6207 34.6806 66.7398 34.3945C66.8589 34.1084 67.0601 33.864 67.318 33.6922C67.576 33.5203 67.8791 33.4288 68.189 33.4292C68.3953 33.4291 68.5996 33.4697 68.7901 33.5488C68.9806 33.6279 69.1536 33.7439 69.2992 33.8901C69.4447 34.0363 69.5599 34.2099 69.6381 34.4008C69.7163 34.5917 69.756 34.7961 69.7549 35.0024Z" fill="#EEF5FE" fill-opacity="0.5"/>
<path d="M60.2901 51.396C60.2897 51.7061 60.1974 52.0091 60.0248 52.2667C59.8523 52.5243 59.6072 52.725 59.3206 52.8433C59.034 52.9617 58.7187 52.9923 58.4146 52.9315C58.1106 52.8707 57.8314 52.721 57.6124 52.5015C57.3934 52.282 57.2444 52.0025 57.1843 51.6983C57.1241 51.3941 57.1555 51.0789 57.2745 50.7926C57.3935 50.5062 57.5948 50.2616 57.8528 50.0896C58.1108 49.9177 58.414 49.8261 58.7241 49.8264C58.9302 49.8259 59.1344 49.8661 59.3249 49.9449C59.5153 50.0236 59.6883 50.1393 59.8339 50.2852C59.9795 50.4311 60.0947 50.6043 60.173 50.795C60.2513 50.9857 60.2911 51.1899 60.2901 51.396Z" fill="#EEF5FE" fill-opacity="0.5"/>
<path d="M69.7549 67.7859C69.7546 68.096 69.6623 68.399 69.4897 68.6566C69.3171 68.9142 69.0721 69.1149 68.7854 69.2332C68.4988 69.3516 68.1836 69.3822 67.8795 69.3214C67.5755 69.2605 67.2963 69.1109 67.0773 68.8914C66.8583 68.6719 66.7093 68.3924 66.6492 68.0882C66.589 67.784 66.6204 67.4688 66.7394 67.1824C66.8584 66.8961 67.0596 66.6515 67.3177 66.4795C67.5757 66.3075 67.8789 66.216 68.189 66.2163C68.395 66.2162 68.599 66.2567 68.7892 66.3356C68.9795 66.4145 69.1524 66.5301 69.2979 66.676C69.4434 66.8218 69.5586 66.9949 69.6371 67.1854C69.7155 67.3758 69.7556 67.5799 69.7549 67.7859Z" fill="#EEF5FE" fill-opacity="0.5"/>
<g opacity="0.5">
<path d="M87.6305 67.4721L86.539 68.1023L96.0044 84.4966L97.0958 83.8664L87.6305 67.4721Z" fill="#EEF5FE" fill-opacity="0.5"/>
</g>
<g opacity="0.42">
<path d="M97.1001 84.4924L96.0018 83.8669L105.472 67.4727L106.563 68.1054L97.1001 84.4924Z" fill="#EEF5FE" fill-opacity="0.5"/>
</g>
<g opacity="0.46">
<path d="M96.0023 83.864L86.5407 100.26L87.6324 100.89L97.094 84.494L96.0023 83.864Z" fill="#EEF5FE" fill-opacity="0.5"/>
</g>
<g opacity="0.13">
<path d="M96.4722 83.551H77.621V84.8115H96.4722V83.551Z" fill="#EEF5FE" fill-opacity="0.5"/>
</g>
<g opacity="0.86">
<path d="M115.48 83.551H96.4723V84.8115H115.48V83.551Z" fill="#EEF5FE" fill-opacity="0.5"/>
</g>
<g opacity="0.25">
<path d="M97.0569 83.8845L95.9655 84.5178L105.469 100.892L106.56 100.259L97.0569 83.8845Z" fill="#EEF5FE" fill-opacity="0.5"/>
</g>
<path d="M88.6558 67.7896C88.6551 68.0997 88.5625 68.4026 88.3897 68.6602C88.217 68.9178 87.9718 69.1184 87.6852 69.2367C87.3985 69.3551 87.0832 69.3859 86.7791 69.3252C86.475 69.2645 86.1956 69.1151 85.9763 68.8958C85.757 68.6765 85.6076 68.3972 85.5469 68.093C85.4863 67.7889 85.517 67.4736 85.6354 67.1869C85.7537 66.9003 85.9544 66.6551 86.2119 66.4824C86.4695 66.3096 86.7724 66.217 87.0826 66.2163C87.2894 66.2156 87.4943 66.2558 87.6855 66.3346C87.8767 66.4133 88.0505 66.5292 88.1967 66.6754C88.3429 66.8217 88.4588 66.9954 88.5376 67.1866C88.6164 67.3778 88.6565 67.5827 88.6558 67.7896Z" fill="#EEF5FE" fill-opacity="0.5"/>
<path d="M79.1914 84.1785C79.1915 84.489 79.0995 84.7925 78.927 85.0508C78.7546 85.309 78.5094 85.5103 78.2226 85.6292C77.9357 85.7481 77.6201 85.7792 77.3155 85.7187C77.011 85.6582 76.7312 85.5087 76.5116 85.2892C76.292 85.0697 76.1424 84.79 76.0817 84.4855C76.0211 84.181 76.0521 83.8653 76.1709 83.5784C76.2896 83.2915 76.4908 83.0462 76.7489 82.8737C77.0071 82.7011 77.3106 82.609 77.6211 82.6089C77.8273 82.6086 78.0316 82.649 78.2222 82.7278C78.4128 82.8066 78.586 82.9222 78.7318 83.0679C78.8777 83.2137 78.9934 83.3869 79.0722 83.5774C79.1511 83.768 79.1916 83.9723 79.1914 84.1785Z" fill="#EEF5FE" fill-opacity="0.5"/>
<path d="M88.6558 100.576C88.6551 100.886 88.5624 101.189 88.3895 101.447C88.2166 101.704 87.9712 101.905 87.6843 102.023C87.3975 102.141 87.082 102.172 86.7778 102.111C86.4735 102.05 86.1942 101.9 85.9751 101.681C85.7559 101.461 85.6068 101.181 85.5465 100.877C85.4862 100.573 85.5175 100.257 85.6364 99.9705C85.7553 99.684 85.9565 99.439 86.2146 99.2667C86.4726 99.0944 86.7759 99.0024 87.0862 99.0024C87.2927 99.0023 87.4971 99.0429 87.6879 99.122C87.8786 99.2011 88.0518 99.317 88.1976 99.4632C88.3435 99.6093 88.459 99.7828 88.5376 99.9738C88.6163 100.165 88.6564 100.369 88.6558 100.576Z" fill="#EEF5FE" fill-opacity="0.5"/>
<g opacity="0.64">
<path d="M114.906 116.653L105.435 133.043L106.528 133.675L115.998 117.284L114.906 116.653Z" fill="#EEF5FE" fill-opacity="0.5"/>
</g>
<g opacity="0.52">
<path d="M115.37 116.337H96.5226V117.594H115.37V116.337Z" fill="#EEF5FE" fill-opacity="0.5"/>
</g>
<g opacity="0.36">
<path d="M134.378 116.337H115.37V117.594H134.378V116.337Z" fill="#EEF5FE" fill-opacity="0.5"/>
</g>
<g opacity="0.9">
<path d="M115.956 116.675L114.866 117.308L124.37 133.677L125.46 133.044L115.956 116.675Z" fill="#EEF5FE" fill-opacity="0.5"/>
</g>
<path d="M107.553 100.576C107.553 100.886 107.46 101.189 107.287 101.447C107.114 101.705 106.869 101.906 106.582 102.024C106.295 102.142 105.979 102.173 105.675 102.112C105.371 102.051 105.091 101.901 104.872 101.681C104.653 101.462 104.504 101.182 104.443 100.877C104.383 100.573 104.415 100.257 104.533 99.9706C104.652 99.6839 104.854 99.439 105.112 99.2666C105.37 99.0943 105.674 99.0024 105.984 99.0024C106.191 99.0018 106.395 99.0421 106.586 99.121C106.777 99.1999 106.951 99.3158 107.096 99.4621C107.242 99.6083 107.358 99.7821 107.436 99.9732C107.515 100.164 107.555 100.369 107.553 100.576Z" fill="#EEF5FE" fill-opacity="0.5"/>
<g opacity="0.74">
<path d="M133.802 150.069L124.339 133.675L125.43 133.049L134.893 149.436L133.802 150.069Z" fill="#EEF5FE" fill-opacity="0.5"/>
</g>
<g opacity="0.74">
<path d="M134.267 149.124H115.42V150.382H134.267V149.124Z" fill="#EEF5FE" fill-opacity="0.5"/>
</g>
<g opacity="0.34">
<path d="M153.278 149.124H134.267V150.382H153.278V149.124Z" fill="#EEF5FE" fill-opacity="0.5"/>
</g>
<g opacity="0.27">
<path d="M134.853 149.458L133.763 150.091L143.266 166.463L144.356 165.831L134.853 149.458Z" fill="#EEF5FE" fill-opacity="0.5"/>
</g>
<path d="M126.454 133.363C126.453 133.673 126.361 133.976 126.188 134.233C126.015 134.491 125.77 134.692 125.483 134.81C125.197 134.928 124.882 134.959 124.577 134.898C124.273 134.838 123.994 134.688 123.775 134.469C123.555 134.25 123.406 133.97 123.345 133.666C123.285 133.362 123.315 133.047 123.434 132.76C123.552 132.474 123.753 132.228 124.01 132.056C124.268 131.883 124.571 131.79 124.881 131.79C125.088 131.789 125.293 131.829 125.484 131.908C125.675 131.987 125.849 132.102 125.995 132.249C126.141 132.395 126.257 132.569 126.336 132.76C126.415 132.951 126.455 133.156 126.454 133.363Z" fill="#EEF5FE" fill-opacity="0.5"/>
<path d="M116.989 149.753C116.989 150.063 116.897 150.366 116.725 150.624C116.553 150.882 116.308 151.084 116.021 151.202C115.735 151.321 115.419 151.353 115.115 151.292C114.81 151.232 114.531 151.083 114.311 150.864C114.091 150.645 113.942 150.365 113.881 150.061C113.82 149.757 113.85 149.441 113.968 149.155C114.087 148.868 114.287 148.622 114.545 148.449C114.803 148.276 115.106 148.184 115.416 148.183C115.622 148.182 115.827 148.223 116.018 148.301C116.209 148.38 116.382 148.495 116.529 148.641C116.675 148.787 116.791 148.96 116.87 149.151C116.949 149.342 116.989 149.546 116.989 149.753Z" fill="#EEF5FE" fill-opacity="0.5"/>
<g opacity="0.35">
<path d="M162.168 165.835L152.699 182.224L153.789 182.854L163.259 166.465L162.168 165.835Z" fill="#EEF5FE" fill-opacity="0.5"/>
</g>
<path d="M145.352 198.934C145.351 199.245 145.258 199.548 145.085 199.806C144.912 200.064 144.666 200.264 144.379 200.382C144.092 200.5 143.776 200.531 143.472 200.469C143.167 200.408 142.888 200.258 142.669 200.038C142.45 199.818 142.301 199.538 142.241 199.233C142.181 198.928 142.213 198.613 142.332 198.326C142.452 198.04 142.654 197.795 142.912 197.623C143.171 197.451 143.474 197.36 143.785 197.36C143.991 197.36 144.195 197.401 144.386 197.48C144.577 197.56 144.749 197.676 144.895 197.822C145.041 197.968 145.156 198.142 145.234 198.333C145.313 198.524 145.352 198.728 145.352 198.934Z" fill="#EEF5FE" fill-opacity="0.5"/>
<path d="M164.256 198.937C164.255 199.248 164.163 199.552 163.989 199.81C163.816 200.068 163.571 200.269 163.283 200.388C162.996 200.506 162.68 200.537 162.375 200.476C162.07 200.416 161.79 200.266 161.57 200.046C161.351 199.826 161.201 199.546 161.14 199.241C161.079 198.937 161.11 198.621 161.229 198.333C161.347 198.046 161.548 197.8 161.807 197.627C162.065 197.454 162.368 197.361 162.679 197.36C162.886 197.36 163.091 197.401 163.283 197.48C163.474 197.559 163.648 197.675 163.794 197.822C163.941 197.968 164.057 198.142 164.136 198.334C164.215 198.525 164.256 198.73 164.256 198.937Z" fill="#EEF5FE" fill-opacity="0.5"/>
<g opacity="0.93">
<path d="M95.9727 18.9225L86.5099 2.52829L87.601 1.89551L97.0709 18.2897L95.9727 18.9225Z" fill="#EEF5FE" fill-opacity="0.5"/>
</g>
<g opacity="0.29">
<path d="M105.424 1.88793L95.9945 18.3022L97.0871 18.9299L106.517 2.51557L105.424 1.88793Z" fill="#EEF5FE" fill-opacity="0.5"/>
</g>
<g opacity="0.88">
<path d="M87.601 35.3173L86.5099 34.6845L95.9727 18.2903L97.0709 18.9231L87.601 35.3173Z" fill="#EEF5FE" fill-opacity="0.5"/>
</g>
<g opacity="0.09">
<path d="M96.444 17.9768H77.5928V19.2373H96.444V17.9768Z" fill="#EEF5FE" fill-opacity="0.5"/>
</g>
<g opacity="0.28">
<path d="M115.451 17.9768H96.4439V19.2373H115.451V17.9768Z" fill="#EEF5FE" fill-opacity="0.5"/>
</g>
<g opacity="0.75">
<path d="M97.0283 18.3134L95.937 18.9473L105.444 35.3148L106.535 34.6809L97.0283 18.3134Z" fill="#EEF5FE" fill-opacity="0.5"/>
</g>
<path d="M88.6308 2.2151C88.631 2.52571 88.5392 2.82942 88.3669 3.08786C88.1946 3.3463 87.9496 3.54789 87.6628 3.66715C87.3759 3.78641 87.0602 3.818 86.7555 3.75793C86.4507 3.69786 86.1706 3.54883 85.9505 3.32965C85.7304 3.11047 85.5802 2.83099 85.5189 2.52649C85.4576 2.222 85.4878 1.90616 85.6059 1.61886C85.724 1.33156 85.9245 1.0857 86.1823 0.912331C86.44 0.738959 86.7433 0.645854 87.0539 0.644776C87.4711 0.64458 87.8713 0.809754 88.1668 1.1041C88.4624 1.39845 88.6293 1.79796 88.6308 2.2151Z" fill="#EEF5FE" fill-opacity="0.5"/>
<path d="M79.163 18.6053C79.1638 18.9161 79.0723 19.2201 78.9001 19.4789C78.728 19.7377 78.4828 19.9395 78.1958 20.0589C77.9088 20.1782 77.5929 20.2097 77.288 20.1493C76.9831 20.0889 76.703 19.9394 76.4832 19.7197C76.2633 19.4999 76.1137 19.2199 76.0531 18.915C75.9926 18.6102 76.0239 18.2942 76.1431 18.0071C76.2623 17.7201 76.4641 17.4749 76.7228 17.3026C76.9815 17.1303 77.2855 17.0387 77.5963 17.0393C78.0116 17.0397 78.4097 17.2048 78.7034 17.4984C78.9971 17.7919 79.1624 18.19 79.163 18.6053Z" fill="#EEF5FE" fill-opacity="0.5"/>
<path d="M88.6308 35.0024C88.6304 35.3132 88.5379 35.6169 88.3649 35.8752C88.192 36.1334 87.9463 36.3345 87.659 36.4531C87.3718 36.5717 87.0558 36.6025 86.751 36.5415C86.4462 36.4805 86.1664 36.3305 85.9469 36.1105C85.7274 35.8905 85.5781 35.6103 85.5178 35.3054C85.4575 35.0005 85.489 34.6846 85.6083 34.3976C85.7275 34.1106 85.9292 33.8654 86.1878 33.693C86.4465 33.5207 86.7504 33.4288 87.0612 33.4292C87.4777 33.4305 87.8767 33.5968 88.1709 33.8917C88.465 34.1865 88.6304 34.5859 88.6308 35.0024Z" fill="#EEF5FE" fill-opacity="0.5"/>
<g opacity="0.81">
<path d="M106.503 34.6847L105.412 35.3149L114.877 51.7095L115.969 51.0793L106.503 34.6847Z" fill="#EEF5FE" fill-opacity="0.5"/>
</g>
<g opacity="0.98">
<path d="M124.327 34.6783L114.89 51.0872L115.982 51.7154L125.419 35.3065L124.327 34.6783Z" fill="#EEF5FE" fill-opacity="0.5"/>
</g>
<g opacity="0.53">
<path d="M106.504 68.1051L105.413 67.4724L114.876 51.0781L115.967 51.7109L106.504 68.1051Z" fill="#EEF5FE" fill-opacity="0.5"/>
</g>
<g opacity="0.95">
<path d="M115.342 50.7637H96.4942V52.0242H115.342V50.7637Z" fill="#EEF5FE" fill-opacity="0.5"/>
</g>
<g opacity="0.6">
<path d="M134.353 50.7637H115.342V52.0242H134.353V50.7637Z" fill="#EEF5FE" fill-opacity="0.5"/>
</g>
<g opacity="0.51">
<path d="M115.927 51.0984L114.838 51.7307L124.341 68.1015L125.431 67.4692L115.927 51.0984Z" fill="#EEF5FE" fill-opacity="0.5"/>
</g>
<path d="M107.529 35.0024C107.528 35.3133 107.436 35.6171 107.263 35.8754C107.09 36.1337 106.844 36.335 106.557 36.4537C106.27 36.5724 105.954 36.6032 105.649 36.5423C105.344 36.4813 105.064 36.3314 104.845 36.1114C104.625 35.8913 104.475 35.6111 104.415 35.3062C104.355 35.0012 104.386 34.6852 104.505 34.3981C104.625 34.111 104.826 33.8658 105.085 33.6933C105.344 33.5208 105.648 33.4289 105.958 33.4292C106.165 33.4292 106.369 33.47 106.56 33.5491C106.751 33.6282 106.924 33.7441 107.07 33.8902C107.216 34.0364 107.331 34.2098 107.41 34.4006C107.489 34.5915 107.529 34.796 107.529 35.0024Z" fill="#EEF5FE" fill-opacity="0.5"/>
<path d="M98.0636 51.396C98.0636 51.7065 97.9715 52.0099 97.7991 52.268C97.6266 52.5262 97.3815 52.7273 97.0947 52.8461C96.8079 52.9649 96.4923 52.996 96.1878 52.9355C95.8833 52.8749 95.6036 52.7254 95.3841 52.5059C95.1646 52.2864 95.0151 52.0067 94.9546 51.7022C94.894 51.3978 94.9251 51.0822 95.0439 50.7954C95.1627 50.5086 95.3639 50.2634 95.622 50.0909C95.8801 49.9185 96.1836 49.8264 96.494 49.8264C96.7001 49.8264 96.9042 49.867 97.0947 49.9459C97.2851 50.0248 97.4581 50.1404 97.6039 50.2861C97.7496 50.4319 97.8652 50.6049 97.9441 50.7954C98.023 50.9858 98.0636 51.1899 98.0636 51.396Z" fill="#EEF5FE" fill-opacity="0.5"/>
<path d="M107.529 67.7859C107.529 68.0969 107.437 68.4011 107.265 68.6599C107.092 68.9187 106.847 69.1205 106.56 69.2397C106.272 69.359 105.956 69.3904 105.651 69.3298C105.346 69.2693 105.066 69.1196 104.846 68.8998C104.626 68.6799 104.476 68.3997 104.415 68.0946C104.355 67.7896 104.386 67.4734 104.505 67.1861C104.624 66.8988 104.826 66.6533 105.085 66.4807C105.343 66.308 105.647 66.216 105.958 66.2163C106.375 66.2164 106.774 66.3817 107.068 66.6761C107.363 66.9704 107.528 67.3696 107.529 67.7859Z" fill="#EEF5FE" fill-opacity="0.5"/>
<g opacity="0.09">
<path d="M134.871 84.4924L133.772 83.8669L143.235 67.4727L144.333 68.1054L134.871 84.4924Z" fill="#EEF5FE" fill-opacity="0.5"/>
</g>
<g opacity="0.01">
<path d="M125.401 100.887L124.31 100.261L133.773 83.8669L134.871 84.4925L125.401 100.887Z" fill="#EEF5FE" fill-opacity="0.5"/>
</g>
<g opacity="0.3">
<path d="M134.239 83.551H115.391V84.8115H134.239V83.551Z" fill="#EEF5FE" fill-opacity="0.5"/>
</g>
<g opacity="0.15">
<path d="M153.25 83.551H134.239V84.8115H153.25V83.551Z" fill="#EEF5FE" fill-opacity="0.5"/>
</g>
<g opacity="0.65">
<path d="M143.243 100.894L133.736 84.5139L134.827 83.8884L144.326 100.254L143.243 100.894Z" fill="#EEF5FE" fill-opacity="0.5"/>
</g>
<path d="M126.425 67.7895C126.425 68.0998 126.332 68.4029 126.159 68.6606C125.986 68.9182 125.741 69.1188 125.454 69.2371C125.167 69.3553 124.852 69.3859 124.547 69.3249C124.243 69.2639 123.964 69.1142 123.745 68.8945C123.526 68.6748 123.376 68.3952 123.316 68.0908C123.256 67.7864 123.287 67.471 123.406 67.1844C123.525 66.8978 123.726 66.6529 123.984 66.4806C124.242 66.3083 124.546 66.2163 124.856 66.2163C125.062 66.216 125.267 66.2565 125.458 66.3355C125.649 66.4145 125.822 66.5304 125.968 66.6766C126.114 66.8228 126.229 66.9964 126.308 67.1874C126.386 67.3784 126.426 67.583 126.425 67.7895Z" fill="#EEF5FE" fill-opacity="0.5"/>
<path d="M115.391 85.7481C116.258 85.7481 116.961 85.0454 116.961 84.1785C116.961 83.3116 116.258 82.6089 115.391 82.6089C114.524 82.6089 113.822 83.3116 113.822 84.1785C113.822 85.0454 114.524 85.7481 115.391 85.7481Z" fill="#EEF5FE" fill-opacity="0.5"/>
<path d="M126.425 100.576C126.425 100.886 126.332 101.189 126.159 101.447C125.986 101.704 125.741 101.905 125.454 102.023C125.167 102.141 124.852 102.172 124.547 102.111C124.243 102.05 123.964 101.9 123.745 101.681C123.526 101.461 123.376 101.181 123.316 100.877C123.256 100.573 123.287 100.257 123.406 99.9705C123.525 99.684 123.726 99.439 123.984 99.2667C124.242 99.0944 124.546 99.0024 124.856 99.0024C125.062 99.0024 125.267 99.0431 125.457 99.1222C125.648 99.2012 125.821 99.3172 125.967 99.4633C126.113 99.6095 126.228 99.783 126.307 99.9738C126.386 100.165 126.426 100.369 126.425 100.576Z" fill="#EEF5FE" fill-opacity="0.5"/>
<g opacity="0.7">
<path d="M144.3 100.259L143.21 100.888L152.674 117.281L153.765 116.651L144.3 100.259Z" fill="#EEF5FE" fill-opacity="0.5"/>
</g>
<g opacity="0.11">
<path d="M144.297 133.675L143.206 133.042L152.676 116.648L153.767 117.281L144.297 133.675Z" fill="#EEF5FE" fill-opacity="0.5"/>
</g>
<g opacity="0.89">
<path d="M153.14 116.337H134.289V117.594H153.14V116.337Z" fill="#EEF5FE" fill-opacity="0.5"/>
</g>
<g opacity="0.84">
<path d="M172.147 116.337H153.14V117.594H172.147V116.337Z" fill="#EEF5FE" fill-opacity="0.5"/>
</g>
<path d="M145.326 100.576C145.326 100.886 145.233 101.19 145.06 101.448C144.887 101.707 144.642 101.908 144.354 102.026C144.067 102.145 143.751 102.176 143.446 102.115C143.142 102.054 142.862 101.904 142.642 101.684C142.423 101.464 142.273 101.184 142.213 100.879C142.153 100.574 142.184 100.258 142.304 99.9708C142.423 99.6838 142.625 99.4386 142.883 99.2663C143.142 99.0939 143.446 99.0021 143.756 99.0024C143.963 99.0021 144.168 99.0426 144.358 99.1215C144.549 99.2005 144.723 99.3164 144.868 99.4626C145.014 99.6089 145.13 99.7825 145.208 99.9735C145.287 100.164 145.327 100.369 145.326 100.576Z" fill="#EEF5FE" fill-opacity="0.5"/>
<path d="M145.326 133.363C145.326 133.674 145.233 133.977 145.06 134.236C144.887 134.494 144.642 134.695 144.354 134.813C144.067 134.932 143.751 134.963 143.446 134.902C143.142 134.841 142.862 134.691 142.642 134.471C142.423 134.251 142.273 133.971 142.213 133.666C142.153 133.361 142.184 133.045 142.304 132.758C142.423 132.471 142.625 132.226 142.883 132.053C143.142 131.881 143.446 131.789 143.756 131.79C143.963 131.789 144.167 131.83 144.358 131.909C144.549 131.988 144.722 132.104 144.868 132.25C145.014 132.396 145.129 132.57 145.208 132.761C145.287 132.952 145.327 133.156 145.326 133.363Z" fill="#EEF5FE" fill-opacity="0.5"/>
<path d="M164.22 133.363C164.219 133.672 164.126 133.974 163.953 134.231C163.78 134.487 163.536 134.687 163.249 134.805C162.963 134.922 162.649 134.952 162.345 134.892C162.042 134.831 161.764 134.681 161.545 134.462C161.327 134.243 161.178 133.964 161.118 133.661C161.057 133.357 161.088 133.043 161.207 132.757C161.325 132.471 161.525 132.227 161.782 132.055C162.039 131.882 162.341 131.79 162.651 131.79C162.857 131.789 163.062 131.83 163.253 131.909C163.444 131.988 163.617 132.104 163.763 132.25C163.909 132.396 164.024 132.57 164.103 132.761C164.181 132.952 164.221 133.156 164.22 133.363Z" fill="#EEF5FE" fill-opacity="0.5"/>
<path d="M164.22 166.146C164.22 166.456 164.127 166.758 163.955 167.015C163.783 167.272 163.538 167.473 163.252 167.591C162.966 167.709 162.651 167.74 162.348 167.679C162.044 167.619 161.765 167.469 161.547 167.251C161.328 167.032 161.179 166.753 161.118 166.449C161.057 166.146 161.088 165.831 161.206 165.545C161.324 165.259 161.525 165.014 161.782 164.842C162.039 164.67 162.341 164.577 162.651 164.577C163.067 164.577 163.466 164.742 163.76 165.037C164.055 165.331 164.22 165.73 164.22 166.146Z" fill="#EEF5FE" fill-opacity="0.5"/>
<g opacity="0.01">
<path d="M190.476 182.858L181.006 166.464L182.097 165.838L191.56 182.225L190.476 182.858Z" fill="#EEF5FE" fill-opacity="0.5"/>
</g>
<g opacity="0.36">
<path d="M209.949 181.911H190.934V183.172H209.949V181.911Z" fill="#EEF5FE" fill-opacity="0.5"/>
</g>
<path d="M183.121 166.15C183.12 166.46 183.028 166.763 182.855 167.021C182.682 167.279 182.436 167.479 182.15 167.597C181.863 167.716 181.547 167.746 181.243 167.685C180.939 167.624 180.659 167.474 180.44 167.255C180.221 167.035 180.072 166.756 180.012 166.451C179.951 166.147 179.983 165.831 180.102 165.545C180.221 165.258 180.422 165.013 180.68 164.841C180.938 164.669 181.241 164.577 181.551 164.577C181.758 164.576 181.963 164.616 182.154 164.695C182.345 164.774 182.518 164.89 182.664 165.036C182.81 165.183 182.925 165.356 183.004 165.547C183.082 165.739 183.122 165.943 183.121 166.15Z" fill="#EEF5FE" fill-opacity="0.5"/>
<path d="M202.022 198.937C202.021 199.247 201.928 199.55 201.754 199.808C201.581 200.065 201.335 200.265 201.048 200.383C200.761 200.5 200.446 200.531 200.142 200.469C199.838 200.408 199.559 200.258 199.34 200.038C199.121 199.818 198.972 199.539 198.912 199.234C198.852 198.93 198.883 198.615 199.002 198.328C199.121 198.042 199.323 197.797 199.581 197.625C199.839 197.452 200.142 197.36 200.452 197.36C200.659 197.36 200.864 197.401 201.054 197.48C201.245 197.56 201.419 197.676 201.565 197.822C201.711 197.969 201.826 198.143 201.905 198.334C201.983 198.526 202.023 198.73 202.022 198.937Z" fill="#EEF5FE" fill-opacity="0.5"/>
<g opacity="0.25">
<path d="M125.373 1.89889L124.281 2.52905L133.749 18.9218L134.84 18.2916L125.373 1.89889Z" fill="#EEF5FE" fill-opacity="0.5"/>
</g>
<g opacity="0.22">
<path d="M143.207 1.89529L133.754 18.2957L134.844 18.9241L144.297 2.52372L143.207 1.89529Z" fill="#EEF5FE" fill-opacity="0.5"/>
</g>
<g opacity="0.4">
<path d="M133.729 18.2822L124.3 34.6968L125.392 35.3244L134.822 18.9098L133.729 18.2822Z" fill="#EEF5FE" fill-opacity="0.5"/>
</g>
<g opacity="0.91">
<path d="M134.214 17.9768H115.363V19.2373H134.214V17.9768Z" fill="#EEF5FE" fill-opacity="0.5"/>
</g>
<g opacity="0.23">
<path d="M134.798 18.3134L133.707 18.9473L143.214 35.3148L144.305 34.6809L134.798 18.3134Z" fill="#EEF5FE" fill-opacity="0.5"/>
</g>
<path d="M126.397 2.2151C126.397 2.52551 126.305 2.8289 126.132 3.08692C125.96 3.34495 125.714 3.54601 125.428 3.6647C125.141 3.78339 124.825 3.81437 124.521 3.75372C124.216 3.69308 123.937 3.54353 123.717 3.32399C123.498 3.10445 123.348 2.82477 123.288 2.52032C123.227 2.21587 123.259 1.90031 123.377 1.61355C123.496 1.32678 123.697 1.08169 123.955 0.90925C124.214 0.736812 124.517 0.644775 124.827 0.644775C125.244 0.645602 125.642 0.811336 125.937 1.10567C126.231 1.40001 126.396 1.79895 126.397 2.2151Z" fill="#EEF5FE" fill-opacity="0.5"/>
<path d="M116.932 18.6053C116.933 18.916 116.842 19.22 116.669 19.4787C116.497 19.7373 116.252 19.9391 115.965 20.0583C115.678 20.1776 115.362 20.209 115.057 20.1485C114.753 20.0881 114.473 19.9385 114.253 19.7188C114.033 19.499 113.884 19.219 113.823 18.9142C113.763 18.6094 113.794 18.2935 113.913 18.0066C114.033 17.7196 114.234 17.4745 114.493 17.3023C114.752 17.1301 115.056 17.0386 115.366 17.0393C115.782 17.0399 116.18 17.205 116.473 17.4986C116.767 17.7921 116.932 18.1901 116.932 18.6053Z" fill="#EEF5FE" fill-opacity="0.5"/>
<path d="M126.397 35.0024C126.396 35.3129 126.304 35.6161 126.13 35.8738C125.957 36.1316 125.712 36.3322 125.425 36.4503C125.138 36.5684 124.822 36.5988 124.518 36.5375C124.213 36.4763 123.934 36.3261 123.715 36.1061C123.496 35.8861 123.347 35.6061 123.287 35.3014C123.227 34.9968 123.259 34.6813 123.379 34.3948C123.498 34.1083 123.7 33.8636 123.958 33.6917C124.217 33.5198 124.521 33.4285 124.831 33.4292C125.247 33.4308 125.646 33.5973 125.939 33.8922C126.233 34.1871 126.397 34.5863 126.397 35.0024Z" fill="#EEF5FE" fill-opacity="0.5"/>
<g opacity="0.44">
<path d="M144.273 34.6861L143.182 35.3162L152.646 51.7093L153.737 51.0792L144.273 34.6861Z" fill="#EEF5FE" fill-opacity="0.5"/>
</g>
<g opacity="0.18">
<path d="M162.11 34.683L152.648 51.0796L153.739 51.7093L163.201 35.3127L162.11 34.683Z" fill="#EEF5FE" fill-opacity="0.5"/>
</g>
<g opacity="0.68">
<path d="M152.652 51.0823L143.175 67.4658L144.267 68.0974L153.744 51.7139L152.652 51.0823Z" fill="#EEF5FE" fill-opacity="0.5"/>
</g>
<g opacity="0.84">
<path d="M153.115 50.7637H134.263V52.0242H153.115V50.7637Z" fill="#EEF5FE" fill-opacity="0.5"/>
</g>
<g opacity="0.38">
<path d="M172.119 50.7637H153.115V52.0242H172.119V50.7637Z" fill="#EEF5FE" fill-opacity="0.5"/>
</g>
<g opacity="0.84">
<path d="M162.11 68.1055L152.603 51.7331L153.694 51.1003L163.201 67.4728L162.11 68.1055Z" fill="#EEF5FE" fill-opacity="0.5"/>
</g>
<path d="M145.294 35.0024C145.293 35.3124 145.2 35.615 145.027 35.8721C144.854 36.1293 144.609 36.3294 144.322 36.4472C144.036 36.5649 143.72 36.5951 143.417 36.5338C143.113 36.4726 142.834 36.3227 142.615 36.103C142.397 35.8833 142.248 35.6038 142.188 35.2997C142.128 34.9956 142.16 34.6806 142.279 34.3945C142.398 34.1084 142.599 33.864 142.857 33.6922C143.115 33.5203 143.418 33.4288 143.728 33.4292C143.935 33.4293 144.139 33.4701 144.329 33.5493C144.52 33.6285 144.692 33.7445 144.838 33.8907C144.983 34.0368 145.099 34.2103 145.177 34.4011C145.255 34.5918 145.295 34.7962 145.294 35.0024Z" fill="#EEF5FE" fill-opacity="0.5"/>
<path d="M135.834 51.396C135.834 51.707 135.742 52.0112 135.57 52.27C135.397 52.5288 135.152 52.7306 134.865 52.8498C134.577 52.9691 134.261 53.0005 133.956 52.9399C133.651 52.8794 133.371 52.7297 133.151 52.5099C132.931 52.29 132.781 52.0098 132.72 51.7047C132.66 51.3997 132.691 51.0835 132.81 50.7962C132.929 50.5089 133.131 50.2634 133.39 50.0908C133.648 49.9181 133.952 49.8261 134.263 49.8264C134.47 49.826 134.674 49.8664 134.865 49.9451C135.055 50.0238 135.228 50.1394 135.374 50.2852C135.52 50.4311 135.636 50.6042 135.715 50.7949C135.794 50.9855 135.834 51.1898 135.834 51.396Z" fill="#EEF5FE" fill-opacity="0.5"/>
<path d="M145.294 67.7859C145.294 68.096 145.202 68.399 145.029 68.6566C144.856 68.9142 144.611 69.1149 144.325 69.2332C144.038 69.3516 143.723 69.3822 143.419 69.3214C143.115 69.2605 142.836 69.1109 142.617 68.8914C142.398 68.6719 142.249 68.3924 142.188 68.0882C142.128 67.784 142.16 67.4688 142.279 67.1824C142.398 66.8961 142.599 66.6515 142.857 66.4795C143.115 66.3075 143.418 66.216 143.728 66.2163C143.934 66.2164 144.138 66.2571 144.328 66.3361C144.518 66.4151 144.691 66.5307 144.837 66.6765C144.982 66.8223 145.097 66.9953 145.176 67.1857C145.254 67.376 145.295 67.58 145.294 67.7859Z" fill="#EEF5FE" fill-opacity="0.5"/>
<g opacity="0.1">
<path d="M171.543 84.4924L162.081 68.1054L163.172 67.4727L172.634 83.8669L171.543 84.4924Z" fill="#EEF5FE" fill-opacity="0.5"/>
</g>
<g opacity="0.29">
<path d="M172.634 84.4924L171.543 83.8669L181.013 67.4727L182.097 68.1054L172.634 84.4924Z" fill="#EEF5FE" fill-opacity="0.5"/>
</g>
<g opacity="0.97">
<path d="M163.172 100.887L162.081 100.261L171.543 83.8669L172.634 84.4925L163.172 100.887Z" fill="#EEF5FE" fill-opacity="0.5"/>
</g>
<g opacity="0.7">
<path d="M172.012 83.551H153.161V84.8115H172.012V83.551Z" fill="#EEF5FE" fill-opacity="0.5"/>
</g>
<g opacity="0.31">
<path d="M191.02 83.551H172.012V84.8115H191.02V83.551Z" fill="#EEF5FE" fill-opacity="0.5"/>
</g>
<g opacity="0.2">
<path d="M181.013 100.894L171.507 84.5139L172.598 83.8884L182.097 100.254L181.013 100.894Z" fill="#EEF5FE" fill-opacity="0.5"/>
</g>
<path d="M164.199 67.7895C164.199 68.1008 164.107 68.4051 163.934 68.6639C163.761 68.9227 163.515 69.1243 163.227 69.2433C162.939 69.3623 162.623 69.3933 162.318 69.3323C162.012 69.2714 161.732 69.1213 161.512 68.901C161.292 68.6806 161.143 68.4001 161.082 68.0947C161.022 67.7893 161.054 67.4729 161.173 67.1855C161.293 66.8981 161.495 66.6526 161.754 66.48C162.013 66.3075 162.317 66.2157 162.629 66.2163C162.835 66.2159 163.04 66.2564 163.231 66.3353C163.422 66.4143 163.595 66.5302 163.741 66.6764C163.887 66.8226 164.002 66.9962 164.081 67.1873C164.16 67.3783 164.2 67.583 164.199 67.7895Z" fill="#EEF5FE" fill-opacity="0.5"/>
<path d="M154.731 84.1785C154.731 84.4888 154.639 84.7921 154.467 85.0501C154.294 85.3082 154.049 85.5093 153.763 85.6283C153.476 85.7472 153.161 85.7785 152.856 85.7182C152.552 85.6579 152.272 85.5088 152.053 85.2896C151.833 85.0705 151.683 84.7912 151.622 84.4869C151.561 84.1827 151.592 83.8672 151.71 83.5803C151.828 83.2935 152.029 83.0481 152.287 82.8752C152.544 82.7023 152.847 82.6096 153.158 82.6089C153.574 82.6089 153.974 82.7742 154.269 83.0685C154.564 83.3627 154.73 83.7619 154.731 84.1785Z" fill="#EEF5FE" fill-opacity="0.5"/>
<path d="M164.199 100.576C164.199 100.887 164.107 101.191 163.934 101.45C163.761 101.709 163.515 101.91 163.227 102.029C162.939 102.148 162.623 102.179 162.318 102.118C162.012 102.058 161.732 101.907 161.512 101.687C161.292 101.467 161.143 101.186 161.082 100.881C161.022 100.575 161.054 100.259 161.173 99.9716C161.293 99.6842 161.495 99.4387 161.754 99.2662C162.013 99.0936 162.317 99.0019 162.629 99.0024C162.835 99.0023 163.04 99.0429 163.23 99.122C163.421 99.201 163.594 99.317 163.74 99.4631C163.886 99.6093 164.002 99.7828 164.081 99.9737C164.159 100.165 164.199 100.369 164.199 100.576Z" fill="#EEF5FE" fill-opacity="0.5"/>
<g opacity="0.98">
<path d="M190.447 117.281L180.984 100.887L182.068 100.261L191.531 116.648L190.447 117.281Z" fill="#EEF5FE" fill-opacity="0.5"/>
</g>
<g opacity="0.29">
<path d="M191.531 117.281L190.447 116.648L199.902 100.261L201.001 100.887L191.531 117.281Z" fill="#EEF5FE" fill-opacity="0.5"/>
</g>
<g opacity="0.27">
<path d="M190.913 116.337H172.062V117.594H190.913V116.337Z" fill="#EEF5FE" fill-opacity="0.5"/>
</g>
<g opacity="0.97">
<path d="M209.921 116.337H190.913V117.594H209.921V116.337Z" fill="#EEF5FE" fill-opacity="0.5"/>
</g>
<g opacity="0.47">
<path d="M199.902 133.675L190.403 117.31L191.494 116.677L201 133.042L199.902 133.675Z" fill="#EEF5FE" fill-opacity="0.5"/>
</g>
<path d="M183.093 100.576C183.092 100.886 182.999 101.189 182.826 101.447C182.653 101.704 182.408 101.905 182.121 102.023C181.834 102.141 181.519 102.172 181.215 102.111C180.91 102.05 180.631 101.9 180.412 101.681C180.193 101.461 180.044 101.181 179.983 100.877C179.923 100.573 179.954 100.257 180.073 99.9705C180.192 99.684 180.393 99.439 180.651 99.2667C180.909 99.0944 181.213 99.0024 181.523 99.0024C181.729 99.0021 181.934 99.0426 182.125 99.1216C182.316 99.2006 182.489 99.3166 182.635 99.4628C182.781 99.609 182.896 99.7825 182.975 99.9735C183.053 100.165 183.093 100.369 183.093 100.576Z" fill="#EEF5FE" fill-opacity="0.5"/>
<path d="M173.625 116.966C173.624 117.275 173.532 117.578 173.359 117.835C173.187 118.092 172.942 118.293 172.655 118.411C172.369 118.529 172.054 118.559 171.75 118.498C171.446 118.437 171.167 118.287 170.949 118.068C170.73 117.848 170.582 117.569 170.522 117.265C170.462 116.961 170.494 116.646 170.613 116.36C170.732 116.074 170.933 115.83 171.191 115.658C171.449 115.487 171.752 115.395 172.062 115.396C172.477 115.397 172.875 115.563 173.168 115.857C173.461 116.152 173.626 116.55 173.625 116.966Z" fill="#EEF5FE" fill-opacity="0.5"/>
<g opacity="0.46">
<path d="M210.434 150.069L209.343 149.436L218.806 133.049L219.897 133.675L210.434 150.069Z" fill="#EEF5FE" fill-opacity="0.5"/>
</g>
<g opacity="0.07">
<path d="M209.807 149.124H190.956V150.382H209.807V149.124Z" fill="#EEF5FE" fill-opacity="0.5"/>
</g>
<g opacity="0.55">
<path d="M228.815 149.124H209.807V150.382H228.815V149.124Z" fill="#EEF5FE" fill-opacity="0.5"/>
</g>
<path d="M201.994 166.146C201.994 166.457 201.902 166.76 201.73 167.019C201.557 167.277 201.312 167.478 201.025 167.597C200.738 167.716 200.423 167.747 200.118 167.686C199.813 167.626 199.534 167.477 199.314 167.257C199.094 167.037 198.945 166.758 198.884 166.453C198.824 166.149 198.855 165.833 198.973 165.546C199.092 165.259 199.293 165.014 199.551 164.841C199.81 164.669 200.113 164.577 200.424 164.577C200.84 164.577 201.239 164.742 201.534 165.036C201.828 165.331 201.994 165.73 201.994 166.146Z" fill="#EEF5FE" fill-opacity="0.5"/>
<g opacity="0.09">
<path d="M219.868 165.833L218.777 166.462L228.239 182.856L229.329 182.227L219.868 165.833Z" fill="#EEF5FE" fill-opacity="0.5"/>
</g>
<g opacity="0.51">
<path d="M228.708 181.911H209.856V183.172H228.708V181.911Z" fill="#EEF5FE" fill-opacity="0.5"/>
</g>
<g opacity="0.49">
<path d="M229.291 182.245L228.203 182.876L237.707 199.249L238.794 198.618L229.291 182.245Z" fill="#EEF5FE" fill-opacity="0.5"/>
</g>
<path d="M239.788 198.937C239.786 199.246 239.692 199.548 239.519 199.804C239.346 200.06 239.101 200.259 238.815 200.376C238.528 200.493 238.214 200.523 237.911 200.461C237.608 200.4 237.33 200.25 237.112 200.031C236.894 199.812 236.746 199.533 236.686 199.23C236.626 198.927 236.657 198.613 236.775 198.327C236.893 198.041 237.094 197.797 237.35 197.625C237.607 197.453 237.909 197.361 238.218 197.36C238.425 197.36 238.63 197.401 238.821 197.48C239.012 197.56 239.185 197.676 239.331 197.823C239.477 197.969 239.592 198.143 239.671 198.334C239.749 198.526 239.789 198.73 239.788 198.937Z" fill="#EEF5FE" fill-opacity="0.5"/>
<g opacity="0.97">
<path d="M163.143 1.89792L162.053 2.5271L171.515 18.922L172.605 18.2928L163.143 1.89792Z" fill="#EEF5FE" fill-opacity="0.5"/>
</g>
<g opacity="0.2">
<path d="M172.605 18.9225L171.514 18.2897L180.984 1.89551L182.075 2.52829L172.605 18.9225Z" fill="#EEF5FE" fill-opacity="0.5"/>
</g>
<g opacity="0.33">
<path d="M171.519 18.2926L162.047 34.6819L163.137 35.3117L172.609 18.9224L171.519 18.2926Z" fill="#EEF5FE" fill-opacity="0.5"/>
</g>
<g opacity="0.5">
<path d="M171.984 17.9768H153.133V19.2373H171.984V17.9768Z" fill="#EEF5FE" fill-opacity="0.5"/>
</g>
<g opacity="0.85">
<path d="M190.992 17.9768H171.984V19.2373H190.992V17.9768Z" fill="#EEF5FE" fill-opacity="0.5"/>
</g>
<g opacity="0.59">
<path d="M172.569 18.3122L171.479 18.9453L180.984 35.315L182.074 34.682L172.569 18.3122Z" fill="#EEF5FE" fill-opacity="0.5"/>
</g>
<path d="M164.171 2.2151C164.171 2.5253 164.079 2.82853 163.907 3.08651C163.734 3.34449 163.489 3.54566 163.203 3.66463C162.917 3.7836 162.601 3.81504 162.297 3.75498C161.993 3.69492 161.713 3.54605 161.493 3.32716C161.273 3.10828 161.123 2.82918 161.062 2.5251C161.001 2.22103 161.031 1.9056 161.148 1.61863C161.266 1.33166 161.466 1.08601 161.724 0.912691C161.981 0.739369 162.284 0.646143 162.594 0.644778C163.011 0.644082 163.412 0.809095 163.707 1.10355C164.003 1.39801 164.17 1.79781 164.171 2.2151Z" fill="#EEF5FE" fill-opacity="0.5"/>
<path d="M154.702 18.6053C154.703 18.9153 154.611 19.2186 154.439 19.4766C154.267 19.7346 154.023 19.9358 153.736 20.0548C153.45 20.1738 153.135 20.2052 152.83 20.1451C152.526 20.085 152.247 19.936 152.027 19.717C151.808 19.498 151.658 19.2188 151.597 18.9147C151.536 18.6107 151.567 18.2954 151.685 18.0088C151.804 17.7222 152.004 17.4771 152.262 17.3045C152.52 17.132 152.823 17.0397 153.133 17.0393C153.548 17.0391 153.947 17.2039 154.242 17.4975C154.536 17.7911 154.702 18.1896 154.702 18.6053Z" fill="#EEF5FE" fill-opacity="0.5"/>
<path d="M164.171 35.0024C164.17 35.3125 164.078 35.6154 163.905 35.873C163.732 36.1306 163.487 36.3314 163.201 36.4499C162.914 36.5684 162.599 36.5994 162.295 36.539C161.991 36.4787 161.712 36.3296 161.492 36.1106C161.273 35.8916 161.123 35.6125 161.062 35.3085C161.001 35.0045 161.031 34.6892 161.149 34.4024C161.267 34.1156 161.467 33.8701 161.724 33.6969C161.981 33.5237 162.284 33.4306 162.594 33.4292C162.801 33.4289 163.006 33.4693 163.197 33.5482C163.388 33.6271 163.562 33.7429 163.708 33.889C163.855 34.0351 163.971 34.2087 164.05 34.3997C164.13 34.5908 164.171 34.7956 164.171 35.0024Z" fill="#EEF5FE" fill-opacity="0.5"/>
<g opacity="0.6">
<path d="M182.045 34.6849L180.955 35.314L190.417 51.7095L191.507 51.0804L182.045 34.6849Z" fill="#EEF5FE" fill-opacity="0.5"/>
</g>
<g opacity="0.67">
<path d="M199.868 34.6789L190.431 51.0881L191.522 51.7156L200.959 35.3064L199.868 34.6789Z" fill="#EEF5FE" fill-opacity="0.5"/>
</g>
<g opacity="0.63">
<path d="M182.039 68.1051L180.955 67.4724L190.418 51.0781L191.509 51.7109L182.039 68.1051Z" fill="#EEF5FE" fill-opacity="0.5"/>
</g>
<g opacity="0.79">
<path d="M190.884 50.7637H172.033V52.0242H190.884V50.7637Z" fill="#EEF5FE" fill-opacity="0.5"/>
</g>
<g opacity="0.73">
<path d="M209.892 50.7637H190.885V52.0242H209.892V50.7637Z" fill="#EEF5FE" fill-opacity="0.5"/>
</g>
<g opacity="0.65">
<path d="M199.88 68.1055L190.374 51.7331L191.465 51.1003L200.971 67.4728L199.88 68.1055Z" fill="#EEF5FE" fill-opacity="0.5"/>
</g>
<path d="M183.064 35.0024C183.064 35.3127 182.971 35.6158 182.798 35.8735C182.625 36.1311 182.38 36.3317 182.093 36.45C181.806 36.5682 181.491 36.5988 181.186 36.5378C180.882 36.4768 180.603 36.327 180.384 36.1074C180.164 35.8877 180.015 35.6081 179.955 35.3037C179.895 34.9993 179.926 34.6839 180.045 34.3973C180.164 34.1107 180.365 33.8658 180.623 33.6935C180.881 33.5212 181.184 33.4292 181.495 33.4292C181.701 33.4287 181.906 33.4691 182.097 33.548C182.288 33.6269 182.461 33.7428 182.607 33.8891C182.753 34.0353 182.868 34.209 182.947 34.4001C183.025 34.5911 183.065 34.7959 183.064 35.0024Z" fill="#EEF5FE" fill-opacity="0.5"/>
<path d="M173.603 51.396C173.603 51.7065 173.511 52.0099 173.339 52.268C173.166 52.5262 172.921 52.7273 172.634 52.8461C172.347 52.9649 172.032 52.996 171.727 52.9355C171.423 52.8749 171.143 52.7254 170.924 52.5059C170.704 52.2864 170.555 52.0067 170.494 51.7022C170.434 51.3978 170.465 51.0822 170.583 50.7954C170.702 50.5086 170.903 50.2634 171.161 50.0909C171.42 49.9185 171.723 49.8264 172.034 49.8264C172.24 49.8261 172.444 49.8664 172.635 49.9452C172.825 50.0239 172.998 50.1395 173.144 50.2853C173.29 50.4312 173.406 50.6043 173.484 50.7949C173.563 50.9855 173.603 51.1898 173.603 51.396Z" fill="#EEF5FE" fill-opacity="0.5"/>
<path d="M183.064 67.7849C183.064 68.0957 182.972 68.3994 182.799 68.6577C182.627 68.916 182.381 69.1172 182.094 69.2357C181.807 69.3543 181.491 69.385 181.186 69.3238C180.881 69.2627 180.602 69.1125 180.382 68.8922C180.163 68.672 180.014 68.3916 179.954 68.0867C179.895 67.7817 179.927 67.4659 180.047 67.1792C180.167 66.8926 180.369 66.6479 180.628 66.4763C180.887 66.3047 181.191 66.2139 181.502 66.2153C181.708 66.2156 181.911 66.2564 182.101 66.3355C182.291 66.4145 182.464 66.5302 182.609 66.676C182.754 66.8218 182.869 66.9948 182.947 67.1851C183.025 67.3754 183.065 67.5792 183.064 67.7849Z" fill="#EEF5FE" fill-opacity="0.5"/>
<g opacity="0.53">
<path d="M209.314 84.4924L199.851 68.1054L200.942 67.4727L210.405 83.8669L209.314 84.4924Z" fill="#EEF5FE" fill-opacity="0.5"/>
</g>
<g opacity="0.89">
<path d="M210.405 84.4924L209.314 83.8669L218.777 67.4727L219.875 68.1054L210.405 84.4924Z" fill="#EEF5FE" fill-opacity="0.5"/>
</g>
<g opacity="0.4">
<path d="M200.942 100.887L199.851 100.261L209.314 83.8669L210.405 84.4925L200.942 100.887Z" fill="#EEF5FE" fill-opacity="0.5"/>
</g>
<g opacity="0.48">
<path d="M209.779 83.551H190.934V84.8115H209.779V83.551Z" fill="#EEF5FE" fill-opacity="0.5"/>
</g>
<g opacity="0.02">
<path d="M228.793 83.551H209.779V84.8115H228.793V83.551Z" fill="#EEF5FE" fill-opacity="0.5"/>
</g>
<g opacity="0.01">
<path d="M210.368 83.8846L209.275 84.5188L218.778 100.892L219.871 100.258L210.368 83.8846Z" fill="#EEF5FE" fill-opacity="0.5"/>
</g>
<path d="M201.966 67.7895C201.965 68.0999 201.872 68.4031 201.699 68.6608C201.526 68.9186 201.281 69.1193 200.994 69.2376C200.707 69.356 200.392 69.3866 200.087 69.3257C199.783 69.2648 199.504 69.115 199.284 68.8954C199.065 68.6757 198.916 68.396 198.856 68.0916C198.795 67.7872 198.826 67.4717 198.945 67.185C199.064 66.8983 199.265 66.6533 199.523 66.4809C199.781 66.3084 200.085 66.2164 200.395 66.2163C200.602 66.2159 200.806 66.2564 200.997 66.3353C201.188 66.4143 201.362 66.5302 201.507 66.6764C201.653 66.8226 201.769 66.9962 201.848 67.1873C201.926 67.3783 201.966 67.583 201.966 67.7895Z" fill="#EEF5FE" fill-opacity="0.5"/>
<path d="M192.497 84.1785C192.497 84.4883 192.404 84.7909 192.231 85.0481C192.059 85.3054 191.814 85.5056 191.527 85.6236C191.241 85.7415 190.926 85.7719 190.622 85.7108C190.318 85.6497 190.04 85.5 189.821 85.2805C189.602 85.0609 189.454 84.7815 189.394 84.4776C189.334 84.1736 189.366 83.8587 189.485 83.5728C189.604 83.2868 189.805 83.0426 190.063 82.871C190.321 82.6995 190.624 82.6082 190.934 82.6089C191.14 82.6091 191.344 82.6498 191.534 82.7288C191.724 82.8079 191.896 82.9236 192.041 83.0694C192.187 83.2152 192.302 83.3882 192.38 83.5785C192.458 83.7688 192.498 83.9727 192.497 84.1785Z" fill="#EEF5FE" fill-opacity="0.5"/>
<path d="M201.966 100.576C201.965 100.886 201.872 101.189 201.699 101.447C201.526 101.705 201.281 101.905 200.994 102.024C200.707 102.142 200.392 102.173 200.087 102.112C199.783 102.051 199.504 101.901 199.284 101.682C199.065 101.462 198.916 101.182 198.856 100.878C198.795 100.573 198.826 100.258 198.945 99.9711C199.064 99.6844 199.265 99.4394 199.523 99.267C199.781 99.0946 200.085 99.0025 200.395 99.0024C200.602 99.0023 200.806 99.0429 200.997 99.122C201.188 99.201 201.361 99.317 201.507 99.4631C201.653 99.6093 201.768 99.7828 201.847 99.9737C201.926 100.165 201.966 100.369 201.966 100.576Z" fill="#EEF5FE" fill-opacity="0.5"/>
<g opacity="0.37">
<path d="M229.301 117.281L228.218 116.648L237.68 100.261L238.771 100.887L229.301 117.281Z" fill="#EEF5FE" fill-opacity="0.5"/>
</g>
<g opacity="0.31">
<path d="M228.218 116.652L218.748 133.042L219.839 133.673L229.309 117.283L228.218 116.652Z" fill="#EEF5FE" fill-opacity="0.5"/>
</g>
<g opacity="0.53">
<path d="M247.687 116.337H228.679V117.594H247.687V116.337Z" fill="#EEF5FE" fill-opacity="0.5"/>
</g>
<g opacity="0.12">
<path d="M229.265 116.674L228.175 117.307L237.68 133.677L238.769 133.044L229.265 116.674Z" fill="#EEF5FE" fill-opacity="0.5"/>
</g>
<path d="M220.866 100.576C220.866 100.886 220.773 101.189 220.6 101.447C220.427 101.705 220.182 101.906 219.895 102.024C219.608 102.142 219.292 102.173 218.988 102.112C218.684 102.051 218.404 101.901 218.185 101.681C217.966 101.462 217.817 101.182 217.756 100.877C217.696 100.573 217.727 100.257 217.846 99.9706C217.965 99.6839 218.167 99.439 218.425 99.2666C218.683 99.0943 218.986 99.0024 219.297 99.0024C219.503 99.0021 219.708 99.0426 219.899 99.1216C220.089 99.2006 220.263 99.3166 220.409 99.4628C220.554 99.609 220.67 99.7825 220.749 99.9735C220.827 100.165 220.867 100.369 220.866 100.576Z" fill="#EEF5FE" fill-opacity="0.5"/>
<g opacity="0.14">
<path d="M238.741 133.046L237.65 133.675L247.112 150.069L248.202 149.44L238.741 133.046Z" fill="#EEF5FE" fill-opacity="0.5"/>
</g>
<g opacity="0.22">
<path d="M256.58 133.048L247.111 149.437L248.202 150.067L257.671 133.678L256.58 133.048Z" fill="#EEF5FE" fill-opacity="0.5"/>
</g>
<g opacity="0.49">
<path d="M266.587 149.124H247.573V150.382H266.587V149.124Z" fill="#EEF5FE" fill-opacity="0.5"/>
</g>
<path d="M239.76 133.363C239.759 133.673 239.666 133.977 239.493 134.235C239.32 134.492 239.074 134.693 238.787 134.811C238.499 134.929 238.183 134.959 237.879 134.898C237.575 134.836 237.295 134.686 237.076 134.465C236.857 134.245 236.709 133.964 236.649 133.66C236.59 133.355 236.622 133.039 236.742 132.753C236.862 132.466 237.065 132.222 237.324 132.05C237.583 131.879 237.887 131.788 238.197 131.79C238.404 131.789 238.608 131.83 238.798 131.909C238.988 131.988 239.161 132.104 239.306 132.25C239.452 132.397 239.567 132.57 239.644 132.761C239.722 132.952 239.761 133.157 239.76 133.363Z" fill="#EEF5FE" fill-opacity="0.5"/>
<path d="M230.299 149.753C230.299 150.063 230.207 150.367 230.035 150.625C229.862 150.883 229.617 151.084 229.33 151.203C229.043 151.322 228.728 151.353 228.423 151.293C228.119 151.232 227.839 151.083 227.619 150.863C227.4 150.644 227.25 150.364 227.189 150.06C227.129 149.755 227.16 149.44 227.279 149.153C227.397 148.866 227.598 148.62 227.857 148.448C228.115 148.275 228.418 148.183 228.729 148.183C228.935 148.183 229.139 148.223 229.33 148.302C229.52 148.381 229.694 148.496 229.839 148.642C229.985 148.788 230.101 148.961 230.18 149.152C230.259 149.342 230.299 149.546 230.299 149.753Z" fill="#EEF5FE" fill-opacity="0.5"/>
<g opacity="0.26">
<path d="M266.01 182.858L256.547 166.464L257.638 165.838L267.101 182.225L266.01 182.858Z" fill="#EEF5FE" fill-opacity="0.5"/>
</g>
<g opacity="0.37">
<path d="M257.638 199.245L256.547 198.619L266.01 182.225L267.101 182.858L257.638 199.245Z" fill="#EEF5FE" fill-opacity="0.5"/>
</g>
<g opacity="0.45">
<path d="M266.481 181.911H247.63V183.172H266.481V181.911Z" fill="#EEF5FE" fill-opacity="0.5"/>
</g>
<g opacity="0.53">
<path d="M209.285 18.9225L199.822 2.52829L200.913 1.89551L210.383 18.2897L209.285 18.9225Z" fill="#EEF5FE" fill-opacity="0.5"/>
</g>
<g opacity="0.83">
<path d="M210.383 18.9225L209.285 18.2897L218.747 1.89551L219.846 2.52829L210.383 18.9225Z" fill="#EEF5FE" fill-opacity="0.5"/>
</g>
<g opacity="0.58">
<path d="M200.913 35.3173L199.822 34.6845L209.285 18.2903L210.383 18.9231L200.913 35.3173Z" fill="#EEF5FE" fill-opacity="0.5"/>
</g>
<g opacity="0.47">
<path d="M209.75 17.9768H190.906V19.2373H209.75V17.9768Z" fill="#EEF5FE" fill-opacity="0.5"/>
</g>
<g opacity="0.53">
<path d="M228.757 17.9768H209.75V19.2373H228.757V17.9768Z" fill="#EEF5FE" fill-opacity="0.5"/>
</g>
<g opacity="0.15">
<path d="M218.748 35.3167L209.249 18.9443L210.34 18.3115L219.846 34.6839L218.748 35.3167Z" fill="#EEF5FE" fill-opacity="0.5"/>
</g>
<path d="M201.937 2.2151C201.936 2.52551 201.844 2.8289 201.672 3.08692C201.499 3.34495 201.254 3.54601 200.967 3.6647C200.68 3.78339 200.365 3.81437 200.06 3.75372C199.756 3.69308 199.476 3.54353 199.257 3.32399C199.037 3.10445 198.888 2.82477 198.827 2.52032C198.767 2.21587 198.798 1.90031 198.917 1.61355C199.036 1.32678 199.237 1.08169 199.495 0.90925C199.753 0.736812 200.057 0.644775 200.367 0.644775C200.783 0.645468 201.182 0.811158 201.476 1.10552C201.771 1.39989 201.936 1.7989 201.937 2.2151Z" fill="#EEF5FE" fill-opacity="0.5"/>
<path d="M192.476 18.6053C192.477 18.9157 192.385 19.2193 192.214 19.4779C192.042 19.7364 191.797 19.9383 191.511 20.0579C191.225 20.1775 190.909 20.2096 190.605 20.15C190.3 20.0905 190.02 19.9419 189.8 19.7232C189.579 19.5045 189.429 19.2254 189.367 18.9212C189.306 18.6171 189.335 18.3014 189.453 18.0142C189.571 17.727 189.771 17.481 190.028 17.3075C190.286 17.134 190.589 17.0407 190.899 17.0393C191.316 17.0382 191.716 17.2025 192.011 17.4961C192.307 17.7897 192.474 18.1886 192.476 18.6053Z" fill="#EEF5FE" fill-opacity="0.5"/>
<path d="M201.937 35.0024C201.936 35.3127 201.843 35.6158 201.67 35.8735C201.497 36.1311 201.252 36.3317 200.965 36.45C200.678 36.5682 200.363 36.5988 200.059 36.5378C199.754 36.4768 199.475 36.327 199.256 36.1074C199.037 35.8877 198.888 35.6081 198.827 35.3037C198.767 34.9993 198.798 34.6839 198.917 34.3973C199.036 34.1107 199.237 33.8658 199.495 33.6935C199.753 33.5212 200.057 33.4292 200.367 33.4292C200.784 33.4299 201.183 33.596 201.477 33.891C201.772 34.186 201.937 34.5857 201.937 35.0024Z" fill="#EEF5FE" fill-opacity="0.5"/>
<g opacity="0.33">
<path d="M228.181 51.7116L218.718 35.3174L219.817 34.6846L229.272 51.0788L228.181 51.7116Z" fill="#EEF5FE" fill-opacity="0.5"/>
</g>
<g opacity="0.67">
<path d="M229.272 51.7116L228.181 51.0788L237.651 34.6846L238.742 35.3174L229.272 51.7116Z" fill="#EEF5FE" fill-opacity="0.5"/>
</g>
<g opacity="0.82">
<path d="M228.19 51.0826L218.714 67.4648L219.807 68.0972L229.284 51.7149L228.19 51.0826Z" fill="#EEF5FE" fill-opacity="0.5"/>
</g>
<g opacity="0.95">
<path d="M228.651 50.7637H209.8V52.0242H228.651V50.7637Z" fill="#EEF5FE" fill-opacity="0.5"/>
</g>
<g opacity="0.9">
<path d="M247.666 50.7637H228.651V52.0242H247.666V50.7637Z" fill="#EEF5FE" fill-opacity="0.5"/>
</g>
<g opacity="0.15">
<path d="M237.651 68.1055L228.145 51.7331L229.243 51.1003L238.742 67.4728L237.651 68.1055Z" fill="#EEF5FE" fill-opacity="0.5"/>
</g>
<path d="M220.838 35.0024C220.837 35.3128 220.745 35.616 220.572 35.8738C220.399 36.1316 220.153 36.3323 219.866 36.4506C219.579 36.5689 219.264 36.5995 218.96 36.5385C218.655 36.4776 218.376 36.3277 218.157 36.108C217.937 35.8883 217.788 35.6085 217.728 35.304C217.668 34.9995 217.699 34.684 217.818 34.3974C217.937 34.1107 218.138 33.8657 218.396 33.6934C218.654 33.5211 218.958 33.4291 219.268 33.4292C219.475 33.4293 219.679 33.4701 219.87 33.5492C220.06 33.6284 220.233 33.7443 220.379 33.8904C220.525 34.0366 220.641 34.21 220.719 34.4008C220.798 34.5916 220.838 34.796 220.838 35.0024Z" fill="#EEF5FE" fill-opacity="0.5"/>
<path d="M211.369 51.396C211.369 51.7054 211.276 52.0077 211.104 52.2646C210.932 52.5216 210.687 52.7218 210.401 52.8398C210.115 52.9579 209.8 52.9886 209.497 52.9281C209.194 52.8675 208.915 52.7185 208.696 52.4997C208.477 52.2809 208.328 52.0022 208.268 51.6988C208.207 51.3953 208.238 51.0808 208.356 50.7948C208.474 50.5088 208.674 50.2642 208.931 50.0918C209.188 49.9195 209.49 49.8271 209.8 49.8264C210.006 49.8261 210.21 49.8665 210.401 49.9453C210.591 50.024 210.765 50.1396 210.91 50.2855C211.056 50.4313 211.172 50.6044 211.251 50.795C211.329 50.9856 211.37 51.1898 211.369 51.396Z" fill="#EEF5FE" fill-opacity="0.5"/>
<path d="M220.838 67.7859C220.838 68.0964 220.746 68.4 220.573 68.6583C220.401 68.9165 220.156 69.1178 219.869 69.2367C219.582 69.3555 219.266 69.3867 218.962 69.3261C218.657 69.2655 218.377 69.116 218.158 68.8964C217.938 68.6768 217.789 68.397 217.728 68.0925C217.668 67.7879 217.699 67.4722 217.818 67.1853C217.936 66.8984 218.138 66.6532 218.396 66.4807C218.654 66.3083 218.958 66.2162 219.268 66.2163C219.685 66.2165 220.084 66.382 220.378 66.6763C220.672 66.9706 220.838 67.3697 220.838 67.7859Z" fill="#EEF5FE" fill-opacity="0.5"/>
<g opacity="0.44">
<path d="M247.085 84.4924L237.622 68.1054L238.706 67.4727L248.176 83.8669L247.085 84.4924Z" fill="#EEF5FE" fill-opacity="0.5"/>
</g>
<g opacity="0.65">
<path d="M248.176 84.4924L247.085 83.8669L256.547 67.4727L257.646 68.1054L248.176 84.4924Z" fill="#EEF5FE" fill-opacity="0.5"/>
</g>
<g opacity="0.13">
<path d="M238.706 100.887L237.622 100.261L247.085 83.8669L248.176 84.4925L238.706 100.887Z" fill="#EEF5FE" fill-opacity="0.5"/>
</g>
<g opacity="0.37">
<path d="M247.551 83.551H228.7V84.8115H247.551V83.551Z" fill="#EEF5FE" fill-opacity="0.5"/>
</g>
<g opacity="0.75">
<path d="M266.559 83.551H247.552V84.8115H266.559V83.551Z" fill="#EEF5FE" fill-opacity="0.5"/>
</g>
<g opacity="0.23">
<path d="M248.138 83.8848L247.048 84.5173L256.551 100.892L257.641 100.26L248.138 83.8848Z" fill="#EEF5FE" fill-opacity="0.5"/>
</g>
<path d="M239.739 67.7895C239.738 68.0995 239.646 68.4023 239.473 68.6598C239.3 68.9173 239.055 69.1179 238.769 69.2364C238.483 69.3548 238.167 69.3858 237.863 69.3254C237.559 69.265 237.28 69.116 237.061 68.897C236.841 68.6781 236.691 68.3991 236.63 68.0952C236.569 67.7913 236.6 67.4762 236.717 67.1894C236.835 66.9027 237.035 66.6573 237.292 66.4841C237.549 66.3109 237.852 66.2178 238.162 66.2163C238.369 66.2158 238.574 66.2561 238.765 66.335C238.956 66.4138 239.13 66.5296 239.277 66.6758C239.423 66.8219 239.539 66.9955 239.619 67.1866C239.698 67.3777 239.739 67.5826 239.739 67.7895Z" fill="#EEF5FE" fill-opacity="0.5"/>
<path d="M230.271 84.1785C230.271 84.489 230.179 84.7926 230.006 85.0508C229.834 85.309 229.589 85.5103 229.302 85.6292C229.015 85.7481 228.699 85.7792 228.395 85.7187C228.09 85.6582 227.811 85.5088 227.591 85.2892C227.371 85.0697 227.222 84.79 227.161 84.4855C227.1 84.181 227.131 83.8653 227.25 83.5784C227.369 83.2915 227.57 83.0462 227.828 82.8737C228.086 82.7011 228.39 82.609 228.7 82.6089C228.907 82.6084 229.111 82.6486 229.302 82.7273C229.492 82.806 229.666 82.9216 229.812 83.0674C229.958 83.2132 230.073 83.3865 230.152 83.5772C230.231 83.7678 230.271 83.9722 230.271 84.1785Z" fill="#EEF5FE" fill-opacity="0.5"/>
<path d="M239.739 100.576C239.738 100.886 239.645 101.189 239.473 101.447C239.3 101.704 239.054 101.905 238.767 102.023C238.48 102.141 238.165 102.172 237.861 102.111C237.557 102.05 237.277 101.9 237.058 101.681C236.839 101.461 236.69 101.181 236.629 100.877C236.569 100.573 236.601 100.257 236.719 99.9705C236.838 99.684 237.04 99.439 237.298 99.2667C237.556 99.0944 237.859 99.0024 238.169 99.0024C238.586 99.0034 238.985 99.1696 239.279 99.4646C239.573 99.7595 239.739 100.159 239.739 100.576Z" fill="#EEF5FE" fill-opacity="0.5"/>
<g opacity="0.82">
<path d="M265.981 117.281L256.518 100.887L257.609 100.261L267.072 116.648L265.981 117.281Z" fill="#EEF5FE" fill-opacity="0.5"/>
</g>
<g opacity="0.05">
<path d="M267.072 117.281L265.981 116.648L275.444 100.261L276.542 100.887L267.072 117.281Z" fill="#EEF5FE" fill-opacity="0.5"/>
</g>
<g opacity="0.18">
<path d="M265.989 116.652L256.514 133.04L257.605 133.67L267.08 117.283L265.989 116.652Z" fill="#EEF5FE" fill-opacity="0.5"/>
</g>
<g opacity="0.88">
<path d="M266.446 116.337H247.602V117.594H266.446V116.337Z" fill="#EEF5FE" fill-opacity="0.5"/>
</g>
<path d="M258.633 100.576C258.632 100.886 258.539 101.189 258.366 101.447C258.194 101.705 257.948 101.905 257.661 102.024C257.374 102.142 257.059 102.173 256.755 102.112C256.45 102.051 256.171 101.901 255.951 101.682C255.732 101.462 255.583 101.182 255.523 100.878C255.462 100.573 255.494 100.258 255.612 99.9711C255.731 99.6844 255.932 99.4394 256.19 99.267C256.449 99.0946 256.752 99.0025 257.062 99.0024C257.269 99.0021 257.473 99.0425 257.664 99.1215C257.855 99.2004 258.029 99.3163 258.175 99.4626C258.32 99.6088 258.436 99.7824 258.515 99.9734C258.593 100.164 258.633 100.369 258.633 100.576Z" fill="#EEF5FE" fill-opacity="0.5"/>
<g opacity="0.56">
<path d="M284.885 150.069L275.415 133.675L276.513 133.049L285.968 149.436L284.885 150.069Z" fill="#EEF5FE" fill-opacity="0.5"/>
</g>
<g opacity="0.25">
<path d="M285.968 150.069L284.885 149.436L294.347 133.049L295.438 133.675L285.968 150.069Z" fill="#EEF5FE" fill-opacity="0.5"/>
</g>
<g opacity="0.81">
<path d="M284.885 149.439L275.415 165.829L276.507 166.46L285.977 150.07L284.885 149.439Z" fill="#EEF5FE" fill-opacity="0.5"/>
</g>
<g opacity="0.75">
<path d="M304.361 149.124H285.346V150.382H304.361V149.124Z" fill="#EEF5FE" fill-opacity="0.5"/>
</g>
<path d="M277.533 133.363C277.532 133.673 277.44 133.976 277.267 134.234C277.094 134.491 276.849 134.692 276.562 134.81C276.275 134.929 275.959 134.959 275.655 134.898C275.351 134.837 275.072 134.687 274.852 134.468C274.633 134.248 274.484 133.968 274.424 133.664C274.364 133.36 274.395 133.044 274.514 132.758C274.633 132.471 274.834 132.226 275.092 132.054C275.35 131.882 275.653 131.79 275.964 131.79C276.17 131.789 276.375 131.83 276.566 131.909C276.756 131.988 276.93 132.104 277.076 132.25C277.221 132.396 277.337 132.57 277.415 132.761C277.494 132.952 277.534 133.156 277.533 133.363Z" fill="#EEF5FE" fill-opacity="0.5"/>
<g opacity="0.51">
<path d="M304.872 182.858L303.788 182.225L313.244 165.838L314.342 166.464L304.872 182.858Z" fill="#EEF5FE" fill-opacity="0.5"/>
</g>
<g opacity="0.52">
<path d="M295.409 199.245L294.318 198.619L303.788 182.225L304.872 182.858L295.409 199.245Z" fill="#EEF5FE" fill-opacity="0.5"/>
</g>
<g opacity="0.8">
<path d="M304.832 182.244L303.742 182.876L313.247 199.25L314.337 198.618L304.832 182.244Z" fill="#EEF5FE" fill-opacity="0.5"/>
</g>
<g opacity="0.57">
<path d="M238.683 1.89733L237.593 2.52637L247.056 18.9214L248.146 18.2924L238.683 1.89733Z" fill="#EEF5FE" fill-opacity="0.5"/>
</g>
<g opacity="0.58">
<path d="M248.147 18.9225L247.056 18.2897L256.525 1.89551L257.617 2.52829L248.147 18.9225Z" fill="#EEF5FE" fill-opacity="0.5"/>
</g>
<g opacity="0.04">
<path d="M247.063 18.2943L237.586 34.6809L238.676 35.3109L248.152 18.9243L247.063 18.2943Z" fill="#EEF5FE" fill-opacity="0.5"/>
</g>
<g opacity="0.9">
<path d="M247.523 17.9768H228.672V19.2373H247.523V17.9768Z" fill="#EEF5FE" fill-opacity="0.5"/>
</g>
<g opacity="0.1">
<path d="M266.531 17.9768H247.523V19.2373H266.531V17.9768Z" fill="#EEF5FE" fill-opacity="0.5"/>
</g>
<g opacity="0.88">
<path d="M256.525 35.3167L247.019 18.9443L248.11 18.3115L257.617 34.6839L256.525 35.3167Z" fill="#EEF5FE" fill-opacity="0.5"/>
</g>
<path d="M239.71 2.21511C239.711 2.52654 239.619 2.83114 239.446 3.09032C239.273 3.34949 239.028 3.55159 238.74 3.671C238.452 3.79042 238.136 3.82177 237.83 3.7611C237.525 3.70043 237.244 3.55047 237.024 3.3302C236.804 3.10993 236.654 2.82927 236.594 2.52377C236.533 2.21828 236.565 1.90169 236.684 1.61411C236.804 1.32654 237.006 1.08091 237.265 0.908351C237.524 0.73579 237.829 0.64406 238.14 0.64478C238.557 0.645607 238.955 0.81134 239.25 1.10567C239.544 1.40001 239.709 1.79895 239.71 2.21511Z" fill="#EEF5FE" fill-opacity="0.5"/>
<path d="M230.242 18.6053C230.243 18.9159 230.151 19.2197 229.979 19.4783C229.807 19.7369 229.562 19.9386 229.275 20.058C228.989 20.1773 228.673 20.2089 228.368 20.1488C228.064 20.0886 227.784 19.9394 227.564 19.7201C227.344 19.5007 227.194 19.221 227.133 18.9165C227.072 18.6119 227.103 18.2961 227.222 18.0091C227.34 17.7221 227.542 17.4767 227.8 17.3041C228.058 17.1315 228.362 17.0393 228.672 17.0393C229.088 17.0396 229.486 17.2046 229.781 17.4981C230.075 17.7916 230.241 18.1897 230.242 18.6053Z" fill="#EEF5FE" fill-opacity="0.5"/>
<path d="M239.71 35.0024C239.71 35.3137 239.618 35.6181 239.445 35.8769C239.272 36.1357 239.026 36.3373 238.738 36.4563C238.45 36.5752 238.134 36.6062 237.829 36.5452C237.523 36.4842 237.243 36.334 237.023 36.1136C236.803 35.8932 236.654 35.6125 236.593 35.3071C236.533 35.0017 236.565 34.6853 236.684 34.3979C236.804 34.1105 237.006 33.865 237.265 33.6926C237.525 33.5201 237.829 33.4285 238.14 33.4292C238.557 33.43 238.956 33.5962 239.251 33.8911C239.545 34.1861 239.71 34.5858 239.71 35.0024Z" fill="#EEF5FE" fill-opacity="0.5"/>
<g opacity="0.16">
<path d="M257.584 34.6849L256.494 35.314L265.956 51.7095L267.046 51.0804L257.584 34.6849Z" fill="#EEF5FE" fill-opacity="0.5"/>
</g>
<g opacity="0.18">
<path d="M275.408 34.6786L265.971 51.0881L267.062 51.7156L276.499 35.3061L275.408 34.6786Z" fill="#EEF5FE" fill-opacity="0.5"/>
</g>
<g opacity="0.85">
<path d="M257.58 68.1051L256.496 67.4724L265.952 51.0781L267.05 51.7109L257.58 68.1051Z" fill="#EEF5FE" fill-opacity="0.5"/>
</g>
<g opacity="0.66">
<path d="M266.424 50.7637H247.573V52.0242H266.424V50.7637Z" fill="#EEF5FE" fill-opacity="0.5"/>
</g>
<g opacity="0.06">
<path d="M285.431 50.7637H266.425V52.0242H285.431V50.7637Z" fill="#EEF5FE" fill-opacity="0.5"/>
</g>
<g opacity="0.45">
<path d="M275.422 68.1055L265.915 51.7331L267.006 51.1003L276.513 67.4728L275.422 68.1055Z" fill="#EEF5FE" fill-opacity="0.5"/>
</g>
<path d="M258.611 35.0024C258.61 35.3124 258.518 35.6152 258.345 35.8727C258.173 36.1302 257.928 36.3308 257.641 36.4493C257.355 36.5677 257.04 36.5987 256.736 36.5383C256.432 36.4779 256.152 36.3289 255.933 36.1099C255.713 35.891 255.564 35.612 255.503 35.3081C255.441 35.0042 255.472 34.6891 255.59 34.4023C255.707 34.1156 255.907 33.8702 256.164 33.697C256.422 33.5238 256.724 33.4306 257.034 33.4292C257.241 33.4285 257.446 33.4687 257.638 33.5474C257.829 33.6262 258.003 33.742 258.149 33.8882C258.296 34.0344 258.412 34.2081 258.491 34.3993C258.571 34.5905 258.611 34.7955 258.611 35.0024Z" fill="#EEF5FE" fill-opacity="0.5"/>
<path d="M249.143 51.396C249.143 51.7066 249.051 52.0101 248.879 52.2684C248.706 52.5266 248.461 52.7279 248.174 52.8468C247.887 52.9656 247.572 52.9968 247.267 52.9362C246.962 52.8756 246.683 52.7261 246.463 52.5065C246.243 52.2869 246.094 52.0072 246.033 51.7026C245.973 51.398 246.004 51.0823 246.123 50.7954C246.242 50.5085 246.443 50.2633 246.701 50.0909C246.959 49.9184 247.263 49.8263 247.574 49.8264C247.78 49.8261 247.984 49.8665 248.175 49.9453C248.365 50.024 248.538 50.1396 248.684 50.2855C248.83 50.4313 248.946 50.6044 249.024 50.795C249.103 50.9856 249.143 51.1898 249.143 51.396Z" fill="#EEF5FE" fill-opacity="0.5"/>
<path d="M258.611 67.7859C258.611 68.096 258.519 68.3992 258.347 68.6572C258.175 68.9151 257.93 69.1163 257.644 69.2353C257.357 69.3543 257.042 69.3858 256.738 69.3259C256.434 69.2659 256.154 69.1171 255.934 68.8983C255.714 68.6796 255.564 68.4006 255.503 68.0966C255.441 67.7926 255.472 67.4772 255.589 67.1903C255.707 66.9034 255.907 66.6577 256.164 66.4844C256.421 66.311 256.724 66.2178 257.034 66.2163C257.241 66.2156 257.446 66.2557 257.637 66.3342C257.828 66.4128 258.002 66.5282 258.148 66.674C258.295 66.8198 258.411 66.9931 258.49 67.1839C258.57 67.3747 258.611 67.5793 258.611 67.7859Z" fill="#EEF5FE" fill-opacity="0.5"/>
<g opacity="0.14">
<path d="M284.855 84.4924L275.385 68.1054L276.483 67.4727L285.939 83.8669L284.855 84.4924Z" fill="#EEF5FE" fill-opacity="0.5"/>
</g>
<g opacity="0.62">
<path d="M285.939 84.4924L284.855 83.8669L294.318 67.4727L295.409 68.1054L285.939 84.4924Z" fill="#EEF5FE" fill-opacity="0.5"/>
</g>
<g opacity="0.21">
<path d="M276.483 100.887L275.385 100.261L284.855 83.8669L285.939 84.4925L276.483 100.887Z" fill="#EEF5FE" fill-opacity="0.5"/>
</g>
<g opacity="0.35">
<path d="M285.318 83.551H266.474V84.8115H285.318V83.551Z" fill="#EEF5FE" fill-opacity="0.5"/>
</g>
<g opacity="0.94">
<path d="M304.333 83.551H285.318V84.8115H304.333V83.551Z" fill="#EEF5FE" fill-opacity="0.5"/>
</g>
<g opacity="0.26">
<path d="M285.908 83.8847L284.816 84.5188L294.317 100.892L295.41 100.258L285.908 83.8847Z" fill="#EEF5FE" fill-opacity="0.5"/>
</g>
<path d="M277.505 67.7895C277.504 68.0998 277.411 68.4029 277.238 68.6606C277.066 68.9182 276.82 69.1188 276.533 69.2371C276.246 69.3553 275.931 69.3859 275.627 69.3249C275.323 69.2639 275.043 69.1142 274.824 68.8945C274.605 68.6748 274.456 68.3952 274.395 68.0908C274.335 67.7864 274.367 67.471 274.485 67.1844C274.604 66.8978 274.806 66.6529 275.064 66.4806C275.322 66.3083 275.625 66.2163 275.935 66.2163C276.142 66.216 276.346 66.2565 276.537 66.3355C276.728 66.4145 276.901 66.5304 277.047 66.6766C277.193 66.8228 277.308 66.9964 277.387 67.1874C277.466 67.3784 277.506 67.583 277.505 67.7895Z" fill="#EEF5FE" fill-opacity="0.5"/>
<path d="M268.044 84.1785C268.044 84.4886 267.952 84.7918 267.78 85.0497C267.608 85.3077 267.363 85.5089 267.076 85.6279C266.79 85.7469 266.475 85.7784 266.171 85.7184C265.866 85.6585 265.587 85.5097 265.367 85.2909C265.147 85.0721 264.997 84.7931 264.936 84.4891C264.874 84.1851 264.904 83.8698 265.022 83.5828C265.14 83.2959 265.34 83.0503 265.597 82.8769C265.854 82.7036 266.157 82.6103 266.467 82.6089C266.884 82.6087 267.284 82.7738 267.58 83.068C267.875 83.3621 268.042 83.7615 268.044 84.1785Z" fill="#EEF5FE" fill-opacity="0.5"/>
<path d="M277.505 100.576C277.504 100.886 277.411 101.19 277.238 101.447C277.065 101.705 276.819 101.906 276.532 102.024C276.245 102.142 275.929 102.172 275.624 102.111C275.32 102.049 275.041 101.899 274.822 101.678C274.603 101.458 274.454 101.178 274.395 100.873C274.335 100.568 274.367 100.252 274.487 99.966C274.607 99.6795 274.809 99.4351 275.068 99.2635C275.327 99.092 275.631 99.0012 275.942 99.0025C276.148 99.0031 276.352 99.0443 276.542 99.1237C276.732 99.2031 276.904 99.3191 277.049 99.4652C277.194 99.6113 277.309 99.7846 277.387 99.9751C277.466 100.166 277.506 100.37 277.505 100.576Z" fill="#EEF5FE" fill-opacity="0.5"/>
<g opacity="0.36">
<path d="M295.383 100.259L294.289 100.89L303.75 117.283L304.844 116.651L295.383 100.259Z" fill="#EEF5FE" fill-opacity="0.5"/>
</g>
<g opacity="0.88">
<path d="M313.219 100.259L303.749 116.65L304.842 117.282L314.313 100.891L313.219 100.259Z" fill="#EEF5FE" fill-opacity="0.5"/>
</g>
<g opacity="0.11">
<path d="M323.226 116.337H304.219V117.594H323.226V116.337Z" fill="#EEF5FE" fill-opacity="0.5"/>
</g>
<g opacity="0.77">
<path d="M313.214 133.675L303.715 117.31L304.806 116.677L314.313 133.042L313.214 133.675Z" fill="#EEF5FE" fill-opacity="0.5"/>
</g>
<path d="M296.405 100.576C296.405 100.887 296.313 101.191 296.14 101.45C295.967 101.709 295.721 101.911 295.433 102.03C295.146 102.148 294.829 102.179 294.524 102.118C294.219 102.057 293.938 101.907 293.718 101.687C293.499 101.466 293.349 101.186 293.289 100.88C293.228 100.575 293.26 100.259 293.38 99.9711C293.499 99.6837 293.702 99.4382 293.961 99.2658C294.22 99.0934 294.524 99.0017 294.836 99.0024C295.042 99.0021 295.247 99.0427 295.438 99.1216C295.628 99.2006 295.802 99.3166 295.948 99.4628C296.093 99.609 296.209 99.7826 296.288 99.9735C296.366 100.165 296.406 100.369 296.405 100.576Z" fill="#EEF5FE" fill-opacity="0.5"/>
<path d="M296.405 133.363C296.405 133.674 296.313 133.978 296.14 134.237C295.967 134.496 295.721 134.698 295.433 134.817C295.146 134.936 294.829 134.967 294.524 134.906C294.219 134.845 293.938 134.694 293.718 134.474C293.499 134.254 293.349 133.973 293.289 133.667C293.228 133.362 293.26 133.046 293.38 132.758C293.499 132.471 293.702 132.225 293.961 132.053C294.22 131.88 294.524 131.789 294.836 131.79C295.042 131.789 295.247 131.83 295.437 131.909C295.628 131.988 295.801 132.104 295.947 132.25C296.093 132.397 296.208 132.57 296.287 132.761C296.366 132.952 296.406 133.156 296.405 133.363Z" fill="#EEF5FE" fill-opacity="0.5"/>
<g opacity="0.56">
<path d="M314.28 133.046L313.189 133.676L322.651 150.069L323.742 149.439L314.28 133.046Z" fill="#EEF5FE" fill-opacity="0.5"/>
</g>
<path d="M315.299 133.363C315.298 133.672 315.205 133.974 315.032 134.231C314.86 134.487 314.615 134.687 314.329 134.805C314.042 134.922 313.728 134.952 313.424 134.892C313.121 134.831 312.843 134.681 312.624 134.462C312.406 134.243 312.257 133.964 312.197 133.661C312.137 133.357 312.168 133.043 312.286 132.757C312.404 132.471 312.604 132.227 312.861 132.055C313.118 131.882 313.42 131.79 313.73 131.79C313.936 131.789 314.141 131.83 314.332 131.909C314.523 131.988 314.696 132.104 314.842 132.25C314.988 132.396 315.103 132.57 315.182 132.761C315.26 132.952 315.3 133.156 315.299 133.363Z" fill="#EEF5FE" fill-opacity="0.5"/>
<path d="M315.299 166.146C315.299 166.456 315.206 166.758 315.034 167.015C314.862 167.272 314.617 167.473 314.331 167.591C314.045 167.709 313.73 167.74 313.427 167.679C313.123 167.619 312.844 167.469 312.626 167.251C312.407 167.032 312.258 166.753 312.197 166.449C312.137 166.146 312.167 165.831 312.285 165.545C312.404 165.259 312.604 165.014 312.861 164.842C313.118 164.67 313.42 164.577 313.73 164.577C314.146 164.577 314.545 164.742 314.839 165.037C315.134 165.331 315.299 165.73 315.299 166.146Z" fill="#EEF5FE" fill-opacity="0.5"/>
<g opacity="0.51">
<path d="M276.454 1.89975L275.366 2.52734L284.827 18.9207L285.915 18.2931L276.454 1.89975Z" fill="#EEF5FE" fill-opacity="0.5"/>
</g>
<g opacity="0.09">
<path d="M294.297 1.90087L284.82 18.2876L285.91 18.9176L295.386 2.53088L294.297 1.90087Z" fill="#EEF5FE" fill-opacity="0.5"/>
</g>
<g opacity="0.28">
<path d="M284.833 18.2951L275.362 34.6826L276.449 35.3109L285.92 18.9233L284.833 18.2951Z" fill="#EEF5FE" fill-opacity="0.5"/>
</g>
<g opacity="0.87">
<path d="M285.297 17.9768H266.446V19.2373H285.297V17.9768Z" fill="#EEF5FE" fill-opacity="0.5"/>
</g>
<g opacity="0.68">
<path d="M304.304 17.9768H285.297V19.2373H304.304V17.9768Z" fill="#EEF5FE" fill-opacity="0.5"/>
</g>
<g opacity="0.11">
<path d="M294.289 35.3167L284.782 18.9443L285.881 18.3115L295.38 34.6839L294.289 35.3167Z" fill="#EEF5FE" fill-opacity="0.5"/>
</g>
<path d="M277.477 2.2151C277.477 2.52561 277.384 2.82913 277.212 3.08727C277.039 3.3454 276.794 3.54657 276.507 3.66533C276.22 3.78409 275.905 3.81511 275.6 3.75446C275.295 3.69382 275.016 3.54423 274.796 3.32461C274.577 3.105 274.427 2.82522 274.367 2.52067C274.306 2.21611 274.337 1.90045 274.456 1.6136C274.575 1.32676 274.776 1.08161 275.035 0.90916C275.293 0.736711 275.597 0.644704 275.907 0.644776C276.113 0.644575 276.318 0.685061 276.508 0.763915C276.699 0.842769 276.872 0.958442 277.018 1.10431C277.163 1.25018 277.279 1.42337 277.358 1.61398C277.436 1.80459 277.477 2.00886 277.477 2.2151Z" fill="#EEF5FE" fill-opacity="0.5"/>
<path d="M268.015 18.6053C268.016 18.9159 267.925 19.2197 267.753 19.4783C267.581 19.7369 267.336 19.9386 267.049 20.058C266.762 20.1773 266.446 20.2089 266.142 20.1488C265.837 20.0886 265.557 19.9394 265.337 19.7201C265.117 19.5007 264.967 19.221 264.907 18.9165C264.846 18.6119 264.877 18.2961 264.995 18.0091C265.114 17.7221 265.315 17.4767 265.573 17.3041C265.832 17.1315 266.135 17.0393 266.446 17.0393C266.652 17.0389 266.856 17.0791 267.046 17.1576C267.236 17.2361 267.409 17.3514 267.555 17.4969C267.701 17.6423 267.817 17.8151 267.896 18.0053C267.975 18.1954 268.015 18.3993 268.015 18.6053Z" fill="#EEF5FE" fill-opacity="0.5"/>
<path d="M277.477 35.0024C277.476 35.3128 277.383 35.616 277.21 35.8738C277.037 36.1316 276.792 36.3323 276.505 36.4506C276.218 36.5689 275.903 36.5995 275.598 36.5385C275.294 36.4776 275.014 36.3277 274.795 36.108C274.576 35.8883 274.427 35.6085 274.367 35.304C274.306 34.9995 274.338 34.684 274.457 34.3974C274.576 34.1107 274.777 33.8657 275.035 33.6934C275.293 33.5211 275.597 33.4291 275.907 33.4292C276.113 33.429 276.318 33.4696 276.509 33.5486C276.699 33.6277 276.873 33.7436 277.019 33.8898C277.164 34.0359 277.28 34.2095 277.359 34.4004C277.437 34.5914 277.477 34.796 277.477 35.0024Z" fill="#EEF5FE" fill-opacity="0.5"/>
<g opacity="0.37">
<path d="M303.73 51.7116L294.26 35.3174L295.351 34.6846L304.814 51.0788L303.73 51.7116Z" fill="#EEF5FE" fill-opacity="0.5"/>
</g>
<g opacity="0.68">
<path d="M304.813 51.7116L303.73 51.0788L313.192 34.6846L314.283 35.3174L304.813 51.7116Z" fill="#EEF5FE" fill-opacity="0.5"/>
</g>
<g opacity="0.02">
<path d="M303.733 51.082L294.256 67.4663L295.346 68.0971L304.824 51.7127L303.733 51.082Z" fill="#EEF5FE" fill-opacity="0.5"/>
</g>
<g opacity="0.64">
<path d="M304.19 50.7637H285.339V52.0242H304.19V50.7637Z" fill="#EEF5FE" fill-opacity="0.5"/>
</g>
<g opacity="0.18">
<path d="M323.198 50.7637H304.19V52.0242H323.198V50.7637Z" fill="#EEF5FE" fill-opacity="0.5"/>
</g>
<g opacity="0.39">
<path d="M313.193 68.1055L303.686 51.7331L304.77 51.1003L314.284 67.4728L313.193 68.1055Z" fill="#EEF5FE" fill-opacity="0.5"/>
</g>
<path d="M296.377 35.0024C296.377 35.3127 296.284 35.6158 296.111 35.8735C295.938 36.1311 295.693 36.3317 295.406 36.45C295.119 36.5682 294.803 36.5988 294.499 36.5378C294.195 36.4768 293.916 36.327 293.696 36.1074C293.477 35.8877 293.328 35.6081 293.268 35.3037C293.208 34.9993 293.239 34.6839 293.358 34.3973C293.477 34.1107 293.678 33.8658 293.936 33.6935C294.194 33.5212 294.497 33.4292 294.808 33.4292C295.014 33.4293 295.218 33.4701 295.409 33.5492C295.6 33.6284 295.773 33.7443 295.919 33.8904C296.064 34.0366 296.18 34.21 296.259 34.4008C296.337 34.5916 296.378 34.796 296.377 35.0024Z" fill="#EEF5FE" fill-opacity="0.5"/>
<path d="M286.916 51.396C286.917 51.7072 286.825 52.0116 286.653 52.2707C286.481 52.5298 286.235 52.732 285.948 52.8517C285.661 52.9715 285.345 53.0034 285.039 52.9434C284.734 52.8834 284.453 52.7342 284.233 52.5147C284.012 52.2952 283.862 52.0152 283.8 51.7101C283.739 51.4051 283.769 51.0887 283.888 50.801C284.006 50.5132 284.207 50.267 284.466 50.0936C284.724 49.9201 285.028 49.8271 285.339 49.8264C285.546 49.8259 285.75 49.8661 285.941 49.9447C286.132 50.0233 286.306 50.1388 286.453 50.2846C286.599 50.4303 286.715 50.6035 286.795 50.7942C286.874 50.9849 286.915 51.1894 286.916 51.396Z" fill="#EEF5FE" fill-opacity="0.5"/>
<path d="M294.808 69.3555C295.675 69.3555 296.377 68.6528 296.377 67.7859C296.377 66.919 295.675 66.2163 294.808 66.2163C293.941 66.2163 293.238 66.919 293.238 67.7859C293.238 68.6528 293.941 69.3555 294.808 69.3555Z" fill="#EEF5FE" fill-opacity="0.5"/>
<g opacity="0.58">
<path d="M314.251 67.4719L313.161 68.1013L322.623 84.4962L323.713 83.8669L314.251 67.4719Z" fill="#EEF5FE" fill-opacity="0.5"/>
</g>
<g opacity="0.76">
<path d="M322.632 83.8696L313.152 100.254L314.242 100.885L323.722 84.5002L322.632 83.8696Z" fill="#EEF5FE" fill-opacity="0.5"/>
</g>
<g opacity="0.56">
<path d="M323.092 83.551H304.241V84.8115H323.092V83.551Z" fill="#EEF5FE" fill-opacity="0.5"/>
</g>
<path d="M315.278 67.7895C315.278 68.0999 315.185 68.4031 315.012 68.6608C314.839 68.9186 314.594 69.1193 314.307 69.2376C314.02 69.356 313.705 69.3866 313.4 69.3257C313.096 69.2648 312.816 69.115 312.597 68.8954C312.378 68.6757 312.229 68.396 312.168 68.0916C312.108 67.7872 312.139 67.4717 312.258 67.185C312.377 66.8983 312.578 66.6533 312.836 66.4809C313.094 66.3084 313.398 66.2164 313.708 66.2163C313.915 66.2159 314.119 66.2564 314.31 66.3353C314.501 66.4143 314.674 66.5302 314.82 66.6764C314.966 66.8226 315.082 66.9962 315.16 67.1873C315.239 67.3783 315.279 67.583 315.278 67.7895Z" fill="#EEF5FE" fill-opacity="0.5"/>
<path d="M305.81 84.1785C305.81 84.4889 305.718 84.7924 305.545 85.0505C305.373 85.3086 305.128 85.5098 304.841 85.6286C304.554 85.7474 304.239 85.7785 303.934 85.7179C303.63 85.6574 303.35 85.5079 303.13 85.2884C302.911 85.0688 302.762 84.7892 302.701 84.4847C302.64 84.1802 302.671 83.8646 302.79 83.5778C302.909 83.291 303.11 83.0459 303.368 82.8734C303.626 82.7009 303.93 82.6089 304.24 82.6089C304.657 82.6091 305.056 82.7745 305.35 83.0688C305.644 83.3632 305.81 83.7623 305.81 84.1785Z" fill="#EEF5FE" fill-opacity="0.5"/>
<path d="M315.278 100.576C315.278 100.886 315.185 101.189 315.012 101.447C314.839 101.705 314.594 101.905 314.307 102.024C314.02 102.142 313.705 102.173 313.4 102.112C313.096 102.051 312.816 101.901 312.597 101.682C312.378 101.462 312.229 101.182 312.168 100.878C312.108 100.573 312.139 100.258 312.258 99.9711C312.377 99.6844 312.578 99.4394 312.836 99.267C313.094 99.0946 313.398 99.0025 313.708 99.0024C313.914 99.0023 314.119 99.0429 314.31 99.122C314.501 99.201 314.674 99.317 314.82 99.4631C314.966 99.6093 315.081 99.7828 315.16 99.9737C315.239 100.165 315.279 100.369 315.278 100.576Z" fill="#EEF5FE" fill-opacity="0.5"/>
<g opacity="0.08">
<path d="M314.223 1.89965L313.134 2.52905L322.601 18.9209L323.691 18.2915L314.223 1.89965Z" fill="#EEF5FE" fill-opacity="0.5"/>
</g>
<g opacity="0.98">
<path d="M322.581 18.283L313.152 34.697L314.243 35.3239L323.673 18.9099L322.581 18.283Z" fill="#EEF5FE" fill-opacity="0.5"/>
</g>
<g opacity="0.75">
<path d="M323.063 17.9768H304.212V19.2373H323.063V17.9768Z" fill="#EEF5FE" fill-opacity="0.5"/>
</g>
<path d="M315.249 2.2151C315.249 2.5252 315.157 2.8283 314.985 3.08617C314.813 3.34403 314.568 3.5451 314.282 3.664C313.995 3.7829 313.68 3.8143 313.376 3.75424C313.072 3.69418 312.792 3.54535 312.572 3.32654C312.353 3.10773 312.203 2.82873 312.141 2.52476C312.08 2.22079 312.11 1.90546 312.228 1.61857C312.345 1.33168 312.545 1.08609 312.803 0.912781C313.06 0.739472 313.362 0.646215 313.673 0.644778C314.09 0.643967 314.49 0.808943 314.786 1.10342C315.082 1.3979 315.248 1.79778 315.249 2.2151Z" fill="#EEF5FE" fill-opacity="0.5"/>
<path d="M305.782 18.6053C305.782 18.916 305.691 19.2199 305.519 19.4786C305.347 19.7373 305.102 19.9392 304.815 20.0586C304.528 20.178 304.212 20.2097 303.908 20.1495C303.603 20.0894 303.323 19.9401 303.103 19.7207C302.883 19.5013 302.733 19.2215 302.672 18.9168C302.611 18.6121 302.642 18.2962 302.761 18.0091C302.88 17.722 303.081 17.4766 303.339 17.304C303.598 17.1314 303.901 17.0392 304.212 17.0393C304.418 17.0389 304.622 17.0791 304.812 17.1576C305.003 17.2361 305.176 17.3514 305.321 17.4969C305.467 17.6423 305.583 17.8151 305.662 18.0053C305.741 18.1954 305.782 18.3993 305.782 18.6053Z" fill="#EEF5FE" fill-opacity="0.5"/>
<path d="M315.249 35.0024C315.249 35.3127 315.156 35.6158 314.983 35.8735C314.81 36.1311 314.565 36.3317 314.278 36.45C313.991 36.5682 313.676 36.5988 313.371 36.5378C313.067 36.4768 312.788 36.327 312.569 36.1074C312.35 35.8877 312.2 35.6081 312.14 35.3037C312.08 34.9993 312.111 34.6839 312.23 34.3973C312.349 34.1107 312.55 33.8658 312.808 33.6935C313.066 33.5212 313.37 33.4292 313.68 33.4292C314.097 33.4299 314.496 33.596 314.79 33.891C315.085 34.186 315.25 34.5857 315.249 35.0024Z" fill="#EEF5FE" fill-opacity="0.5"/>
</g>
</g>
<defs>
<linearGradient id="paint0_linear_92_15082" x1="158" y1="0.5" x2="158" y2="200.5" gradientUnits="userSpaceOnUse">
<stop stop-color="#D9D9D9"/>
<stop offset="1" stop-color="#737373" stop-opacity="0.5"/>
</linearGradient>
</defs>
</svg>
