<svg width="38" height="38" viewBox="0 0 38 38" fill="none" xmlns="http://www.w3.org/2000/svg">
<circle cx="19" cy="19" r="15" fill="url(#paint0_radial_1_6444)" fill-opacity="0.3"/>
<path d="M38 19C38.0022 21.0758 37.6638 23.1379 36.998 25.1041L35.4664 24.5848C34.6056 27.1032 33.1808 29.3915 31.3008 31.2753C29.4208 33.1591 27.1352 34.5885 24.6186 35.4544L25.1413 36.9854C21.1589 38.3382 16.8412 38.3382 12.8589 36.9854L13.3814 35.4543C10.8648 34.5885 8.57934 33.1591 6.69937 31.2754C4.81939 29.3917 3.39464 27.1033 2.53384 24.585L1.0021 25.1043C-0.334034 21.1445 -0.334034 16.8555 1.0021 12.8957L2.53384 13.415C3.39654 10.8909 4.82576 8.59785 6.71192 6.71169C8.59808 4.82553 10.8911 3.39631 13.4152 2.53361L12.896 1.00195C16.8558 -0.334011 21.1445 -0.333981 25.1043 1.00203L24.5851 2.53376C27.1092 3.39649 29.4022 4.82573 31.2884 6.7119C33.1745 8.59808 34.6037 10.8911 35.4664 13.4152L36.998 12.8959C37.6638 14.8621 38.0023 16.9242 38 19ZM19 2.23139C15.6835 2.2314 12.4415 3.21486 9.68389 5.05742C6.92632 6.89997 4.77706 9.51887 3.50789 12.5829C2.23872 15.647 1.90665 19.0186 2.55367 22.2714C3.20069 25.5241 4.79774 28.512 7.14286 30.8571C9.48799 33.2023 12.4759 34.7993 15.7286 35.4463C18.9814 36.0933 22.353 35.7613 25.4171 34.4921C28.4811 33.2229 31.1 31.0737 32.9426 28.3161C34.7851 25.5585 35.7686 22.3165 35.7686 19C35.7636 14.5542 33.9953 10.292 30.8517 7.14833C27.708 4.0047 23.4458 2.2364 19 2.23139Z" fill="url(#paint1_linear_1_6444)"/>
<g clip-path="url(#clip0_1_6444)">
<path d="M21.8805 24.028C21.9954 23.9692 22.1544 24.0069 22.2015 24.1042L23.9872 27.7895C24.0446 27.9081 23.8999 28.0259 23.735 27.995L17.1604 26.7626C16.9836 26.7294 16.9417 26.5577 17.0917 26.4809L21.8805 24.028Z" fill="url(#paint2_linear_1_6444)"/>
<path d="M21.7516 24.3223L21.7517 24.3225C21.7516 24.3224 21.7516 24.3223 21.7515 24.3222L21.7516 24.3223ZM21.8811 24.5895L23.2397 27.3934L18.2375 26.4558L21.8811 24.5895ZM23.8271 27.5036L23.8271 27.5036L23.8271 27.5036ZM22.1082 24.4732L22.1085 24.473L22.1085 24.473C22.1084 24.4731 22.1083 24.4731 22.1082 24.4732Z" stroke="#19C2EF" stroke-opacity="0.55"/>
<path d="M22.582 22.0179C22.5745 21.9964 22.5707 21.9738 22.5707 21.951V17.2692C22.5707 17.1368 22.4476 17.0416 22.3248 17.0791L17.2459 18.6319C17.1231 18.6694 17 18.5742 17 18.4418V15.416C17 15.3542 17.0279 15.2959 17.0755 15.2584L23.694 10.0406C23.786 9.96807 23.9187 9.99576 23.9763 10.0995L27.9745 17.2998C28.0029 17.3508 28.0078 17.4122 27.9881 17.4674L24.6219 26.8706C24.5597 27.0441 24.3222 27.0428 24.2619 26.8686L22.582 22.0179Z" fill="url(#paint3_linear_1_6444)"/>
<path d="M22.1787 16.6009L22.1787 16.6009L17.5 18.0313V15.5604L23.7157 10.6602L27.4722 17.425L24.447 25.8754L23.0707 21.9013V17.2692C23.0707 16.8245 22.6451 16.4583 22.1787 16.6009ZM27.5171 17.2994C27.5172 17.2992 27.5173 17.299 27.5173 17.2988L27.5173 17.2989L27.5171 17.2994Z" stroke="#19C2EF" stroke-opacity="0.55"/>
<path d="M14.5789 10.6365C14.6108 10.6005 14.6526 10.5784 14.6971 10.5743L20.7928 10.0008C20.9832 9.98291 21.0761 10.2627 20.924 10.3961L15.7284 14.955C15.6803 14.9972 15.6178 15.0107 15.5597 14.9914L12.1383 13.8538C11.9976 13.807 11.9529 13.6026 12.0575 13.4844L14.5789 10.6365Z" fill="url(#paint4_linear_1_6444)"/>
<path d="M14.8717 11.06L19.9542 10.5819L15.5377 14.4571L12.6995 13.5135L14.8717 11.06Z" stroke="#19C2EF" stroke-opacity="0.55"/>
<path d="M10.8985 15.165C10.914 15.0502 11.0362 14.9753 11.1559 15.0075L14.999 16.0398C15.0857 16.0631 15.1453 16.1368 15.1453 16.2207V20.4004C15.1453 20.5262 15.2757 20.6166 15.4055 20.5809L20.7398 19.1126C20.8697 19.0769 21 19.1673 21 19.2931V21.948C21 22.0097 20.9675 22.0674 20.913 22.1026L14.9299 25.9663C14.8519 26.0167 14.7466 26.0099 14.6768 25.9501L10.0652 21.9944C10.0171 21.9533 9.99346 21.8931 10.0016 21.8328L10.8985 15.165Z" fill="url(#paint5_linear_1_6444)"/>
<path d="M15.5382 21.063L15.5382 21.063L20.5 19.6972V21.7741L14.8386 25.4301L10.5204 21.7262L11.3477 15.5767L14.6453 16.4626V20.4004C14.6453 20.9047 15.1382 21.1731 15.5382 21.063ZM10.3906 21.6148C10.3907 21.6149 10.3908 21.615 10.391 21.6151L10.3907 21.6149L10.3906 21.6148Z" stroke="#19C2EF" stroke-opacity="0.55"/>
</g>
<defs>
<radialGradient id="paint0_radial_1_6444" cx="0" cy="0" r="1" gradientUnits="userSpaceOnUse" gradientTransform="translate(19 19) rotate(90) scale(15)">
<stop stop-color="#054492" stop-opacity="0"/>
<stop offset="1" stop-color="#0974F8"/>
</radialGradient>
<linearGradient id="paint1_linear_1_6444" x1="19" y1="38" x2="19" y2="0" gradientUnits="userSpaceOnUse">
<stop stop-color="#0974F8"/>
<stop offset="1" stop-color="#4FB2FE"/>
</linearGradient>
<linearGradient id="paint2_linear_1_6444" x1="20.5" y1="24" x2="20.5" y2="28" gradientUnits="userSpaceOnUse">
<stop stop-color="#0974F8"/>
<stop offset="1" stop-color="#4FB2FE"/>
</linearGradient>
<linearGradient id="paint3_linear_1_6444" x1="22.5" y1="10" x2="22.5" y2="27" gradientUnits="userSpaceOnUse">
<stop stop-color="#0974F8"/>
<stop offset="1" stop-color="#4FB2FE"/>
</linearGradient>
<linearGradient id="paint4_linear_1_6444" x1="16.5" y1="10" x2="16.5" y2="15" gradientUnits="userSpaceOnUse">
<stop stop-color="#0974F8"/>
<stop offset="1" stop-color="#4FB2FE"/>
</linearGradient>
<linearGradient id="paint5_linear_1_6444" x1="15.5" y1="15" x2="15.5" y2="26" gradientUnits="userSpaceOnUse">
<stop stop-color="#0974F8"/>
<stop offset="1" stop-color="#4FB2FE"/>
</linearGradient>
<clipPath id="clip0_1_6444">
<rect width="18" height="18" fill="white" transform="translate(10 10)"/>
</clipPath>
</defs>
</svg>
