<svg width="194" height="17" viewBox="0 0 194 17" fill="none" xmlns="http://www.w3.org/2000/svg">
<path d="M194 1H156L148 9H19L12 16H2" stroke="url(#paint0_linear_1_10233)" stroke-width="1.25"/>
<g opacity="0.8">
<path d="M144.5 16.5H146.5V11.5H144.5V16.5Z" fill="url(#paint1_linear_1_10233)"/>
<path d="M139.5 16.5H141.5V11.5H139.5V16.5Z" fill="url(#paint2_linear_1_10233)"/>
<path d="M134.5 16.5H136.5V11.5H134.5V16.5Z" fill="url(#paint3_linear_1_10233)"/>
<path d="M129.5 16.5H131.5V11.5H129.5V16.5Z" fill="url(#paint4_linear_1_10233)"/>
<path d="M124.5 16.5H126.5V11.5H124.5V16.5Z" fill="url(#paint5_linear_1_10233)"/>
<path d="M119.5 16.5H121.5V11.5H119.5V16.5Z" fill="url(#paint6_linear_1_10233)"/>
<path d="M114.5 16.5H116.5V11.5H114.5V16.5Z" fill="url(#paint7_linear_1_10233)"/>
</g>
<rect width="10" height="3" rx="1.5" transform="matrix(-1 8.74228e-08 8.74228e-08 1 12 9)" fill="#1BDD15"/>
<g filter="url(#filter0_f_1_10233)">
<rect width="10" height="1.5" rx="0.75" transform="matrix(-1 8.74228e-08 8.74228e-08 1 12 9.75)" fill="#E2FFE1"/>
</g>
<defs>
<filter id="filter0_f_1_10233" x="-3.05176e-05" y="7.75" width="14" height="5.5" filterUnits="userSpaceOnUse" color-interpolation-filters="sRGB">
<feFlood flood-opacity="0" result="BackgroundImageFix"/>
<feBlend mode="normal" in="SourceGraphic" in2="BackgroundImageFix" result="shape"/>
<feGaussianBlur stdDeviation="1" result="effect1_foregroundBlur_1_10233"/>
</filter>
<linearGradient id="paint0_linear_1_10233" x1="18" y1="8.5" x2="194" y2="8.5" gradientUnits="userSpaceOnUse">
<stop stop-color="#19C2EF"/>
<stop offset="1" stop-color="#076CE9" stop-opacity="0"/>
</linearGradient>
<linearGradient id="paint1_linear_1_10233" x1="114.5" y1="14" x2="146.5" y2="14" gradientUnits="userSpaceOnUse">
<stop stop-color="#076CE9" stop-opacity="0"/>
<stop offset="1" stop-color="#19C2EF"/>
</linearGradient>
<linearGradient id="paint2_linear_1_10233" x1="114.5" y1="14" x2="146.5" y2="14" gradientUnits="userSpaceOnUse">
<stop stop-color="#076CE9" stop-opacity="0"/>
<stop offset="1" stop-color="#19C2EF"/>
</linearGradient>
<linearGradient id="paint3_linear_1_10233" x1="114.5" y1="14" x2="146.5" y2="14" gradientUnits="userSpaceOnUse">
<stop stop-color="#076CE9" stop-opacity="0"/>
<stop offset="1" stop-color="#19C2EF"/>
</linearGradient>
<linearGradient id="paint4_linear_1_10233" x1="114.5" y1="14" x2="146.5" y2="14" gradientUnits="userSpaceOnUse">
<stop stop-color="#076CE9" stop-opacity="0"/>
<stop offset="1" stop-color="#19C2EF"/>
</linearGradient>
<linearGradient id="paint5_linear_1_10233" x1="114.5" y1="14" x2="146.5" y2="14" gradientUnits="userSpaceOnUse">
<stop stop-color="#076CE9" stop-opacity="0"/>
<stop offset="1" stop-color="#19C2EF"/>
</linearGradient>
<linearGradient id="paint6_linear_1_10233" x1="114.5" y1="14" x2="146.5" y2="14" gradientUnits="userSpaceOnUse">
<stop stop-color="#076CE9" stop-opacity="0"/>
<stop offset="1" stop-color="#19C2EF"/>
</linearGradient>
<linearGradient id="paint7_linear_1_10233" x1="114.5" y1="14" x2="146.5" y2="14" gradientUnits="userSpaceOnUse">
<stop stop-color="#076CE9" stop-opacity="0"/>
<stop offset="1" stop-color="#19C2EF"/>
</linearGradient>
</defs>
</svg>
