<svg width="38" height="38" viewBox="0 0 38 38" fill="none" xmlns="http://www.w3.org/2000/svg">
<circle cx="19" cy="19" r="15" fill="url(#paint0_radial_1_204)" fill-opacity="0.3"/>
<path d="M38 19C38.0022 21.0758 37.6638 23.1379 36.998 25.1041L35.4664 24.5848C34.6056 27.1032 33.1808 29.3915 31.3008 31.2753C29.4208 33.1591 27.1352 34.5885 24.6186 35.4544L25.1413 36.9854C21.1589 38.3382 16.8412 38.3382 12.8589 36.9854L13.3814 35.4543C10.8648 34.5885 8.57934 33.1591 6.69937 31.2754C4.81939 29.3917 3.39464 27.1033 2.53384 24.585L1.0021 25.1043C-0.334034 21.1445 -0.334034 16.8555 1.0021 12.8957L2.53384 13.415C3.39654 10.8909 4.82576 8.59785 6.71192 6.71169C8.59808 4.82553 10.8911 3.39631 13.4152 2.53361L12.896 1.00195C16.8558 -0.334011 21.1445 -0.333981 25.1043 1.00203L24.5851 2.53376C27.1092 3.39649 29.4022 4.82573 31.2884 6.7119C33.1745 8.59808 34.6037 10.8911 35.4664 13.4152L36.998 12.8959C37.6638 14.8621 38.0023 16.9242 38 19ZM19 2.23139C15.6835 2.2314 12.4415 3.21486 9.68389 5.05742C6.92632 6.89997 4.77706 9.51887 3.50789 12.5829C2.23872 15.647 1.90665 19.0186 2.55367 22.2714C3.20069 25.5241 4.79774 28.512 7.14286 30.8571C9.48799 33.2023 12.4759 34.7993 15.7286 35.4463C18.9814 36.0933 22.353 35.7613 25.4171 34.4921C28.4811 33.2229 31.1 31.0737 32.9426 28.3161C34.7851 25.5585 35.7686 22.3165 35.7686 19C35.7636 14.5542 33.9953 10.292 30.8517 7.14833C27.708 4.0047 23.4458 2.2364 19 2.23139Z" fill="url(#paint1_linear_1_204)"/>
<g clip-path="url(#clip0_1_204)">
<path d="M22.1174 15.5331C22.6695 14.981 23.2175 13.6929 20.9173 15.2571C17.6491 17.5122 14.4278 19.6294 14.4278 19.6294C14.0962 19.7793 13.7377 19.8607 13.3739 19.8686C13.0101 19.8765 12.6484 19.8108 12.3106 19.6754C10.9305 19.2614 9.31939 18.7093 9.31939 18.7093C9.31939 18.7093 8.2193 18.0183 10.1024 17.2822C10.1024 17.2822 18.0641 14.0149 20.8253 12.8639C21.8834 12.4038 25.4727 10.9317 25.4727 10.9317C25.4727 10.9317 27.1298 10.2866 26.9918 11.8518C26.9458 12.4958 26.5778 14.752 26.2098 17.1902C25.6567 20.6415 25.0587 24.4158 25.0587 24.4158C25.0587 24.4158 24.9667 25.4739 24.1846 25.6579C23.3474 25.6437 22.5385 25.3525 21.8844 24.8298C21.7004 24.6918 18.4331 22.6207 17.236 21.6086C17.1143 21.5261 17.0153 21.4141 16.9484 21.2831C16.8816 21.1521 16.8489 21.0064 16.8535 20.8593C16.8581 20.7123 16.8998 20.5689 16.9747 20.4423C17.0496 20.3157 17.1554 20.2102 17.282 20.1355C18.9422 18.6173 20.9213 16.7302 22.1174 15.5331Z" fill="url(#paint2_linear_1_204)"/>
<path d="M14.1876 19.1889L14.1898 19.1875L14.2973 19.1166C14.3916 19.0545 14.5299 18.9631 14.7062 18.8464C15.0587 18.6131 15.5629 18.2783 16.1692 17.8732C17.3818 17.0628 19.002 15.9712 20.6334 14.8455L20.6362 14.8436L20.6362 14.8436C21.2202 14.4465 21.6619 14.2027 21.9903 14.0898C22.15 14.035 22.3336 13.9926 22.5154 14.0153C22.7299 14.0421 22.9468 14.1652 23.0485 14.4091C23.1299 14.6044 23.1006 14.7965 23.072 14.9114C23.0401 15.0396 22.9855 15.1639 22.9271 15.273C22.8103 15.4913 22.6429 15.7147 22.4711 15.8865C22.4711 15.8865 22.471 15.8866 22.471 15.8866L14.1876 19.1889ZM14.1876 19.1889C13.927 19.3015 13.647 19.3626 13.3631 19.3687C13.0666 19.3752 12.7719 19.3216 12.4967 19.2113L12.4758 19.203L12.4543 19.1965C11.7705 18.9914 11.0276 18.7514 10.4541 18.5623C10.1677 18.4678 9.92425 18.3862 9.7525 18.3283C9.66939 18.3003 9.60309 18.2778 9.55687 18.262C9.5503 18.2561 9.54338 18.2496 9.5365 18.2424C9.52255 18.228 9.51352 18.2164 9.50777 18.2081C9.51502 18.1974 9.52695 18.1822 9.5462 18.1621C9.63595 18.0687 9.84398 17.9201 10.2845 17.7479L10.2845 17.748L10.2923 17.7448L10.1024 17.2822L10.2924 17.7447L10.2926 17.7446L10.2937 17.7442L10.2981 17.7424L10.3152 17.7354L10.3824 17.7078L10.6398 17.6021L11.5796 17.2162C12.3692 16.8919 13.4507 16.4475 14.6186 15.9671C16.9539 15.0065 19.6358 13.9014 21.0177 13.3254L21.0177 13.3254L21.0247 13.3224C21.5486 13.0946 22.7057 12.6135 23.7368 12.1873C24.2512 11.9747 24.7327 11.7764 25.0855 11.6313L25.5063 11.4584L25.622 11.4109L25.6522 11.3985L25.6553 11.3972L14.1876 19.1889ZM9.49743 18.2278C9.49719 18.2278 9.49754 18.2261 9.49919 18.2226C9.49849 18.226 9.49766 18.2277 9.49743 18.2278Z" stroke="#19C2EF" stroke-opacity="0.55"/>
</g>
<defs>
<radialGradient id="paint0_radial_1_204" cx="0" cy="0" r="1" gradientUnits="userSpaceOnUse" gradientTransform="translate(19 19) rotate(90) scale(15)">
<stop stop-color="#054492" stop-opacity="0"/>
<stop offset="1" stop-color="#0974F8"/>
</radialGradient>
<linearGradient id="paint1_linear_1_204" x1="19" y1="38" x2="19" y2="0" gradientUnits="userSpaceOnUse">
<stop stop-color="#0974F8"/>
<stop offset="1" stop-color="#4FB2FE"/>
</linearGradient>
<linearGradient id="paint2_linear_1_204" x1="18" y1="10.8" x2="18" y2="25.6579" gradientUnits="userSpaceOnUse">
<stop stop-color="#0974F8"/>
<stop offset="1" stop-color="#4FB2FE"/>
</linearGradient>
<clipPath id="clip0_1_204">
<rect width="18" height="18" fill="white" transform="translate(9 9)"/>
</clipPath>
</defs>
</svg>
