<svg width="38" height="38" viewBox="0 0 38 38" fill="none" xmlns="http://www.w3.org/2000/svg">
<circle cx="19" cy="19" r="15" fill="url(#paint0_radial_1_214)" fill-opacity="0.3"/>
<path d="M38 19C38.0022 21.0758 37.6638 23.1379 36.998 25.1041L35.4664 24.5848C34.6056 27.1032 33.1808 29.3915 31.3008 31.2753C29.4208 33.1591 27.1352 34.5885 24.6186 35.4544L25.1413 36.9854C21.1589 38.3382 16.8412 38.3382 12.8589 36.9854L13.3814 35.4543C10.8648 34.5885 8.57934 33.1591 6.69937 31.2754C4.81939 29.3917 3.39464 27.1033 2.53384 24.585L1.0021 25.1043C-0.334034 21.1445 -0.334034 16.8555 1.0021 12.8957L2.53384 13.415C3.39654 10.8909 4.82576 8.59785 6.71192 6.71169C8.59808 4.82553 10.8911 3.39631 13.4152 2.53361L12.896 1.00195C16.8558 -0.334011 21.1445 -0.333981 25.1043 1.00203L24.5851 2.53376C27.1092 3.39649 29.4022 4.82573 31.2884 6.7119C33.1745 8.59808 34.6037 10.8911 35.4664 13.4152L36.998 12.8959C37.6638 14.8621 38.0023 16.9242 38 19ZM19 2.23139C15.6835 2.2314 12.4415 3.21486 9.68389 5.05742C6.92632 6.89997 4.77706 9.51887 3.50789 12.5829C2.23872 15.647 1.90665 19.0186 2.55367 22.2714C3.20069 25.5241 4.79774 28.512 7.14286 30.8571C9.48799 33.2023 12.4759 34.7993 15.7286 35.4463C18.9814 36.0933 22.353 35.7613 25.4171 34.4921C28.4811 33.2229 31.1 31.0737 32.9426 28.3161C34.7851 25.5585 35.7686 22.3165 35.7686 19C35.7636 14.5542 33.9953 10.292 30.8517 7.14833C27.708 4.0047 23.4458 2.2364 19 2.23139Z" fill="url(#paint1_linear_1_214)"/>
<mask id="path-3-inside-1_1_214" fill="white">
<path d="M20.5238 17.7757L26.4811 11H25.0699L19.895 16.882L15.7648 11H11L17.247 19.8955L11 27H12.4112L17.8726 20.787L22.2352 27H27.0001M12.9205 12.0413H15.0885L25.0688 26.0099H22.9003"/>
</mask>
<path d="M20.5238 17.7757L26.4811 11H25.0699L19.895 16.882L15.7648 11H11L17.247 19.8955L11 27H12.4112L17.8726 20.787L22.2352 27H27.0001M12.9205 12.0413H15.0885L25.0688 26.0099H22.9003" fill="url(#paint2_linear_1_214)"/>
<path d="M26.4811 11L27.2321 11.6603L28.6919 10H26.4811V11ZM25.0699 11V10H24.6178L24.3191 10.3395L25.0699 11ZM19.895 16.882L19.0766 17.4567L19.8066 18.4964L20.6458 17.5426L19.895 16.882ZM15.7648 11L16.5832 10.4254L16.2845 10H15.7648V11ZM11 11V10H9.07579L10.1816 11.5747L11 11ZM17.247 19.8955L17.9979 20.5559L18.5176 19.9649L18.0653 19.3208L17.247 19.8955ZM11 27L10.249 26.3397L8.7891 28H11V27ZM12.4112 27V28H12.8636L13.1623 27.6602L12.4112 27ZM17.8726 20.787L18.6909 20.2124L17.9606 19.1723L17.1215 20.1268L17.8726 20.787ZM22.2352 27L21.4168 27.5747L21.7155 28H22.2352V27ZM15.0885 12.0413L15.9022 11.4599L15.6031 11.0413H15.0885V12.0413ZM25.0688 26.0099V27.0099H27.0123L25.8825 25.4285L25.0688 26.0099ZM21.2748 18.436L27.2321 11.6603L25.7301 10.3397L19.7728 17.1154L21.2748 18.436ZM26.4811 10H25.0699V12H26.4811V10ZM24.3191 10.3395L19.1442 16.2215L20.6458 17.5426L25.8207 11.6605L24.3191 10.3395ZM20.7134 16.3074L16.5832 10.4254L14.9464 11.5746L19.0766 17.4567L20.7134 16.3074ZM15.7648 10H11V12H15.7648V10ZM10.1816 11.5747L16.4286 20.4702L18.0653 19.3208L11.8184 10.4253L10.1816 11.5747ZM16.496 19.2352L10.249 26.3397L11.751 27.6603L17.9979 20.5559L16.496 19.2352ZM11 28H12.4112V26H11V28ZM13.1623 27.6602L18.6236 21.4473L17.1215 20.1268L11.6601 26.3398L13.1623 27.6602ZM17.0542 21.3617L21.4168 27.5747L23.0536 26.4253L18.6909 20.2124L17.0542 21.3617ZM22.2352 28H27.0001V26H22.2352V28ZM12.9205 13.0413H15.0885V11.0413H12.9205V13.0413ZM14.2749 12.6226L24.2552 26.5912L25.8825 25.4285L15.9022 11.4599L14.2749 12.6226ZM25.0688 25.0099H22.9003V27.0099H25.0688V25.0099Z" fill="#19C2EF" fill-opacity="0.55" mask="url(#path-3-inside-1_1_214)"/>
<defs>
<radialGradient id="paint0_radial_1_214" cx="0" cy="0" r="1" gradientUnits="userSpaceOnUse" gradientTransform="translate(19 19) rotate(90) scale(15)">
<stop stop-color="#054492" stop-opacity="0"/>
<stop offset="1" stop-color="#0974F8"/>
</radialGradient>
<linearGradient id="paint1_linear_1_214" x1="19" y1="38" x2="19" y2="0" gradientUnits="userSpaceOnUse">
<stop stop-color="#0974F8"/>
<stop offset="1" stop-color="#4FB2FE"/>
</linearGradient>
<linearGradient id="paint2_linear_1_214" x1="19" y1="11" x2="19" y2="27" gradientUnits="userSpaceOnUse">
<stop stop-color="#0974F8"/>
<stop offset="1" stop-color="#4FB2FE"/>
</linearGradient>
</defs>
</svg>
