<svg width="38" height="38" viewBox="0 0 38 38" fill="none" xmlns="http://www.w3.org/2000/svg">
<circle cx="19" cy="19" r="15" fill="url(#paint0_radial_1_209)" fill-opacity="0.3"/>
<path d="M38 19C38.0022 21.0758 37.6638 23.1379 36.998 25.1041L35.4664 24.5848C34.6056 27.1032 33.1808 29.3915 31.3008 31.2753C29.4208 33.1591 27.1352 34.5885 24.6186 35.4544L25.1413 36.9854C21.1589 38.3382 16.8412 38.3382 12.8589 36.9854L13.3814 35.4543C10.8648 34.5885 8.57934 33.1591 6.69937 31.2754C4.81939 29.3917 3.39464 27.1033 2.53384 24.585L1.0021 25.1043C-0.334034 21.1445 -0.334034 16.8555 1.0021 12.8957L2.53384 13.415C3.39654 10.8909 4.82576 8.59785 6.71192 6.71169C8.59808 4.82553 10.8911 3.39631 13.4152 2.53361L12.896 1.00195C16.8558 -0.334011 21.1445 -0.333981 25.1043 1.00203L24.5851 2.53376C27.1092 3.39649 29.4022 4.82573 31.2884 6.7119C33.1745 8.59808 34.6037 10.8911 35.4664 13.4152L36.998 12.8959C37.6638 14.8621 38.0023 16.9242 38 19ZM19 2.23139C15.6835 2.2314 12.4415 3.21486 9.68389 5.05742C6.92632 6.89997 4.77706 9.51887 3.50789 12.5829C2.23872 15.647 1.90665 19.0186 2.55367 22.2714C3.20069 25.5241 4.79774 28.512 7.14286 30.8571C9.48799 33.2023 12.4759 34.7993 15.7286 35.4463C18.9814 36.0933 22.353 35.7613 25.4171 34.4921C28.4811 33.2229 31.1 31.0737 32.9426 28.3161C34.7851 25.5585 35.7686 22.3165 35.7686 19C35.7636 14.5542 33.9953 10.292 30.8517 7.14833C27.708 4.0047 23.4458 2.2364 19 2.23139Z" fill="url(#paint1_linear_1_209)"/>
<g clip-path="url(#clip0_1_209)">
<path fill-rule="evenodd" clip-rule="evenodd" d="M17.1896 21.3275V16.2769C18.9826 17.1206 20.3712 17.9356 22.0136 18.8143C20.659 19.5655 18.9826 20.4084 17.1896 21.3275ZM27.1819 13.765C26.8726 13.3575 26.3455 13.0403 25.7843 12.9353C24.1347 12.622 13.8439 12.6211 12.1952 12.9353C11.7452 13.0196 11.3445 13.2236 11.0002 13.5404C9.54967 14.8867 10.0042 22.1065 10.3538 23.276C10.5009 23.7822 10.6909 24.1473 10.9303 24.387C11.2387 24.7038 11.6609 24.922 12.1459 25.0198C13.5041 25.3007 20.5012 25.4578 25.7556 25.062C26.2397 24.9776 26.6682 24.7524 27.0062 24.4221C28.3473 23.0812 28.2559 15.4559 27.1819 13.765Z" fill="url(#paint2_linear_1_209)"/>
<path d="M16.6896 21.3275V22.1457L17.4177 21.7724C17.7492 21.6025 18.0774 21.4349 18.4007 21.2697C19.8196 20.5448 21.1453 19.8676 22.2561 19.2515L23.0588 18.8064L22.2495 18.3734C21.797 18.1313 21.3606 17.8922 20.9274 17.6549C19.8066 17.0408 18.7067 16.4381 17.4025 15.8245L16.6896 15.489V16.2769V21.3275ZM25.691 13.4265L25.6923 13.4267C26.1345 13.5095 26.5408 13.7581 26.7708 14.0506C26.9723 14.3814 27.1652 15.0707 27.3011 16.0254C27.4358 16.9708 27.5049 18.0996 27.4997 19.2225C27.4945 20.3465 27.415 21.4485 27.258 22.3426C27.1795 22.7899 27.0835 23.1739 26.973 23.4776C26.86 23.7882 26.7462 23.9741 26.6544 24.0668C26.3931 24.3213 26.0649 24.4958 25.6924 24.5653C23.0893 24.7603 20.0529 24.8194 17.4945 24.7947C16.2118 24.7823 15.0528 24.7488 14.1323 24.7012C13.1986 24.6529 12.5437 24.5915 12.2472 24.5301L12.2448 24.5297C11.8446 24.4489 11.5174 24.2733 11.2886 24.0382L11.2886 24.0382L11.284 24.0336C11.1279 23.8773 10.9692 23.602 10.834 23.1366L10.834 23.1366L10.8329 23.1328C10.7627 22.8979 10.6712 22.2776 10.6017 21.4108C10.5338 20.5624 10.4901 19.5235 10.5019 18.4802C10.5138 17.434 10.5812 16.3988 10.7305 15.5519C10.8052 15.1283 10.8981 14.7647 11.0086 14.476C11.1213 14.1813 11.2384 14.0018 11.3397 13.9075C11.6171 13.6524 11.9329 13.4932 12.2874 13.4267L12.2874 13.4267L12.2888 13.4264C12.6547 13.3567 13.5644 13.298 14.7981 13.2584C16.0137 13.2195 17.5006 13.1999 18.9894 13.2C20.4782 13.2001 21.9651 13.2197 23.1809 13.2587C24.4147 13.2983 25.3247 13.3569 25.691 13.4265Z" stroke="#19C2EF" stroke-opacity="0.55"/>
</g>
<defs>
<radialGradient id="paint0_radial_1_209" cx="0" cy="0" r="1" gradientUnits="userSpaceOnUse" gradientTransform="translate(19 19) rotate(90) scale(15)">
<stop stop-color="#054492" stop-opacity="0"/>
<stop offset="1" stop-color="#0974F8"/>
</radialGradient>
<linearGradient id="paint1_linear_1_209" x1="19" y1="38" x2="19" y2="0" gradientUnits="userSpaceOnUse">
<stop stop-color="#0974F8"/>
<stop offset="1" stop-color="#4FB2FE"/>
</linearGradient>
<linearGradient id="paint2_linear_1_209" x1="19" y1="12.7" x2="19" y2="25.3" gradientUnits="userSpaceOnUse">
<stop stop-color="#0974F8"/>
<stop offset="1" stop-color="#4FB2FE"/>
</linearGradient>
<clipPath id="clip0_1_209">
<rect width="18" height="18" fill="white" transform="translate(10 10)"/>
</clipPath>
</defs>
</svg>
