<svg width="70" height="56" viewBox="0 0 70 56" fill="none" xmlns="http://www.w3.org/2000/svg">
<path d="M28.4452 46.2798C28.3721 46.2799 28.2997 46.2655 28.2321 46.2375C28.1646 46.2095 28.1032 46.1685 28.0515 46.1168C27.9998 46.0651 27.9587 46.0038 27.9308 45.9362C27.9028 45.8687 27.8884 45.7962 27.8884 45.7231V40.526C27.8884 40.3784 27.947 40.2367 28.0514 40.1323C28.1559 40.0279 28.2975 39.9692 28.4451 39.9692C28.5928 39.9692 28.7344 40.0279 28.8389 40.1323C28.9433 40.2367 29.0019 40.3784 29.0019 40.526V45.7231C29.0019 45.7962 28.9875 45.8686 28.9596 45.9362C28.9316 46.0037 28.8906 46.0651 28.8389 46.1168C28.7872 46.1685 28.7258 46.2095 28.6583 46.2375C28.5907 46.2655 28.5183 46.2798 28.4452 46.2798Z" fill="#19C2EF"/>
<path d="M28.4452 16.0257C28.2976 16.0257 28.1559 15.9671 28.0515 15.8627C27.9471 15.7583 27.8884 15.6167 27.8884 15.469V10.2719C27.8884 10.1242 27.947 9.98258 28.0514 9.87816C28.1559 9.77375 28.2975 9.71509 28.4451 9.71509C28.5928 9.71509 28.7344 9.77375 28.8389 9.87816C28.9433 9.98258 29.0019 10.1242 29.0019 10.2719V15.469C29.0019 15.6166 28.9432 15.7582 28.8388 15.8626C28.7344 15.967 28.5929 16.0257 28.4452 16.0257Z" fill="#19C2EF"/>
<path d="M15.9166 28.5542H10.7196C10.5719 28.5542 10.4303 28.4955 10.3258 28.3911C10.2214 28.2867 10.1627 28.145 10.1627 27.9973C10.1627 27.8496 10.2214 27.708 10.3258 27.6035C10.4303 27.4991 10.5719 27.4404 10.7196 27.4404H15.9166C16.0643 27.4404 16.2059 27.4991 16.3103 27.6035C16.4148 27.708 16.4735 27.8496 16.4735 27.9973C16.4735 28.145 16.4148 28.2867 16.3103 28.3911C16.2059 28.4955 16.0643 28.5542 15.9166 28.5542Z" fill="#19C2EF"/>
<path d="M46.1708 28.5542H40.9739C40.8262 28.5542 40.6845 28.4955 40.5801 28.3911C40.4757 28.2867 40.417 28.145 40.417 27.9973C40.417 27.8496 40.4757 27.708 40.5801 27.6035C40.6845 27.4991 40.8262 27.4404 40.9739 27.4404H46.1708C46.3185 27.4404 46.4602 27.4991 46.5646 27.6035C46.6691 27.708 46.7277 27.8496 46.7277 27.9973C46.7277 28.145 46.6691 28.2867 46.5646 28.3911C46.4602 28.4955 46.3185 28.5542 46.1708 28.5542Z" fill="#19C2EF"/>
<path d="M15.9112 41.0883C15.801 41.0882 15.6934 41.0555 15.6018 40.9943C15.5103 40.9331 15.4389 40.8462 15.3968 40.7444C15.3547 40.6427 15.3436 40.5307 15.3651 40.4227C15.3866 40.3147 15.4397 40.2155 15.5176 40.1376L19.1924 36.4626C19.2441 36.4109 19.3055 36.3699 19.373 36.3419C19.4406 36.314 19.513 36.2996 19.5861 36.2996C19.6593 36.2996 19.7317 36.314 19.7992 36.342C19.8668 36.37 19.9282 36.411 19.9799 36.4627C20.0316 36.5144 20.0726 36.5758 20.1005 36.6434C20.1285 36.7109 20.1429 36.7833 20.1429 36.8564C20.1429 36.9296 20.1285 37.002 20.1005 37.0695C20.0725 37.1371 20.0315 37.1985 19.9798 37.2502L16.305 40.9252C16.2533 40.977 16.1919 41.018 16.1244 41.046C16.0568 41.074 15.9843 41.0884 15.9112 41.0883Z" fill="#19C2EF"/>
<path d="M37.6982 19.532L36.9107 18.7449L43.8187 11.8362H59.5592V12.9499H44.2803L37.6982 19.532Z" fill="#19C2EF"/>
<path d="M19.5861 19.6953C19.513 19.6954 19.4405 19.681 19.3729 19.653C19.3054 19.6251 19.244 19.584 19.1923 19.5322L15.5175 15.8572C15.4656 15.8056 15.4245 15.7442 15.3963 15.6766C15.3682 15.609 15.3537 15.5365 15.3536 15.4633C15.3536 15.3901 15.3679 15.3176 15.3959 15.2499C15.4239 15.1823 15.465 15.1208 15.5167 15.069C15.5685 15.0173 15.63 14.9762 15.6977 14.9482C15.7653 14.9203 15.8378 14.9059 15.911 14.906C15.9842 14.9061 16.0567 14.9206 16.1243 14.9488C16.1919 14.9769 16.2533 15.0181 16.3049 15.07L19.9797 18.745C20.0576 18.8228 20.1106 18.922 20.1321 19.03C20.1535 19.138 20.1425 19.2499 20.1004 19.3516C20.0583 19.4533 19.9869 19.5403 19.8954 19.6014C19.8038 19.6626 19.6962 19.6953 19.5861 19.6953Z" fill="#19C2EF"/>
<path d="M59.7958 43.6815H43.3417L36.9106 37.2502C36.8063 37.1458 36.7478 37.0042 36.7479 36.8566C36.7479 36.709 36.8066 36.5675 36.9109 36.4632C37.0152 36.3588 37.1567 36.3001 37.3043 36.3C37.4519 36.3 37.5935 36.3584 37.6979 36.4627L43.8031 42.5678H59.7958C59.9435 42.5678 60.0852 42.6264 60.1896 42.7309C60.294 42.8353 60.3527 42.977 60.3527 43.1246C60.3527 43.2723 60.294 43.414 60.1896 43.5184C60.0852 43.6228 59.9435 43.6815 59.7958 43.6815Z" fill="#19C2EF"/>
<path d="M28.4453 41.0829C25.8573 41.0829 23.3274 40.3154 21.1755 38.8776C19.0236 37.4397 17.3464 35.396 16.356 33.005C15.3656 30.6139 15.1065 27.9829 15.6114 25.4446C16.1164 22.9063 17.3626 20.5747 19.1927 18.7447C21.0227 16.9146 23.3543 15.6684 25.8927 15.1635C28.431 14.6586 31.062 14.9178 33.4531 15.9082C35.8441 16.8987 37.8877 18.5759 39.3256 20.7278C40.7634 22.8797 41.5308 25.4096 41.5307 27.9977C41.5268 31.4669 40.1468 34.7929 37.6937 37.246C35.2406 39.6991 31.9146 41.0789 28.4453 41.0829ZM28.4453 16.0258C26.0775 16.0258 23.7629 16.7279 21.7941 18.0434C19.8253 19.3588 18.2908 21.2286 17.3847 23.4161C16.4785 25.6037 16.2414 28.0108 16.7034 30.3331C17.1653 32.6555 18.3055 34.7887 19.9797 36.463C21.654 38.1373 23.7872 39.2775 26.1095 39.7394C28.4318 40.2014 30.839 39.9643 33.0265 39.0582C35.2141 38.1521 37.0839 36.6176 38.3994 34.6489C39.7148 32.6801 40.417 30.3655 40.417 27.9977C40.4134 24.8237 39.151 21.7807 36.9066 19.5363C34.6623 17.2919 31.6193 16.0295 28.4453 16.0258Z" fill="#19C2EF"/>
<path opacity="0.07" d="M28.4452 38.5396C26.3602 38.5396 24.3221 37.9213 22.5884 36.7629C20.8548 35.6046 19.5037 33.9582 18.7058 32.0319C17.9079 30.1056 17.6991 27.986 18.1059 25.9411C18.5126 23.8962 19.5167 22.0178 20.991 20.5435C22.4653 19.0692 24.3437 18.0651 26.3886 17.6584C28.4335 17.2516 30.5531 17.4604 32.4794 18.2583C34.4057 19.0562 36.0521 20.4073 37.2105 22.1409C38.3688 23.8745 38.9871 25.9127 38.9871 27.9977C38.9839 30.7926 37.8722 33.4721 35.8959 35.4484C33.9196 37.4247 31.2401 38.5364 28.4452 38.5396ZM28.4452 19.3721C26.7393 19.3721 25.0717 19.8779 23.6532 20.8256C22.2348 21.7733 21.1292 23.1204 20.4763 24.6964C19.8235 26.2724 19.6526 28.0067 19.9854 29.6798C20.3181 31.353 21.1396 32.8899 22.3458 34.0962C23.552 35.3025 25.0889 36.124 26.762 36.4569C28.4351 36.7898 30.1694 36.619 31.7455 35.9662C33.3215 35.3135 34.6687 34.208 35.6165 32.7896C36.5643 31.3712 37.0702 29.7036 37.0703 27.9977C37.0677 25.7109 36.1582 23.5185 34.5413 21.9015C32.9243 20.2844 30.732 19.3748 28.4452 19.3721Z" fill="white"/>
<path d="M28.4509 0.00412209L28.432 1.94395L27.998 1.93951L28.0169 0L28.4509 0.00412209Z" fill="#076CE9"/>
<path d="M26.9081 0.0199462L26.9962 1.95773L26.5625 1.97771L26.4744 0.0395701L26.9081 0.0199462Z" fill="#076CE9"/>
<path d="M25.3655 0.121536L25.5607 2.05139L25.1291 2.09512L24.9337 0.165223L25.3655 0.121536Z" fill="#076CE9"/>
<path d="M23.8368 0.307343L24.139 2.22381L23.7102 2.29125L23.4081 0.375131L23.8368 0.307343Z" fill="#076CE9"/>
<path d="M22.3201 0.577653L22.7281 2.47415L22.3037 2.56568L21.8958 0.669187L22.3201 0.577653Z" fill="#076CE9"/>
<path d="M20.8186 0.932538L21.3309 2.80356L20.9125 2.91813L20.4001 1.04711L20.8186 0.932538Z" fill="#076CE9"/>
<path d="M19.3407 1.36942L19.9559 3.20916L19.544 3.34678L18.929 1.50704L19.3407 1.36942Z" fill="#076CE9"/>
<path d="M17.8899 1.88695L18.6054 3.69022L18.2022 3.85021L17.4865 2.04694L17.8899 1.88695Z" fill="#076CE9"/>
<path d="M16.4694 2.48384L17.2831 4.24476L16.889 4.42677L16.0751 2.66585L16.4694 2.48384Z" fill="#076CE9"/>
<path d="M15.0773 3.16136L15.987 4.87483L15.6039 5.07819L14.6944 3.36473L15.0773 3.16136Z" fill="#076CE9"/>
<path d="M13.7364 3.90767L14.7381 5.56881L14.3667 5.79282L13.3648 4.13199L13.7364 3.90767Z" fill="#076CE9"/>
<path d="M12.4307 4.73068L13.5219 6.33474L13.1632 6.57866L12.0719 4.97498L12.4307 4.73068Z" fill="#076CE9"/>
<path d="M11.1727 5.62375L12.3505 7.16517L12.0052 7.42871L10.828 5.88729L11.1727 5.62375Z" fill="#076CE9"/>
<path d="M9.96607 6.5841L11.2264 8.05911L10.8962 8.34125L9.63612 6.86624L9.96607 6.5841Z" fill="#076CE9"/>
<path d="M8.81668 7.60665L10.1554 9.01045L9.84149 9.31014L8.50237 7.90634L8.81668 7.60665Z" fill="#076CE9"/>
<path d="M7.72328 8.69154L9.13723 10.02L8.83976 10.3362L7.42599 9.00775L7.72328 8.69154Z" fill="#076CE9"/>
<path d="M6.68934 9.83698L8.17418 11.0856L7.89461 11.4176L6.40995 10.1694L6.68934 9.83698Z" fill="#076CE9"/>
<path d="M5.72105 11.0364L7.27209 12.2011L7.01147 12.5482L5.46039 11.3835L5.72105 11.0364Z" fill="#076CE9"/>
<path d="M4.82039 12.2871L6.43355 13.3643L6.19252 13.7253L4.57937 12.648L4.82039 12.2871Z" fill="#076CE9"/>
<path d="M3.98977 13.5859L5.65986 14.5724L5.43916 14.946L3.76869 13.9593L3.98977 13.5859Z" fill="#076CE9"/>
<path d="M3.23148 14.9305L4.95425 15.8231L4.75452 16.2084L3.03193 15.3159L3.23148 14.9305Z" fill="#076CE9"/>
<path d="M2.55027 16.3136L4.3196 17.1088L4.1414 17.5048L2.37202 16.7093L2.55027 16.3136Z" fill="#076CE9"/>
<path d="M1.94656 17.7315L3.75702 18.4279L3.6015 18.8329L1.79087 18.1368L1.94656 17.7315Z" fill="#076CE9"/>
<path d="M1.42203 19.1818L3.26864 19.7767L3.13532 20.1896L1.28907 19.595L1.42203 19.1818Z" fill="#076CE9"/>
<path d="M0.979545 20.6562L2.8561 21.1482L2.746 21.5683L0.869304 21.0756L0.979545 20.6562Z" fill="#076CE9"/>
<path d="M0.617564 22.1564L2.518 22.5448L2.43098 22.9701L0.530504 22.5813L0.617564 22.1564Z" fill="#076CE9"/>
<path d="M0.340696 23.6663L2.25801 23.9615L2.19177 24.3903L0.274635 24.0954L0.340696 23.6663Z" fill="#076CE9"/>
<path d="M0.141932 25.2003L2.07369 25.3812L2.03293 25.813L0.101661 25.6324L0.141932 25.2003Z" fill="#076CE9"/>
<path d="M0.0289258 26.7348L1.96756 26.8101L1.95054 27.244L0.0122251 27.1687L0.0289258 26.7348Z" fill="#076CE9"/>
<path d="M0 28.2796L1.93983 28.2476L1.94673 28.6822L0.00722272 28.7134L0 28.2796Z" fill="#076CE9"/>
<path d="M0.0559423 29.8207L1.99098 29.682L2.02191 30.1145L0.0870521 30.2535L0.0559423 29.8207Z" fill="#076CE9"/>
<path d="M0.197281 31.3549L2.12133 31.1089L2.17618 31.539L0.252174 31.7853L0.197281 31.3549Z" fill="#076CE9"/>
<path d="M0.422981 32.8785L2.33029 32.5262L2.40928 32.9531L0.501584 33.3055L0.422981 32.8785Z" fill="#076CE9"/>
<path d="M0.733398 34.3886L2.61855 33.9313L2.7209 34.3532L0.835431 34.8104L0.733398 34.3886Z" fill="#076CE9"/>
<path d="M1.12771 35.882L2.98464 35.3208L3.11021 35.7365L1.25328 36.2973L1.12771 35.882Z" fill="#076CE9"/>
<path d="M1.60184 37.3453L3.42488 36.6827L3.57349 37.0904L1.75028 37.7531L1.60184 37.3453Z" fill="#076CE9"/>
<path d="M2.15801 38.785L3.94197 38.0225L4.11246 38.4213L2.32864 39.1837L2.15801 38.785Z" fill="#076CE9"/>
<path d="M2.79093 40.1878L4.53036 39.3287L4.72251 39.7178L2.98309 40.577L2.79093 40.1878Z" fill="#076CE9"/>
<path d="M3.50331 41.5603L5.19271 40.6069L5.40618 40.9851L3.71682 41.9385L3.50331 41.5603Z" fill="#076CE9"/>
<path d="M4.28636 42.8857L5.92101 41.8411L6.15481 42.2065L4.51998 43.2511L4.28636 42.8857Z" fill="#076CE9"/>
<path d="M5.13968 44.1641L6.71482 43.0322L6.96821 43.3845L5.39307 44.5171L5.13968 44.1641Z" fill="#076CE9"/>
<path d="M6.065 45.3988L7.57598 44.1821L7.84798 44.52L6.33717 45.737L6.065 45.3988Z" fill="#076CE9"/>
<path d="M7.05666 46.5812L8.49848 45.2834L8.78869 45.6058L7.34705 46.9036L7.05666 46.5812Z" fill="#076CE9"/>
<path d="M8.10859 47.7046L9.4773 46.3297L9.78488 46.636L8.41621 48.0108L8.10859 47.7046Z" fill="#076CE9"/>
<path d="M9.2224 48.7702L10.5137 47.3227L10.8374 47.6117L9.54615 49.0592L9.2224 48.7702Z" fill="#076CE9"/>
<path d="M10.3914 49.7718L11.6013 48.2555L11.9402 48.5259L10.7308 50.0422L10.3914 49.7718Z" fill="#076CE9"/>
<path d="M11.6168 50.71L12.741 49.129L13.0949 49.3805L11.9703 50.9615L11.6168 50.71Z" fill="#076CE9"/>
<path d="M12.8925 51.5791L13.9276 49.9389L14.2946 50.1701L13.2594 51.811L12.8925 51.5791Z" fill="#076CE9"/>
<path d="M14.2108 52.375L15.1536 50.6794L15.5331 50.89L14.5903 52.5859L14.2108 52.375Z" fill="#076CE9"/>
<path d="M15.5737 53.0968L16.421 51.3517L16.8115 51.5409L15.9642 53.2864L15.5737 53.0968Z" fill="#076CE9"/>
<path d="M16.9734 53.7416L17.7226 51.9525L18.1229 52.12L17.3739 53.9095L16.9734 53.7416Z" fill="#076CE9"/>
<path d="M18.4119 54.31L19.0603 52.4817L19.4694 52.6268L18.8208 54.4552L18.4119 54.31Z" fill="#076CE9"/>
<path d="M19.8706 54.7949L20.4173 52.9338L20.8336 53.0563L20.2871 54.917L19.8706 54.7949Z" fill="#076CE9"/>
<path d="M21.3624 55.2008L21.8058 53.3122L22.2285 53.4116L21.785 55.3002L21.3624 55.2008Z" fill="#076CE9"/>
<path d="M22.8682 55.5229L23.208 53.6134L23.6355 53.6894L23.2957 55.5993L22.8682 55.5229Z" fill="#076CE9"/>
<path d="M24.3845 55.7627L24.6171 53.837L25.0481 53.8889L24.8152 55.8147L24.3845 55.7627Z" fill="#076CE9"/>
<path d="M25.912 55.9195L26.044 53.9841L26.4772 54.0137L26.3452 55.9488L25.912 55.9195Z" fill="#076CE9"/>
<path d="M27.4526 55.9938L27.4781 54.054L27.9121 54.0598L27.8865 56L27.4526 55.9938Z" fill="#076CE9"/>
<path d="M28.9906 55.9835L28.9092 54.0454L29.3429 54.0272L29.4241 55.9653L28.9906 55.9835Z" fill="#076CE9"/>
<path d="M68.9172 23.6819H62.9122C62.7645 23.6819 62.6228 23.6232 62.5184 23.5188C62.414 23.4144 62.3553 23.2727 62.3553 23.125C62.3553 22.9773 62.414 22.8357 62.5184 22.7313C62.6228 22.6268 62.7645 22.5682 62.9122 22.5682H68.9172C69.0648 22.5682 69.2065 22.6268 69.3109 22.7313C69.4154 22.8357 69.474 22.9773 69.474 23.125C69.474 23.2727 69.4154 23.4144 69.3109 23.5188C69.2065 23.6232 69.0648 23.6819 68.9172 23.6819Z" fill="#076CE9"/>
<path d="M68.9172 33.4262H62.9122C62.7646 33.4262 62.623 33.3676 62.5186 33.2632C62.4142 33.1588 62.3555 33.0172 62.3555 32.8695C62.3555 32.7219 62.4142 32.5803 62.5186 32.4759C62.623 32.3715 62.7646 32.3128 62.9122 32.3128H68.9172C69.0648 32.3128 69.2064 32.3715 69.3108 32.4759C69.4152 32.5803 69.4739 32.7219 69.4739 32.8695C69.4739 33.0172 69.4152 33.1588 69.3108 33.2632C69.2064 33.3676 69.0648 33.4262 68.9172 33.4262Z" fill="#076CE9"/>
</svg>
