<svg width="82" height="82" viewBox="0 0 82 82" fill="none" xmlns="http://www.w3.org/2000/svg">
<g clip-path="url(#clip0_92_4768)">
<path d="M42.813 54.5445C35.6351 54.5445 29.7955 48.7049 29.7955 41.527C29.7955 34.3491 35.6351 28.5095 42.813 28.5095C49.9908 28.5095 55.8304 34.3491 55.8304 41.527C55.8304 48.7049 49.9908 54.5445 42.813 54.5445ZM18.9177 77.1954C14.98 77.1954 11.7763 73.9918 11.7763 70.0541C11.7763 66.1163 14.98 62.9127 18.9177 62.9127C22.8555 62.9127 26.0591 66.1163 26.0591 70.0541C26.0591 73.9918 22.8555 77.1954 18.9177 77.1954ZM5.479 13.3732C5.479 8.64856 9.32275 4.80481 14.0474 4.80481C18.771 4.80481 22.6141 8.64856 22.6141 13.3732C22.6141 18.0968 18.771 21.9399 14.0474 21.9399C9.32275 21.9399 5.479 18.0968 5.479 13.3732ZM71.4792 19.2989C74.2602 19.2989 76.5226 21.5613 76.5226 24.3423C76.5226 27.124 74.2602 29.3872 71.4792 29.3872C68.6975 29.3872 66.4343 27.124 66.4343 24.3423C66.4343 21.5613 68.6975 19.2989 71.4792 19.2989ZM64.3587 31.1369C66.1536 33.017 68.6812 34.1919 71.4792 34.1919C76.9097 34.1919 81.3272 29.7733 81.3272 24.3423C81.3272 18.912 76.9097 14.4943 71.4792 14.4943C66.0482 14.4943 61.6296 18.912 61.6296 24.3423C61.6296 25.2436 61.7539 26.1162 61.9817 26.9462L56.7612 30.4461C53.4934 26.3412 48.4555 23.7048 42.813 23.7048C38.61 23.7048 34.7431 25.1682 31.6924 27.6107L24.6417 21.5174C26.3808 19.2604 27.4188 16.4365 27.4188 13.3732C27.4188 5.99925 21.4205 0.00012207 14.0474 0.00012207C6.67345 0.00012207 0.674316 5.99925 0.674316 13.3732C0.674316 20.7461 6.67345 26.7446 14.0474 26.7446C16.6118 26.7446 19.009 26.0175 21.0465 24.7606L28.3738 31.0929C26.2468 34.0279 24.9908 37.6333 24.9908 41.527C24.9908 46.0068 26.6528 50.1053 29.3916 53.2397L24.4908 59.4922C22.8257 58.6101 20.9296 58.108 18.9177 58.108C12.3306 58.108 6.97166 63.467 6.97166 70.0541C6.97166 76.6411 12.3306 82.0001 18.9177 82.0001C25.5048 82.0001 30.8638 76.6411 30.8638 70.0541C30.8638 67.2121 29.8644 64.5999 28.2012 62.5471L33.0145 56.4062C35.828 58.2651 39.1959 59.3492 42.813 59.3492C52.6401 59.3492 60.6351 51.3542 60.6351 41.527C60.6351 39.0635 60.1325 36.7151 59.2247 34.579L64.3587 31.1369Z" fill="url(#paint0_linear_92_4768)"/>
<path d="M64.7203 30.7916L64.4298 30.4873L64.0802 30.7216L58.9463 34.1637L58.6028 34.394L58.7645 34.7745C59.6466 36.8501 60.1351 39.1321 60.1351 41.527C60.1351 51.0781 52.3639 58.8492 42.813 58.8492C39.2973 58.8492 36.0247 57.7958 33.2901 55.989L32.9054 55.7348L32.621 56.0977L27.8077 62.2386L27.5618 62.5522L27.8127 62.8618C29.4068 64.8294 30.3638 67.3314 30.3638 70.0541C30.3638 76.365 25.2286 81.5001 18.9177 81.5001C12.6068 81.5001 7.47166 76.365 7.47166 70.0541C7.47166 63.7431 12.6068 58.608 18.9177 58.608C20.8454 58.608 22.6614 59.0889 24.2568 59.9341L24.6263 60.1299L24.8844 59.8007L29.7851 53.5482L30.0405 53.2224L29.7681 52.9107C27.1056 49.8636 25.4908 45.8808 25.4908 41.527C25.4908 37.7426 26.7112 34.2391 28.7787 31.3863L29.048 31.0146L28.7008 30.7145L21.3734 24.3823L21.096 24.1426L20.784 24.3351C18.8227 25.5449 16.516 26.2446 14.0474 26.2446C6.94953 26.2446 1.17432 20.4699 1.17432 13.3732C1.17432 6.2754 6.94959 0.500122 14.0474 0.500122C21.1443 0.500122 26.9188 6.27534 26.9188 13.3732C26.9188 16.3215 25.9202 19.039 24.2456 21.2123L23.9571 21.5867L24.3148 21.8957L31.3655 27.989L31.6802 28.261L32.0049 28.001C34.9705 25.6266 38.7282 24.2048 42.813 24.2048C48.2962 24.2048 53.1926 26.7662 56.37 30.7576L56.657 31.118L57.0396 30.8614L62.2601 27.3616L62.5591 27.1611L62.4638 26.814C62.2475 26.0255 62.1296 25.1974 62.1296 24.3423C62.1296 19.1882 66.3242 14.9943 71.4792 14.9943C76.6335 14.9943 80.8272 19.1881 80.8272 24.3423C80.8272 29.4973 76.6334 33.6919 71.4792 33.6919C68.8242 33.6919 66.4254 32.5776 64.7203 30.7916ZM29.2955 41.527C29.2955 48.9811 35.359 55.0445 42.813 55.0445C50.2669 55.0445 56.3304 48.9811 56.3304 41.527C56.3304 34.073 50.2669 28.0095 42.813 28.0095C35.359 28.0095 29.2955 34.073 29.2955 41.527ZM11.2763 70.0541C11.2763 74.268 14.7038 77.6954 18.9177 77.6954C23.1316 77.6954 26.5591 74.268 26.5591 70.0541C26.5591 65.8402 23.1316 62.4127 18.9177 62.4127C14.7038 62.4127 11.2763 65.8402 11.2763 70.0541ZM14.0474 4.30481C9.04661 4.30481 4.979 8.37242 4.979 13.3732C4.979 18.373 9.04669 22.4399 14.0474 22.4399C19.0472 22.4399 23.1141 18.373 23.1141 13.3732C23.1141 8.3725 19.0472 4.30481 14.0474 4.30481ZM77.0226 24.3423C77.0226 21.2852 74.5363 18.7989 71.4792 18.7989C68.4215 18.7989 65.9343 21.285 65.9343 24.3423C65.9343 27.4002 68.4213 29.8872 71.4792 29.8872C74.5365 29.8872 77.0226 27.4 77.0226 24.3423Z" stroke="#19C2EF" stroke-opacity="0.55"/>
<path d="M71.9231 74.319C69.3859 74.319 67.3218 72.2549 67.3218 69.7177C67.3218 67.1815 69.3859 65.118 71.9231 65.118C74.4593 65.118 76.5228 67.1815 76.5228 69.7177C76.5228 72.2549 74.4593 74.319 71.9231 74.319ZM71.9231 60.3134C66.7366 60.3134 62.5171 64.5322 62.5171 69.7177C62.5171 74.9042 66.7366 79.1237 71.9231 79.1237C77.1086 79.1237 81.3274 74.9042 81.3274 69.7177C81.3274 64.5322 77.1086 60.3134 71.9231 60.3134Z" fill="url(#paint1_linear_92_4768)"/>
<path d="M66.8218 69.7177C66.8218 72.5311 69.1097 74.819 71.9231 74.819C74.7356 74.819 77.0228 72.5309 77.0228 69.7177C77.0228 66.9054 74.7354 64.618 71.9231 64.618C69.1099 64.618 66.8218 66.9052 66.8218 69.7177ZM63.0171 69.7177C63.0171 64.8084 67.0126 60.8134 71.9231 60.8134C76.8325 60.8134 80.8274 64.8083 80.8274 69.7177C80.8274 74.6282 76.8324 78.6237 71.9231 78.6237C67.0127 78.6237 63.0171 74.6281 63.0171 69.7177Z" stroke="#19C2EF" stroke-opacity="0.55"/>
</g>
<defs>
<linearGradient id="paint0_linear_92_4768" x1="41.0008" y1="0.00012207" x2="41.0008" y2="82.0001" gradientUnits="userSpaceOnUse">
<stop stop-color="#0974F8"/>
<stop offset="1" stop-color="#4FB2FE"/>
</linearGradient>
<linearGradient id="paint1_linear_92_4768" x1="71.9223" y1="60.3134" x2="71.9223" y2="79.1237" gradientUnits="userSpaceOnUse">
<stop stop-color="#0974F8"/>
<stop offset="1" stop-color="#4FB2FE"/>
</linearGradient>
<clipPath id="clip0_92_4768">
<rect width="82" height="82" fill="white"/>
</clipPath>
</defs>
</svg>
