<svg width="78" height="82" viewBox="0 0 78 82" fill="none" xmlns="http://www.w3.org/2000/svg">
<path d="M52.8231 48.9804L39.0007 56.9595L25.1782 48.9804V33.0194L39.0007 25.039L52.8231 33.0194V48.9804ZM57.6278 50.3675V31.6324C57.6278 30.7742 57.1699 29.9811 56.4266 29.552L40.2018 20.1845C39.4586 19.7552 38.5426 19.7552 37.7995 20.1845L21.5747 29.552C20.8314 29.9811 20.3735 30.7742 20.3735 31.6324V50.3675C20.3735 51.226 20.8314 52.019 21.5749 52.4481L37.7997 61.814C38.1712 62.0285 38.5859 62.1358 39.0007 62.1358C39.4153 62.1358 39.8301 62.0285 40.2017 61.814L56.4265 52.4481C57.1699 52.019 57.6278 51.226 57.6278 50.3675Z" fill="url(#paint0_linear_92_4774)"/>
<path d="M53.0731 49.4134L53.3231 49.2691V48.9804V33.0194V32.7307L53.0731 32.5864L39.2507 24.6059L39.0007 24.4616L38.7507 24.6059L24.9282 32.5864L24.6782 32.7307V33.0194V48.9804V49.2691L24.9283 49.4134L38.7507 57.3926L39.0007 57.5369L39.2506 57.3926L53.0731 49.4134ZM56.1766 29.985L56.1767 29.985C56.7652 30.3248 57.1278 30.9528 57.1278 31.6324V50.3675C57.1278 51.0473 56.7652 51.6753 56.1765 52.015L56.1765 52.0151L39.9517 61.381C39.6575 61.5508 39.3291 61.6358 39.0007 61.6358C38.6721 61.6358 38.3439 61.5508 38.0496 61.381C38.0496 61.381 38.0496 61.381 38.0496 61.381L21.8248 52.0151L21.8248 52.015C21.2361 51.6753 20.8735 51.0473 20.8735 50.3675V31.6324C20.8735 30.9528 21.2361 30.3248 21.8247 29.985L21.8247 29.985L38.0495 20.6175L38.0496 20.6174C38.6379 20.2776 39.3632 20.2776 39.9518 20.6175L39.9518 20.6175L56.1766 29.985Z" stroke="#19C2EF" stroke-opacity="0.55"/>
<path d="M46.4889 75.4367V68.1032L58.7263 61.0373L65.0774 64.7047L46.4889 75.4367ZM71.0831 62.6242L59.9274 56.1828C59.1842 55.7537 58.2682 55.7537 57.5249 56.1828L42.8854 64.636C42.1421 65.065 41.6842 65.8581 41.6842 66.7164V79.5976C41.6842 80.4559 42.1421 81.2491 42.8854 81.6782C43.2571 81.8928 43.6717 81.9999 44.0865 81.9999C44.5012 81.9999 44.9162 81.8928 45.2877 81.6782L71.0831 66.7853C71.8264 66.3562 72.2843 65.5631 72.2843 64.7048C72.2843 63.8466 71.8266 63.0535 71.0831 62.6242Z" fill="url(#paint1_linear_92_4774)"/>
<path d="M45.9889 76.3028L46.7389 75.8698L65.3274 65.1377L66.0774 64.7047L65.3275 64.2717L58.9763 60.6043L58.7263 60.4599L58.4763 60.6042L46.2389 67.6702L45.9889 67.8145V68.1032V75.4367V76.3028ZM70.8331 63.0572L70.8331 63.0573C71.4218 63.3971 71.7843 64.0251 71.7843 64.7048C71.7843 65.3845 71.4217 66.0125 70.8332 66.3522L70.8331 66.3522L45.0377 81.2452L45.0376 81.2452C44.7436 81.4151 44.4151 81.4999 44.0865 81.4999C43.7579 81.4999 43.4297 81.4151 43.1354 81.2452L43.1353 81.2452C42.5468 80.9054 42.1842 80.2773 42.1842 79.5976V66.7164C42.1842 66.0367 42.5468 65.4087 43.1353 65.069L43.1354 65.069L57.7749 56.6158C57.7749 56.6158 57.7749 56.6158 57.775 56.6158C58.3636 56.276 59.0889 56.276 59.6775 56.6158L70.8331 63.0572Z" stroke="#19C2EF" stroke-opacity="0.55"/>
<path d="M31.5095 75.4366L12.9211 64.7045L19.2723 61.0373L31.5095 68.1032V75.4366ZM35.113 64.6358L20.4736 56.1828C19.7303 55.7535 18.8142 55.7535 18.0711 56.1828L6.91541 62.6242C6.17196 63.0535 5.71423 63.8466 5.71423 64.7048C5.71423 65.5631 6.17212 66.356 6.91541 66.7851L32.7107 81.678C33.0822 81.8926 33.497 81.9999 33.9118 81.9999C34.3266 81.9999 34.7414 81.8926 35.113 81.678C35.8563 81.249 36.3142 80.4559 36.3142 79.5976V66.7162C36.3142 65.858 35.8563 65.065 35.113 64.6358Z" fill="url(#paint2_linear_92_4774)"/>
<path d="M31.2595 75.8696L32.0095 76.3026V75.4366V68.1032V67.8145L31.7595 67.6702L19.5223 60.6042L19.2723 60.4599L19.0222 60.6042L12.6711 64.2715L11.9211 64.7045L12.6711 65.1375L31.2595 75.8696ZM20.2236 56.6157L20.2236 56.6158L34.863 65.0688C35.4516 65.4087 35.8142 66.0366 35.8142 66.7162V79.5976C35.8142 80.2773 35.4516 80.9053 34.863 81.245L34.8629 81.2451C34.5687 81.415 34.2404 81.4999 33.9118 81.4999C33.5832 81.4999 33.2549 81.415 32.9607 81.2451L32.9607 81.245L7.16541 66.3521L7.16537 66.3521C6.57679 66.0123 6.21423 65.3844 6.21423 64.7048C6.21423 64.0251 6.5767 63.3971 7.1654 63.0573L7.16543 63.0572L18.3211 56.6158L18.3212 56.6157C18.9095 56.2759 19.635 56.2759 20.2236 56.6157Z" stroke="#19C2EF" stroke-opacity="0.55"/>
<path d="M11.7831 48.0648L5.43207 51.7319V30.2681L11.7831 33.9344V48.0648ZM16.5878 49.4518V32.5473C16.5878 31.6888 16.1299 30.8957 15.3864 30.4667L4.23074 24.0268C3.48745 23.5976 2.57168 23.5977 1.82839 24.027C1.08527 24.456 0.62738 25.2491 0.62738 26.1074V55.8932C0.62738 56.7515 1.08527 57.5446 1.82855 57.9738C2.20027 58.1883 2.61492 58.2956 3.02972 58.2956C3.44453 58.2956 3.85933 58.1883 4.2309 57.9737L15.3866 51.532C16.1299 51.103 16.5878 50.31 16.5878 49.4518Z" fill="url(#paint3_linear_92_4774)"/>
<path d="M12.0331 48.4978L12.2831 48.3535V48.0648V33.9344V33.6457L12.033 33.5014L5.68204 29.8351L4.93207 29.4021V30.2681V51.7319V52.598L5.68209 52.1649L12.0331 48.4978ZM15.1364 30.8997L15.1365 30.8997C15.7252 31.2395 16.0878 31.8674 16.0878 32.5473V49.4518C16.0878 50.1314 15.7252 50.7592 15.1366 51.099L15.1366 51.099L3.98087 57.5407L3.98082 57.5407C3.68664 57.7106 3.35831 57.7956 3.02972 57.7956C2.70125 57.7956 2.37305 57.7107 2.07859 57.5408C1.48997 57.2009 1.12738 56.5729 1.12738 55.8932V26.1074C1.12738 25.4277 1.48999 24.7997 2.0784 24.46L2.07843 24.4599C2.66706 24.12 3.3922 24.1199 3.9807 24.4598L3.98076 24.4598L15.1364 30.8997Z" stroke="#19C2EF" stroke-opacity="0.55"/>
<path d="M72.5687 51.7316L66.2175 48.0643V33.9339L72.5687 30.2676V51.7316ZM76.1722 24.0265C75.4289 23.5974 74.5133 23.5972 73.77 24.0263L62.6142 30.4662C61.8707 30.8952 61.4128 31.6885 61.4128 32.5468V49.4513C61.4128 50.3095 61.8707 51.1025 62.6139 51.5317L73.7699 57.9732C74.1414 58.1878 74.5562 58.2951 74.971 58.2951C75.3857 58.2951 75.8005 58.1878 76.1722 57.9733C76.9155 57.5441 77.3734 56.751 77.3734 55.8928V26.1069C77.3734 25.2486 76.9155 24.4555 76.1722 24.0265Z" fill="url(#paint4_linear_92_4774)"/>
<path d="M72.3187 52.1646L73.0687 52.5977V51.7316V30.2676V29.4016L72.3187 29.8346L65.9676 33.5009L65.7175 33.6452V33.9339V48.0643V48.353L65.9675 48.4973L72.3187 52.1646ZM62.8641 30.8992L62.8641 30.8992L74.02 24.4593C74.6085 24.1196 75.3336 24.1197 75.9222 24.4595C76.5108 24.7992 76.8734 25.4272 76.8734 26.1069V55.8928C76.8734 56.5723 76.5109 57.2003 75.9223 57.5402C75.6279 57.7101 75.2994 57.7951 74.971 57.7951C74.6424 57.7951 74.3141 57.7101 74.0199 57.5402L74.0199 57.5402L62.8639 51.0987C62.2754 50.7588 61.9128 50.1309 61.9128 49.4513V32.5468C61.9128 31.8671 62.2755 31.239 62.8641 30.8992Z" stroke="#19C2EF" stroke-opacity="0.55"/>
<path d="M31.5095 6.56361V13.897L19.2723 20.9615L12.9214 17.2954L31.5095 6.56361ZM6.91557 19.3761L18.0712 25.816C18.443 26.0304 18.8576 26.1377 19.2723 26.1377C19.6871 26.1377 20.1017 26.0304 20.4734 25.816L35.113 17.3645C35.8563 16.9353 36.3142 16.1424 36.3142 15.284V2.40259C36.3142 1.54431 35.8563 0.751217 35.113 0.322158C34.3697 -0.107061 33.4539 -0.107061 32.7107 0.322158L6.91541 15.2151C6.17212 15.6443 5.71423 16.4372 5.71423 17.2957C5.71423 18.154 6.17212 18.9471 6.91557 19.3761Z" fill="url(#paint5_linear_92_4774)"/>
<path d="M32.0095 6.56361V5.69759L31.2595 6.13059L12.6714 16.8623L11.9214 17.2954L12.6715 17.7284L19.0223 21.3945L19.2723 21.5388L19.5222 21.3945L31.7595 14.33L32.0095 14.1857V13.897V6.56361ZM7.16554 18.9431L7.16549 18.9431C6.57681 18.6033 6.21423 17.9753 6.21423 17.2957C6.21423 16.6159 6.5768 15.988 7.16544 15.6481L32.9607 0.755171L32.9607 0.75515C33.5493 0.415275 34.2744 0.415276 34.863 0.75515L34.863 0.755191C35.4516 1.09493 35.8142 1.72293 35.8142 2.40259V15.284C35.8142 15.9637 35.4516 16.5916 34.863 16.9316L20.2236 25.3829C20.2235 25.3829 20.2235 25.3829 20.2234 25.383C19.929 25.5528 19.6008 25.6377 19.2723 25.6377C18.9439 25.6377 18.6157 25.5528 18.3212 25.383C18.3212 25.3829 18.3211 25.3829 18.3211 25.3829L7.16554 18.9431Z" stroke="#19C2EF" stroke-opacity="0.55"/>
<path d="M46.4889 6.56361L65.0771 17.2954L58.7263 20.9615L46.4889 13.897V6.56361ZM42.8854 17.3645L57.5251 25.816C57.8968 26.0306 58.3115 26.1377 58.7263 26.1377C59.1409 26.1377 59.5557 26.0304 59.9273 25.816L71.083 19.3761C71.8264 18.9471 72.2843 18.154 72.2843 17.2957C72.2843 16.4372 71.8264 15.6441 71.0831 15.2151L45.2877 0.322158C44.5444 -0.107061 43.6287 -0.107061 42.8854 0.322158C42.1421 0.751217 41.6842 1.54431 41.6842 2.40259V15.284C41.6842 16.1424 42.1421 16.9353 42.8854 17.3645Z" fill="url(#paint6_linear_92_4774)"/>
<path d="M46.7389 6.13059L45.9889 5.69759V6.56361V13.897V14.1857L46.2389 14.33L58.4763 21.3945L58.7263 21.5388L58.9762 21.3945L65.3271 17.7284L66.0772 17.2954L65.3271 16.8623L46.7389 6.13059ZM57.7751 25.383L57.7751 25.383L43.1354 16.9316C43.1354 16.9315 43.1354 16.9315 43.1354 16.9315C42.5468 16.5916 42.1842 15.9637 42.1842 15.284V2.40259C42.1842 1.72293 42.5468 1.09493 43.1353 0.75519L43.1354 0.75515C43.724 0.415276 44.4491 0.415276 45.0377 0.75515L45.0377 0.755171L70.8331 15.6481L70.8332 15.6481C71.4217 15.9878 71.7843 16.6158 71.7843 17.2957C71.7843 17.9753 71.4217 18.6033 70.833 18.9431L70.833 18.9431L59.6773 25.3829C59.3831 25.5528 59.0547 25.6377 58.7263 25.6377C58.3976 25.6377 58.0694 25.5529 57.7751 25.383Z" stroke="#19C2EF" stroke-opacity="0.55"/>
<defs>
<linearGradient id="paint0_linear_92_4774" x1="39.0007" y1="19.8625" x2="39.0007" y2="62.1358" gradientUnits="userSpaceOnUse">
<stop stop-color="#0974F8"/>
<stop offset="1" stop-color="#4FB2FE"/>
</linearGradient>
<linearGradient id="paint1_linear_92_4774" x1="56.9843" y1="55.861" x2="56.9843" y2="81.9999" gradientUnits="userSpaceOnUse">
<stop stop-color="#0974F8"/>
<stop offset="1" stop-color="#4FB2FE"/>
</linearGradient>
<linearGradient id="paint2_linear_92_4774" x1="21.0142" y1="55.8608" x2="21.0142" y2="81.9999" gradientUnits="userSpaceOnUse">
<stop stop-color="#0974F8"/>
<stop offset="1" stop-color="#4FB2FE"/>
</linearGradient>
<linearGradient id="paint3_linear_92_4774" x1="8.60757" y1="23.705" x2="8.60757" y2="58.2956" gradientUnits="userSpaceOnUse">
<stop stop-color="#0974F8"/>
<stop offset="1" stop-color="#4FB2FE"/>
</linearGradient>
<linearGradient id="paint4_linear_92_4774" x1="69.3931" y1="23.7046" x2="69.3931" y2="58.2951" gradientUnits="userSpaceOnUse">
<stop stop-color="#0974F8"/>
<stop offset="1" stop-color="#4FB2FE"/>
</linearGradient>
<linearGradient id="paint5_linear_92_4774" x1="21.0142" y1="0.000244141" x2="21.0142" y2="26.1377" gradientUnits="userSpaceOnUse">
<stop stop-color="#0974F8"/>
<stop offset="1" stop-color="#4FB2FE"/>
</linearGradient>
<linearGradient id="paint6_linear_92_4774" x1="56.9843" y1="0.000244141" x2="56.9843" y2="26.1377" gradientUnits="userSpaceOnUse">
<stop stop-color="#0974F8"/>
<stop offset="1" stop-color="#4FB2FE"/>
</linearGradient>
</defs>
</svg>
