<svg width="82" height="82" viewBox="0 0 82 82" fill="none" xmlns="http://www.w3.org/2000/svg">
<g clip-path="url(#clip0_92_4793)">
<path d="M50.018 52.1713L45.4146 49.1473C45.2256 48.6477 45.0097 48.1346 44.7801 47.6353L45.8872 42.2352C46.0492 41.4792 45.8061 40.6961 45.2797 40.1696L41.864 36.7542C41.3104 36.2006 40.5411 35.9847 39.7985 36.1467L34.3983 37.2537C33.8988 37.0242 33.3859 36.8083 32.8864 36.6193L29.849 32.0159C29.4305 31.3679 28.715 30.9899 27.9455 30.9899H23.1259C22.3699 30.9899 21.6409 31.3814 21.2224 32.0159L18.185 36.6193C17.6854 36.8083 17.1723 37.0242 16.673 37.2537L11.2729 36.1467C10.5303 35.9982 9.7338 36.2278 9.20734 36.7542L5.7917 40.1698C5.23809 40.7235 5.02216 41.4928 5.18422 42.2354L6.29123 47.6355C6.04815 48.1351 5.84579 48.6479 5.6568 49.1475L1.03956 52.1713C0.391557 52.5898 0 53.3055 0 54.0748V58.8944C0 59.6504 0.391557 60.3794 1.03956 60.7979L5.64302 63.822C5.83201 64.3215 6.04794 64.8346 6.27744 65.3339L5.17043 70.7341C5.00838 71.49 5.25146 72.2731 5.77792 72.7996L9.19355 76.2152C9.74716 76.7688 10.5165 76.9848 11.2591 76.8227L16.6592 75.7157C17.1588 75.9452 17.6717 76.1611 18.1712 76.3501L21.2086 80.9536C21.6271 81.6016 22.3426 81.9932 23.1121 81.9932H27.9317C28.6877 81.9932 29.4167 81.6016 29.8352 80.9536L32.8726 76.3501C33.3722 76.1611 33.8853 75.9452 34.3846 75.7157L39.7847 76.8227C40.5273 76.9712 41.3238 76.7417 41.8503 76.2152L45.2659 72.7996C45.8195 72.246 46.0354 71.4767 45.8734 70.7341L44.7664 65.3339C45.0094 64.8344 45.2118 64.3215 45.4008 63.822L50.0042 60.7845C50.6523 60.3661 51.0302 59.6506 51.0302 58.8811V54.0615C51.0576 53.3055 50.666 52.5898 50.018 52.1713ZM46.5216 57.6794H46.508L42.2959 60.4604C41.8638 60.7574 41.5399 61.1759 41.3779 61.6485C41.1214 62.445 40.784 63.2281 40.3788 64.0245C40.1493 64.4971 40.0683 65.01 40.1898 65.5095L41.2158 70.464L39.5418 72.138L34.5873 71.112C34.0878 71.0174 33.5614 71.0851 33.0888 71.301C32.2923 71.706 31.4958 72.0436 30.7127 72.3001C30.2268 72.4621 29.7947 72.786 29.5247 73.2181L26.7437 77.4302H24.3676L21.5866 73.2181C21.2896 72.786 20.8711 72.4621 20.3986 72.3001C19.6021 72.0436 18.8056 71.7062 18.0225 71.301C17.5499 71.0715 17.037 70.9905 16.5239 71.112L11.5694 72.138L9.88186 70.4505L10.9214 65.496C11.016 64.9964 10.9484 64.4564 10.7324 63.9974C10.3275 63.2009 9.98982 62.4044 9.74695 61.6213C9.5849 61.1354 9.26101 60.7033 8.82893 60.4333L4.61682 57.6523V55.2762L8.82893 52.4952C9.26101 52.1983 9.5849 51.7798 9.74695 51.3072C10.0034 50.5107 10.3409 49.7276 10.746 48.9311C10.9755 48.4585 11.0565 47.9456 10.935 47.4461L9.90901 42.505L11.583 40.831L16.5375 41.857C17.037 41.9516 17.5771 41.8839 18.0361 41.668C18.8325 41.2631 19.6157 40.9254 20.4121 40.669C20.8981 40.5069 21.3302 40.183 21.6002 39.7509L24.3812 35.5388H26.7572L29.5382 39.7509C29.8352 40.183 30.2537 40.5069 30.7263 40.669C31.5228 40.9254 32.3192 41.2629 33.1023 41.668C33.5749 41.8975 34.0878 41.9785 34.6009 41.857L39.5554 40.831L41.2294 42.505L40.2034 47.4595C40.1088 47.959 40.1765 48.4855 40.3924 48.9445C40.7973 49.741 41.135 50.5374 41.3779 51.3206C41.5399 51.8201 41.8638 52.2386 42.2959 52.5086L46.5214 55.2896V57.6794H46.5216Z" fill="url(#paint0_linear_92_4793)"/>
<path d="M30.7127 72.3001L30.8709 72.7744C30.8704 72.7745 30.87 72.7747 30.8695 72.7748C30.4855 72.9033 30.1521 73.1576 29.9487 73.4831L29.942 73.4937L29.9419 73.4936L27.1609 77.7057L27.0127 77.9302H26.7437H24.3676H24.0986L23.9503 77.7057L21.1721 73.4977C20.9335 73.1522 20.6031 72.8999 20.2406 72.7745C19.4188 72.5096 18.6004 72.1626 17.7987 71.7482C17.4159 71.5636 17.0226 71.5078 16.6392 71.5986L16.6323 71.6002L16.6253 71.6017L11.6708 72.6276L11.4066 72.6823L11.2159 72.4916L9.52831 70.804L9.33694 70.6127L9.39251 70.3478L10.431 65.3984C10.5044 65.0052 10.4508 64.577 10.283 64.2167C9.87089 63.4052 9.52323 62.5866 9.27107 61.7749C9.14231 61.3922 8.88846 61.0601 8.56395 60.8573L8.55336 60.8507L8.55344 60.8506L4.34133 58.0696L4.11682 57.9213V57.6523V55.2762V55.0072L4.34133 54.859L8.54937 52.0807C8.89487 51.8421 9.14719 51.5117 9.27257 51.1491C9.53825 50.325 9.88571 49.52 10.2981 48.7087C10.4842 48.3237 10.5385 47.9313 10.4492 47.5643L10.4472 47.5561L10.4454 47.5478L9.41945 42.6066L9.36456 42.3423L9.55545 42.1514L11.2294 40.4774L11.4202 40.2867L11.6844 40.3414L16.6345 41.3665C17.0278 41.4401 17.4563 41.3864 17.8167 41.2186C18.6276 40.8067 19.4323 40.4593 20.2562 40.1939C20.6399 40.0654 20.9729 39.8111 21.1762 39.486L21.1828 39.4754L21.1829 39.4754L23.9639 35.2633L24.1121 35.0388H24.3812H26.7572H27.0263L27.1745 35.2633L29.9528 39.4713C30.1913 39.8169 30.5218 40.0692 30.8844 40.1946C31.7062 40.4595 32.5245 40.8065 33.3261 41.2208C33.7089 41.4055 34.1023 41.4613 34.4857 41.3705L34.4926 41.3688L34.4995 41.3674L39.454 40.3414L39.7182 40.2867L39.909 40.4774L41.583 42.1514L41.7737 42.3422L41.719 42.6064L40.6939 47.5565C40.6206 47.9485 40.6735 48.3638 40.8418 48.7252C41.2543 49.5374 41.6022 50.3568 41.8545 51.1693C41.9816 51.5589 42.2323 51.8793 42.5609 52.0846L42.5709 52.0908L42.5708 52.0909L46.7963 54.8719L47.0214 55.0201V55.2896V57.6794H46.5216L33.3055 71.7518M30.7127 72.3001C31.4958 72.0436 32.2923 71.706 33.0888 71.301M30.7127 72.3001C30.2268 72.4621 29.7947 72.786 29.5247 73.2181M30.7127 72.3001L29.5247 73.2181M33.0888 71.301L33.2966 71.7558C33.2995 71.7545 33.3025 71.7531 33.3055 71.7518M33.0888 71.301L33.3154 71.7467C33.3121 71.7484 33.3088 71.7501 33.3055 71.7518M33.0888 71.301C33.5614 71.0851 34.0878 71.0174 34.5873 71.112M33.3055 71.7518C33.6838 71.5811 34.1003 71.5296 34.4903 71.6026M34.5873 71.112L34.4859 71.6017L34.4903 71.6026M34.5873 71.112L39.5418 72.138L34.4903 71.6026M34.5873 71.112L34.4943 71.6033C34.493 71.6031 34.4917 71.6028 34.4903 71.6026M29.5247 73.2181L26.7437 77.4302H24.3676L29.5247 73.2181ZM49.7435 52.5892L49.7468 52.5914C50.2556 52.92 50.5512 53.4737 50.5306 54.0434L50.5302 54.0524V54.0615V58.8811C50.5302 59.4859 50.2342 60.0408 49.733 60.3645L49.7289 60.3672L45.1254 63.4046L44.9904 63.4937L44.9331 63.6451C44.7453 64.1416 44.5495 64.637 44.3168 65.1151L44.2424 65.2679L44.2766 65.4343L45.3836 70.8345L45.3835 70.8345L45.3849 70.8407C45.511 71.4188 45.3442 72.0142 44.9123 72.446L41.4967 75.8617C41.0938 76.2646 40.4695 76.4493 39.8841 76.3327C39.8836 76.3326 39.8832 76.3325 39.8827 76.3324L34.485 75.2259L34.3245 75.193L34.1757 75.2614C33.6861 75.4865 33.1837 75.6979 32.6957 75.8825L32.5444 75.9397L32.4553 76.0748L29.4178 80.6782L29.4152 80.6823C29.0891 81.1873 28.5185 81.4932 27.9317 81.4932H23.1121C22.5134 81.4932 21.9556 81.1886 21.6287 80.6823L21.626 80.6782L18.5885 76.0748L18.4994 75.9397L18.3481 75.8825C17.8602 75.6979 17.3579 75.4865 16.868 75.2614L16.7192 75.193L16.5588 75.2259L11.1587 76.3329L11.1587 76.3329L11.1525 76.3342C10.5743 76.4604 9.97893 76.2935 9.54711 75.8617L6.13148 72.446C5.72331 72.0379 5.53331 71.4267 5.65935 70.8389L5.66025 70.8345L6.76726 65.4343L6.80015 65.2739L6.73175 65.1251C6.50669 64.6355 6.29528 64.133 6.11067 63.6451L6.05322 63.4932L5.91754 63.4041L1.31408 60.38L1.31409 60.38L1.31082 60.3779C0.805896 60.0518 0.5 59.4812 0.5 58.8944V54.0748C0.5 53.4763 0.804531 52.9183 1.31082 52.5914L1.31349 52.5896L5.93074 49.5657L6.06687 49.4766L6.12445 49.3244C6.31231 48.8279 6.50813 48.3325 6.74082 47.8543L6.81516 47.7016L6.78104 47.5351L5.67403 42.135L5.67407 42.135L5.67272 42.1288C5.54655 41.5506 5.71344 40.9552 6.14526 40.5234L9.56089 37.1078C9.96383 36.7048 10.5882 36.5201 11.1737 36.6368C11.1741 36.6369 11.1744 36.6369 11.1748 36.637L16.5726 37.7436L16.733 37.7764L16.8818 37.708C17.3715 37.483 17.8739 37.2716 18.3619 37.087L18.5132 37.0297L18.6023 36.8947L21.6397 32.2912L21.6398 32.2912C21.9658 31.7969 22.538 31.4899 23.1259 31.4899H27.9455C28.5503 31.4899 29.1053 31.7859 29.429 32.2871L29.4289 32.2871L29.4316 32.2912L32.4691 36.8947L32.5582 37.0297L32.7095 37.087C33.1974 37.2716 33.6997 37.483 34.1896 37.7081L34.3384 37.7764L34.4988 37.7436L39.8989 36.6365L39.8989 36.6366L39.9051 36.6352C40.4833 36.5091 41.0787 36.6759 41.5105 37.1078L41.864 36.7542L41.5105 37.1078L44.9261 40.5232C45.3343 40.9313 45.5243 41.5425 45.3982 42.1304L45.3973 42.1348L44.2903 47.5349L44.2574 47.6953L44.3258 47.8441C44.5509 48.3338 44.7623 48.8362 44.9469 49.3242L45.0044 49.476L45.14 49.5652L49.7435 52.5892Z" stroke="#19C2EF" stroke-opacity="0.55"/>
<path d="M25.5423 46.2987C19.9262 46.2987 15.3633 50.8617 15.3633 56.4777C15.3633 62.0938 19.9262 66.6568 25.5423 66.6568C31.1584 66.6568 35.7213 62.0936 35.7213 56.4777C35.7213 50.8619 31.1584 46.2987 25.5423 46.2987ZM25.5423 62.1074C22.4507 62.1074 19.9126 59.5693 19.9126 56.4777C19.9126 53.3726 22.4507 50.8481 25.5423 50.8481C28.6338 50.8481 31.1719 53.3862 31.1719 56.4777C31.1584 59.5964 28.6338 62.1074 25.5423 62.1074Z" fill="url(#paint1_linear_92_4793)"/>
<path d="M31.6719 56.4799V56.4777C31.6719 53.1101 28.9099 50.3481 25.5423 50.3481C22.1754 50.3481 19.4126 53.0957 19.4126 56.4777C19.4126 59.8454 22.1746 62.6074 25.5423 62.6074C28.9104 62.6074 31.6572 59.8726 31.6719 56.4799ZM15.8633 56.4777C15.8633 51.1378 20.2023 46.7987 25.5423 46.7987C30.8822 46.7987 35.2213 51.138 35.2213 56.4777C35.2213 61.8175 30.8822 66.1568 25.5423 66.1568C20.2023 66.1568 15.8633 61.8177 15.8633 56.4777Z" stroke="#19C2EF" stroke-opacity="0.55"/>
<path d="M80.9604 16.5985L77.5179 14.344C77.4099 14.0334 77.2748 13.7365 77.1263 13.4395L77.9633 9.40304C78.1254 8.64707 77.8823 7.86396 77.3558 7.3375L74.7097 4.69141C74.1561 4.1378 73.3868 3.92187 72.6442 4.08392L68.5941 4.8804C68.2836 4.7455 67.9866 4.62396 67.6897 4.48884L65.4352 1.04627C65.0167 0.398271 64.3012 0.00671387 63.5317 0.00671387H59.7652C59.0092 0.00671387 58.2802 0.398271 57.8617 1.04627L55.6072 4.48884C55.2966 4.59681 54.9997 4.73192 54.7027 4.8804L50.6662 4.04341C49.9236 3.88135 49.1272 4.12443 48.6007 4.6509L45.9546 7.29699C45.401 7.8506 45.1851 8.61993 45.3471 9.36253L46.1841 13.399C46.0492 13.7095 45.9277 14.0065 45.7926 14.3035L42.35 16.558C41.702 16.9765 41.324 17.6919 41.324 18.4615V22.2279C41.324 22.9839 41.7156 23.7129 42.35 24.1314L45.7926 26.386C45.9005 26.6965 46.0356 26.9935 46.1841 27.2904L45.3471 31.3269C45.1851 32.0829 45.4282 32.866 45.9546 33.3924L48.6007 36.0519C49.1543 36.6055 49.9236 36.8214 50.6662 36.6594L54.7027 35.8224C55.0133 35.9573 55.3102 36.0788 55.6072 36.214L57.8617 39.6565C58.2802 40.3045 58.9957 40.6825 59.7652 40.6825H63.5317C64.2876 40.6825 65.0167 40.2909 65.4352 39.6565L67.6897 36.214C68.0002 36.106 68.2972 35.9709 68.6077 35.8224L72.6442 36.6594C73.4002 36.8079 74.1833 36.5784 74.7097 36.0519L77.3558 33.3924C77.9092 32.8388 78.1254 32.0695 77.9633 31.3269L77.1263 27.2904C77.2612 26.9799 77.3828 26.6829 77.5179 26.3724L80.9604 24.1179C81.6084 23.6994 82 22.9839 82 22.2144V18.4479C81.9864 17.7325 81.5949 17.0306 80.9604 16.5985ZM77.4774 21.013H77.4369V21.0265L74.3858 23.0246C73.9538 23.3216 73.6299 23.7401 73.4678 24.2127C73.2788 24.7932 73.0357 25.3871 72.7252 25.9813C72.4821 26.4538 72.4147 26.9667 72.5362 27.4798L73.2788 31.0573L72.3608 31.9753L68.7833 31.2327C68.2838 31.1381 67.7573 31.2058 67.2848 31.4217C66.6909 31.7322 66.0967 31.9753 65.5162 32.1643C65.0167 32.3264 64.5982 32.6503 64.3281 33.0823L62.3167 36.1469H61.0207L59.0226 33.0959C58.7256 32.6638 58.3071 32.3399 57.8346 32.1779C57.254 31.9889 56.6601 31.7458 56.066 31.4353C55.5934 31.1922 55.0805 31.1248 54.5674 31.2463L50.9899 31.9889L50.0719 31.0709L50.8145 27.4934C50.9091 26.9939 50.8415 26.4674 50.6255 26.0084C50.315 25.4145 50.0721 24.8204 49.8829 24.2398C49.7209 23.7539 49.397 23.3218 48.9649 23.0518L45.9003 21.0132V19.7172L48.9513 17.7191C49.3834 17.4221 49.7073 17.0036 49.8693 16.5311C50.0583 15.9505 50.3014 15.3566 50.6119 14.7625C50.855 14.2899 50.9225 13.777 50.8009 13.2639L50.0583 9.68642L50.9764 8.7684L54.5538 9.51101C55.0534 9.60561 55.5798 9.53795 56.0388 9.32201C56.6327 9.01148 57.2269 8.7684 57.8074 8.57941C58.2934 8.41736 58.7254 8.09346 58.9954 7.66139L60.9935 4.61038H62.2895L64.2876 7.66139C64.5846 8.09346 65.0031 8.41736 65.4757 8.57941C66.0562 8.7684 66.6501 9.01148 67.2443 9.32201C67.6897 9.56509 68.2297 9.63255 68.7292 9.51101L72.3067 8.7684L73.2247 9.68642L72.5498 13.2639C72.4552 13.7634 72.5229 14.3035 72.7657 14.7625C73.0763 15.343 73.3193 15.9369 73.5083 16.5311C73.6704 17.0306 73.9943 17.4491 74.4263 17.7191L77.4774 19.7172V21.013Z" fill="url(#paint2_linear_92_4793)"/>
<path d="M77.9774 21.513H77.6067L74.6647 23.4397C74.3193 23.6784 74.0672 24.0088 73.942 24.3714C73.7453 24.9748 73.4923 25.5927 73.1691 26.2114C72.9793 26.5811 72.9297 26.9718 73.0228 27.3646L73.026 27.3782L73.0258 27.3782L73.7684 30.9557L73.8233 31.22L73.6324 31.4109L72.7144 32.3289L72.5235 32.5197L72.2592 32.4649L68.6862 31.7232C68.2971 31.6504 67.8815 31.7015 67.5039 31.8714C66.8877 32.1926 66.272 32.4441 65.671 32.6398L65.6705 32.6399C65.2795 32.7667 64.958 33.0179 64.7522 33.3473L64.7463 33.3568L64.7461 33.3567L62.7347 36.4213L62.5866 36.6469H62.3167H61.0207H60.7505L60.6024 36.4208L58.6076 33.3748C58.3689 33.0294 58.0384 32.7772 57.6758 32.652C57.0724 32.4554 56.4545 32.2024 55.8359 31.8792C55.4662 31.6894 55.0755 31.6398 54.6827 31.7328L54.6691 31.736L54.669 31.7359L51.0916 32.4785L50.8273 32.5333L50.6364 32.3424L49.7184 31.4244L49.5275 31.2336L49.5823 30.9693L50.324 27.3963C50.3972 27.0051 50.3447 26.5909 50.1772 26.2301C49.8556 25.6136 49.6041 24.9975 49.4081 24.3964M77.9774 21.513L49.8829 24.2398M77.9774 21.513V21.013M77.9774 21.513V21.013M49.4081 24.3964C49.4079 24.3959 49.4077 24.3953 49.4075 24.3948L49.8829 24.2398M49.4081 24.3964C49.4083 24.397 49.4084 24.3975 49.4086 24.398L49.8829 24.2398M49.4081 24.3964C49.2797 24.0125 49.0253 23.6791 48.6999 23.4758L48.6939 23.472L48.688 23.4681L45.6234 21.4295L45.4003 21.2811V21.0132V19.7172V19.4469L45.6264 19.2989L48.6725 17.304M49.8829 24.2398C49.7209 23.7539 49.397 23.3218 48.9649 23.0518L45.9003 21.0132V19.7172L48.9513 17.7191M48.6725 17.304C48.671 17.305 48.6696 17.306 48.6681 17.307L48.9513 17.7191M48.6725 17.304L48.6774 17.3008L48.9513 17.7191M48.6725 17.304C49.0178 17.0654 49.27 16.7349 49.3952 16.3723M48.9513 17.7191C49.3834 17.4221 49.7073 17.0036 49.8693 16.5311M49.8693 16.5311L49.3939 16.3763C49.3943 16.3749 49.3948 16.3736 49.3952 16.3723M49.8693 16.5311L49.3964 16.3689C49.396 16.37 49.3956 16.3711 49.3952 16.3723M49.8693 16.5311L73.9848 16.3795C73.9847 16.3791 73.9846 16.3787 73.9844 16.3783M49.3952 16.3723C49.5919 15.7689 49.8448 15.151 50.168 14.5324C50.3578 14.1627 50.4075 13.772 50.3144 13.3791L50.3112 13.3656L50.3114 13.3655L49.5688 9.78805L49.5139 9.52374L49.7048 9.33287L50.6228 8.41485L50.8137 8.22398L51.078 8.27884L54.6509 9.0205C55.0421 9.09369 55.4563 9.04114 55.8171 8.87372C56.4336 8.55217 57.0496 8.30039 57.6509 8.10454C58.0348 7.9761 58.3681 7.72177 58.5714 7.39641L58.5771 7.3874L58.5772 7.38746L60.5753 4.33645L60.7233 4.11038H60.9935H62.2895H62.5598L62.7078 4.33645L64.7027 7.38251C64.9413 7.72789 65.2718 7.98007 65.6344 8.10527C66.2383 8.30208 66.8567 8.5553 67.4759 8.87889L67.4838 8.88304L67.4838 8.88311C67.8172 9.06506 68.2293 9.11806 68.611 9.02518L68.6193 9.02317L68.6276 9.02144L72.2051 8.27884L72.4694 8.22398L72.6603 8.41485L73.5783 9.33287L73.765 9.51961L73.7161 9.77912L73.0411 13.3566L73.0411 13.3569C72.9661 13.7528 73.0215 14.1761 73.2072 14.5276C73.533 15.1369 73.7872 15.7586 73.9844 16.3783M73.9844 16.3783C74.1114 16.7686 74.3624 17.0895 74.6913 17.2951M73.9844 16.3783L74.6913 17.2951M77.9774 21.013V19.7172V19.4469L77.7513 19.2989L74.7003 17.3008L74.7003 17.3007M77.9774 21.013L74.7003 17.3007M74.7003 17.3007L74.6913 17.2951M74.7003 17.3007L74.6913 17.2951M77.0456 14.5082L77.1015 14.669L77.2439 14.7623L80.6826 17.0142C81.1891 17.3608 81.4882 17.9135 81.5 18.4529V22.2144C81.5 22.8131 81.1955 23.3709 80.6892 23.6978L80.6865 23.6996L77.2439 25.9541L77.119 26.0359L77.0594 26.1729C76.9906 26.331 76.9254 26.4853 76.8614 26.6369L76.8589 26.6429C76.7955 26.7931 76.7331 26.9407 76.6677 27.0912L76.6045 27.2366L76.6367 27.3919L77.4737 31.4284L77.4748 31.4335C77.601 32.0116 77.434 32.607 77.0022 33.039L77.0014 33.0398L74.3562 35.6983C74.3561 35.6984 74.3561 35.6984 74.356 35.6985C73.9532 36.1013 73.3421 36.2861 72.7429 36.1692C72.7421 36.1691 72.7413 36.1689 72.7406 36.1688L68.7092 35.3328L68.5441 35.2986L68.392 35.3713C68.0851 35.5181 67.8087 35.6432 67.5255 35.7417L67.3647 35.7976L67.2714 35.94L65.0178 39.3812C65.0176 39.3815 65.0174 39.3818 65.0172 39.3821C64.691 39.8758 64.1191 40.1825 63.5317 40.1825H59.7652C59.1604 40.1825 58.6054 39.8865 58.2817 39.3853L58.28 39.3826L56.0255 35.94L55.9461 35.8188L55.8142 35.7588C55.6189 35.67 55.4176 35.5842 55.2192 35.4998C55.1121 35.4542 55.0059 35.4089 54.902 35.3638L54.7565 35.3006L54.6012 35.3328L50.5647 36.1698L50.5596 36.1709C49.9817 36.297 49.3864 36.1303 48.9547 35.6987C48.9545 35.6986 48.9544 35.6985 48.9543 35.6983L46.3091 33.0398L46.3082 33.0389C45.9 32.6307 45.71 32.0196 45.836 31.4317L45.8367 31.4284L46.6737 27.3919L46.7089 27.222L46.6313 27.0668C46.4878 26.7798 46.363 26.5041 46.2648 26.2218L46.2089 26.061L46.0665 25.9677L42.6253 23.7141C42.6251 23.7139 42.6249 23.7138 42.6247 23.7136C42.1308 23.3876 41.824 22.8155 41.824 22.2279V18.4615C41.824 17.8567 42.12 17.3017 42.6213 16.978L42.6239 16.9763L46.0665 14.7217L46.1877 14.6424L46.2477 14.5105C46.3365 14.3152 46.4223 14.1138 46.5068 13.9154C46.5524 13.8083 46.5976 13.7021 46.6427 13.5982L46.7059 13.4528L46.6737 13.2975L45.8367 9.26101L45.8367 9.261L45.8356 9.25593C45.7095 8.67776 45.8763 8.08236 46.3082 7.65054L48.9543 5.00445C49.3623 4.59644 49.9861 4.40674 50.5596 4.53191L50.5596 4.53194L50.5647 4.53299L54.6012 5.36999L54.7711 5.40522L54.9263 5.32761C55.2133 5.18411 55.489 5.05927 55.7714 4.96111L55.9322 4.9052L56.0255 4.76278L58.28 1.32021L58.2817 1.31753C58.6078 0.812608 59.1784 0.506714 59.7652 0.506714H63.5317C64.1304 0.506714 64.6881 0.811222 65.0151 1.31754L65.0169 1.3202L67.2714 4.76278L67.3508 4.88396L67.4826 4.94395C67.678 5.03283 67.8794 5.11859 68.0777 5.20305C68.1848 5.24864 68.291 5.29386 68.3949 5.33899L68.5378 5.40106L68.6906 5.371L72.7407 4.57452L72.7407 4.57463L72.7508 4.57242C73.329 4.44625 73.9244 4.61314 74.3562 5.04496L77.0023 7.69105C77.4104 8.09921 77.6004 8.71038 77.4744 9.29824L77.4737 9.30152L76.6367 13.338L76.6015 13.5079L76.6791 13.6631C76.8226 13.9501 76.9475 14.2258 77.0456 14.5082Z" stroke="#19C2EF" stroke-opacity="0.55"/>
<path d="M61.6418 11.9543C56.9978 11.9543 53.2177 15.7344 53.2177 20.3784C53.2177 25.0223 56.9978 28.8024 61.6418 28.8024C66.2857 28.8024 70.0658 25.0223 70.0658 20.3784C70.0658 15.7344 66.2857 11.9543 61.6418 11.9543ZM61.6418 24.253C59.5088 24.253 57.7671 22.5116 57.7671 20.3784C57.7671 18.2454 59.5085 16.5037 61.6418 16.5037C63.7747 16.5037 65.5164 18.2452 65.5164 20.3784C65.5162 22.5116 63.7747 24.253 61.6418 24.253Z" fill="url(#paint3_linear_92_4793)"/>
<path d="M66.0164 20.3784V20.3784C66.0164 17.969 64.0509 16.0037 61.6418 16.0037C59.2324 16.0037 57.2671 17.9692 57.2671 20.3784C57.2671 22.7877 59.2326 24.753 61.6418 24.753C64.0509 24.753 66.0162 22.7877 66.0164 20.3784ZM53.7177 20.3784C53.7177 16.0105 57.2739 12.4543 61.6418 12.4543C66.0096 12.4543 69.5658 16.0105 69.5658 20.3784C69.5658 24.7462 66.0096 28.3024 61.6418 28.3024C57.2739 28.3024 53.7177 24.7462 53.7177 20.3784Z" stroke="#19C2EF" stroke-opacity="0.55"/>
</g>
<defs>
<linearGradient id="paint0_linear_92_4793" x1="25.5158" y1="30.9899" x2="25.5158" y2="81.9932" gradientUnits="userSpaceOnUse">
<stop stop-color="#0974F8"/>
<stop offset="1" stop-color="#4FB2FE"/>
</linearGradient>
<linearGradient id="paint1_linear_92_4793" x1="25.5423" y1="46.2987" x2="25.5423" y2="66.6568" gradientUnits="userSpaceOnUse">
<stop stop-color="#0974F8"/>
<stop offset="1" stop-color="#4FB2FE"/>
</linearGradient>
<linearGradient id="paint2_linear_92_4793" x1="61.662" y1="0.00671387" x2="61.662" y2="40.6825" gradientUnits="userSpaceOnUse">
<stop stop-color="#0974F8"/>
<stop offset="1" stop-color="#4FB2FE"/>
</linearGradient>
<linearGradient id="paint3_linear_92_4793" x1="61.6418" y1="11.9543" x2="61.6418" y2="28.8024" gradientUnits="userSpaceOnUse">
<stop stop-color="#0974F8"/>
<stop offset="1" stop-color="#4FB2FE"/>
</linearGradient>
<clipPath id="clip0_92_4793">
<rect width="82" height="82" fill="white"/>
</clipPath>
</defs>
</svg>
