<svg width="82" height="82" viewBox="0 0 82 82" fill="none" xmlns="http://www.w3.org/2000/svg">
<path fill-rule="evenodd" clip-rule="evenodd" d="M41 5.67016C38.7316 5.67016 36.8927 7.50903 36.8927 9.77739C36.8927 12.0458 38.7316 13.8846 41 13.8846C43.2684 13.8846 45.1073 12.0458 45.1073 9.77739C45.1073 7.50903 43.2684 5.67016 41 5.67016ZM48.4112 16.1551C49.8859 14.443 50.7775 12.2143 50.7775 9.77739C50.7775 4.37749 46.3999 0 41 0C35.6001 0 31.2225 4.37749 31.2225 9.77739C31.2225 12.2143 32.1141 14.443 33.5888 16.1551C32.896 16.6235 32.2445 17.1599 31.6446 17.7597C29.1634 20.2409 27.7695 23.6061 27.7695 27.115H33.4397C33.4397 25.1099 34.2363 23.1869 35.6541 21.7691C37.0719 20.3513 38.9949 19.5548 41 19.5548C43.0051 19.5548 44.9281 20.3513 46.3459 21.7691C47.7637 23.1869 48.5603 25.1099 48.5603 27.115H54.2305C54.2305 23.6061 52.8366 20.2409 50.3554 17.7597C49.7555 17.1599 49.104 16.6235 48.4112 16.1551ZM25.5758 13.1328C20.9026 15.7079 16.9524 19.4173 14.0889 23.9195C11.2254 28.4218 9.54069 33.572 9.18983 38.8962L3.5319 38.5233C3.94531 32.25 5.93041 26.1815 9.3044 20.8766C12.6784 15.5717 17.3329 11.2009 22.8392 8.16668L25.5758 13.1328ZM67.9111 23.9195C65.0476 19.4173 61.0974 15.7079 56.4242 13.1328L59.1608 8.16668C64.6671 11.2009 69.3216 15.5717 72.6956 20.8766C76.0696 26.1815 78.0547 32.25 78.4681 38.5233L72.8102 38.8962C72.4593 33.5721 70.7746 28.4218 67.9111 23.9195ZM13.2305 47.2877C10.9622 47.2877 9.12328 49.1266 9.12328 51.3949C9.12328 53.6619 10.9599 55.4999 13.2263 55.5022C13.235 55.5021 13.2436 55.5021 13.2523 55.5021C15.5107 55.4904 17.3378 53.656 17.3378 51.3949C17.3378 49.1266 15.4989 47.2877 13.2305 47.2877ZM20.6551 57.7571C22.1219 56.0471 23.008 53.8245 23.008 51.3949C23.008 45.995 18.6305 41.6175 13.2305 41.6175C7.83059 41.6175 3.45307 45.995 3.45307 51.3949C3.45307 53.8319 4.34462 56.0606 5.81934 57.7727C5.11697 58.2476 4.46019 58.7901 3.8588 59.3936C2.62964 60.627 1.65605 62.091 0.993882 63.7015C0.331715 65.3121 -0.00600779 67.0375 8.08831e-05 68.7788L5.67025 68.759C5.66677 67.7639 5.85976 66.778 6.23814 65.8577C6.61652 64.9374 7.17285 64.1008 7.87523 63.396C8.57762 62.6912 9.41224 62.1319 10.3312 61.7503C11.2502 61.3687 12.2355 61.1723 13.2305 61.1723C13.2427 61.1723 13.2548 61.1723 13.2669 61.1723C14.2552 61.1723 15.234 61.366 16.1479 61.7427C17.07 62.1227 17.9077 62.6814 18.6129 63.3866C19.3181 64.0918 19.8768 64.9295 20.2568 65.8515C20.6368 66.7736 20.8307 67.7617 20.8272 68.7589L26.4973 68.7788C26.5035 67.0336 26.1642 65.3044 25.4992 63.6908C24.8341 62.0773 23.8564 60.6112 22.6223 59.3772C22.0188 58.7736 21.3597 58.2314 20.6551 57.7571ZM68.7695 47.2877C66.5011 47.2877 64.6622 49.1266 64.6622 51.3949C64.6622 53.656 66.4893 55.4904 68.7477 55.5021C68.7564 55.5021 68.765 55.5021 68.7737 55.5022C71.0401 55.4999 72.8767 53.6619 72.8767 51.3949C72.8767 49.1266 71.0378 47.2877 68.7695 47.2877ZM76.1807 57.7727C77.6554 56.0606 78.5469 53.8319 78.5469 51.3949C78.5469 45.995 74.1694 41.6175 68.7695 41.6175C63.3695 41.6175 58.992 45.995 58.992 51.3949C58.992 53.8245 59.8781 56.0471 61.3449 57.7571C60.6403 58.2314 59.9812 58.7736 59.3777 59.3772C58.1436 60.6113 57.1659 62.0773 56.5008 63.6908C55.8358 65.3044 55.4965 67.0336 55.5027 68.7788L61.1728 68.7589C61.1693 67.7617 61.3632 66.7736 61.7432 65.8515C62.1232 64.9295 62.6819 64.0918 63.3871 63.3866C64.0923 62.6814 64.93 62.1227 65.8521 61.7427C66.766 61.366 67.7448 61.1723 68.7331 61.1723C68.7452 61.1723 68.7573 61.1723 68.7695 61.1723C69.7645 61.1723 70.7498 61.3687 71.6688 61.7503C72.5878 62.1319 73.4224 62.6912 74.1248 63.396C74.8272 64.1008 75.3835 64.9374 75.7619 65.8577C76.1403 66.778 76.3332 67.7639 76.3298 68.759L81.9999 68.7788C82.006 67.0375 81.6683 65.3121 81.0061 63.7015C80.3439 62.091 79.3704 60.627 78.1412 59.3936C77.5398 58.7901 76.883 58.2476 76.1807 57.7727ZM53.0475 73.9597L55.1954 79.2073C46.0981 82.9309 35.9019 82.9309 26.8046 79.2073L28.9525 73.9597C36.6733 77.1199 45.3267 77.1199 53.0475 73.9597Z" fill="url(#paint0_linear_92_4809)"/>
<path d="M48.0324 15.8288L47.6657 16.2546L48.1311 16.5693C48.7977 17.02 49.4246 17.5361 50.0018 18.1133C52.2711 20.3826 53.5952 23.4204 53.7207 26.615H49.0448C48.9233 24.6597 48.0928 22.8089 46.6995 21.4156C45.1879 19.904 43.1377 19.0548 41 19.0548C38.8623 19.0548 36.8121 19.904 35.3005 21.4156C33.9072 22.8089 33.0767 24.6597 32.9552 26.615H28.2793C28.4048 23.4204 29.7289 20.3826 31.9982 18.1133C32.5754 17.5361 33.2023 17.02 33.8689 16.5693L34.3343 16.2546L33.9676 15.8288C32.5681 14.204 31.7225 12.0901 31.7225 9.77739C31.7225 4.65364 35.8762 0.5 41 0.5C46.1238 0.5 50.2775 4.65364 50.2775 9.77739C50.2775 12.0901 49.4319 14.204 48.0324 15.8288ZM13.2258 56.0022L13.2279 56.0021L13.2529 56.0021L13.2549 56.0021C15.7882 55.989 17.8378 53.9313 17.8378 51.3949C17.8378 48.8504 15.7751 46.7877 13.2305 46.7877C10.686 46.7877 8.62328 48.8504 8.62328 51.3949C8.62328 53.9379 10.6835 55.9996 13.2258 56.0022ZM20.2756 57.4316L19.9098 57.8581L20.3759 58.1719C21.0539 58.6283 21.688 59.15 22.2688 59.7307C23.4562 60.9182 24.397 62.3288 25.0369 63.8814C25.6132 65.2797 25.9353 66.7682 25.9893 68.277L21.3134 68.2606C21.2611 67.3683 21.0606 66.4896 20.7191 65.661C20.3139 64.678 19.7182 63.7848 18.9664 63.033C18.2146 62.2812 17.3215 61.6856 16.3384 61.2804C15.3641 60.8788 14.3206 60.6723 13.2669 60.6722L13.265 60.6723L13.2305 60.6723C12.1697 60.6723 11.1192 60.8817 10.1395 61.2886C9.15972 61.6954 8.2699 62.2916 7.52107 63.0431C6.77223 63.7945 6.1791 64.6864 5.7757 65.6675C5.4358 66.4943 5.23622 67.3706 5.18403 68.2607L0.508152 68.277C0.56204 66.7719 0.882631 65.287 1.45632 63.8917C2.09347 62.342 3.03026 60.9334 4.21297 59.7465C4.79163 59.1659 5.42359 58.6439 6.09942 58.1869L6.5649 57.8721L6.19818 57.4464C4.79866 55.8216 3.95307 53.7076 3.95307 51.3949C3.95307 46.2712 8.10673 42.1175 13.2305 42.1175C18.3543 42.1175 22.508 46.2712 22.508 51.3949C22.508 53.7006 21.6675 55.8088 20.2756 57.4316ZM68.7451 56.0021L68.7471 56.0021L68.7721 56.0022H68.7742C71.3165 55.9996 73.3767 53.9379 73.3767 51.3949C73.3767 48.8504 71.314 46.7877 68.7695 46.7877C66.2249 46.7877 64.1622 48.8504 64.1622 51.3949C64.1622 53.9313 66.2118 55.989 68.7451 56.0021ZM75.8018 57.4464L75.4351 57.8721L75.9006 58.1869C76.5764 58.6438 77.2084 59.1659 77.787 59.7465C78.9697 60.9334 79.9065 62.342 80.5437 63.8917C81.1174 65.287 81.438 66.7719 81.4918 68.277L76.816 68.2607C76.7638 67.3707 76.5642 66.4943 76.2243 65.6675C75.8209 64.6864 75.2278 63.7945 74.4789 63.0431C73.7301 62.2916 72.8403 61.6954 71.8605 61.2886C70.8808 60.8817 69.8303 60.6723 68.7695 60.6723L68.735 60.6723H68.7331C67.6794 60.6723 66.6359 60.8788 65.6616 61.2804C64.6785 61.6856 63.7854 62.2812 63.0336 63.033C62.2818 63.7849 61.6861 64.678 61.2809 65.661C60.9394 66.4896 60.7389 67.3683 60.6866 68.2606L56.0107 68.277C56.0647 66.7682 56.3868 65.2797 56.9631 63.8814C57.603 62.3288 58.5438 60.9182 59.7312 59.7307C60.312 59.15 60.9461 58.6283 61.6241 58.1719L62.0902 57.8581L61.7244 57.4316C60.3325 55.8088 59.492 53.7006 59.492 51.3949C59.492 46.2712 63.6456 42.1175 68.7695 42.1175C73.8933 42.1175 78.0469 46.2712 78.0469 51.3949C78.0469 53.7076 77.2013 55.8215 75.8018 57.4464ZM41 5.17016C38.4555 5.17016 36.3927 7.23289 36.3927 9.77739C36.3927 12.3219 38.4555 14.3846 41 14.3846C43.5445 14.3846 45.6073 12.3219 45.6073 9.77739C45.6073 7.23289 43.5445 5.17016 41 5.17016ZM24.8984 12.9396C20.3419 15.5431 16.486 19.2189 13.667 23.6512C10.848 28.0835 9.15373 33.1342 8.72766 38.3646L4.06707 38.0575C4.545 32.0452 6.48681 26.2383 9.7263 21.1449C12.9658 16.0515 17.4017 11.8308 22.6442 8.84886L24.8984 12.9396ZM68.333 23.6512C65.514 19.2189 61.6581 15.5431 57.1016 12.9396L59.3558 8.84886C64.5983 11.8308 69.0342 16.0515 72.2737 21.1449C75.5132 26.2383 77.455 32.0452 77.9329 38.0575L73.2723 38.3646C72.8463 33.1342 71.152 28.0835 68.333 23.6512ZM29.2273 74.6083C36.7959 77.5704 45.2041 77.5704 52.7727 74.6083L54.542 78.9309C45.8394 82.3564 36.1606 82.3564 27.458 78.9309L29.2273 74.6083Z" stroke="#19C2EF" stroke-opacity="0.55"/>
<defs>
<linearGradient id="paint0_linear_92_4809" x1="41" y1="0" x2="41" y2="82" gradientUnits="userSpaceOnUse">
<stop stop-color="#0974F8"/>
<stop offset="1" stop-color="#4FB2FE"/>
</linearGradient>
</defs>
</svg>
