<svg width="20" height="71" viewBox="0 0 20 71" fill="none" xmlns="http://www.w3.org/2000/svg">
<path fill-rule="evenodd" clip-rule="evenodd" d="M18.6126 35.1231L9.97375 1.10767L10.3977 1L19.0366 35.0155C19.1173 35.3334 19.1173 35.6666 19.0366 35.9845L10.3977 70L9.97375 69.8923L18.6126 35.8768C18.6754 35.6295 18.6754 35.3705 18.6126 35.1231Z" fill="url(#paint0_radial_282_235)" fill-opacity="0.5"/>
<g filter="url(#filter0_f_282_235)">
<path fill-rule="evenodd" clip-rule="evenodd" d="M17.7378 35.1231L9.09894 1.10767L9.52289 1L18.1617 35.0155C18.2425 35.3334 18.2425 35.6666 18.1617 35.9845L9.52289 70L9.09894 69.8923L17.7378 35.8768C17.8006 35.6295 17.8006 35.3705 17.7378 35.1231Z" fill="url(#paint1_radial_282_235)" fill-opacity="0.2"/>
</g>
<g filter="url(#filter1_f_282_235)">
<path fill-rule="evenodd" clip-rule="evenodd" d="M8.45527 35.2306L1 5.90435L1.36587 5.81152L8.82114 35.1378C8.89083 35.4119 8.89083 35.6991 8.82114 35.9732L1.36587 65.2995L1 65.2067L8.45527 35.8804C8.50948 35.6672 8.50948 35.4438 8.45527 35.2306Z" fill="url(#paint2_radial_282_235)" fill-opacity="0.13"/>
</g>
<path fill-rule="evenodd" clip-rule="evenodd" d="M9.33009 35.2306L1.87482 5.90435L2.24069 5.81152L9.69596 35.1378C9.76565 35.4119 9.76565 35.6991 9.69596 35.9732L2.24069 65.2995L1.87482 65.2067L9.33009 35.8804C9.38429 35.6672 9.38429 35.4438 9.33009 35.2306Z" fill="url(#paint3_radial_282_235)" fill-opacity="0.2"/>
<defs>
<filter id="filter0_f_282_235" x="8.09894" y="0" width="11.1234" height="71" filterUnits="userSpaceOnUse" color-interpolation-filters="sRGB">
<feFlood flood-opacity="0" result="BackgroundImageFix"/>
<feBlend mode="normal" in="SourceGraphic" in2="BackgroundImageFix" result="shape"/>
<feGaussianBlur stdDeviation="0.5" result="effect1_foregroundBlur_282_235"/>
</filter>
<filter id="filter1_f_282_235" x="0" y="4.81152" width="9.87341" height="61.4883" filterUnits="userSpaceOnUse" color-interpolation-filters="sRGB">
<feFlood flood-opacity="0" result="BackgroundImageFix"/>
<feBlend mode="normal" in="SourceGraphic" in2="BackgroundImageFix" result="shape"/>
<feGaussianBlur stdDeviation="0.5" result="effect1_foregroundBlur_282_235"/>
</filter>
<radialGradient id="paint0_radial_282_235" cx="0" cy="0" r="1" gradientUnits="userSpaceOnUse" gradientTransform="translate(14.5598 35.5) rotate(90) scale(34.4462 34.4462)">
<stop stop-color="#19C2EF"/>
<stop offset="1" stop-color="#076CE9" stop-opacity="0"/>
</radialGradient>
<radialGradient id="paint1_radial_282_235" cx="0" cy="0" r="1" gradientUnits="userSpaceOnUse" gradientTransform="translate(13.685 35.5) rotate(90) scale(34.4462 34.4462)">
<stop stop-color="#19C2EF"/>
<stop offset="1" stop-color="#076CE9" stop-opacity="0"/>
</radialGradient>
<radialGradient id="paint2_radial_282_235" cx="0" cy="0" r="1" gradientUnits="userSpaceOnUse" gradientTransform="translate(4.95777 35.5555) rotate(90) scale(29.6976 29.7268)">
<stop stop-color="#19C2EF"/>
<stop offset="1" stop-color="#076CE9" stop-opacity="0"/>
</radialGradient>
<radialGradient id="paint3_radial_282_235" cx="0" cy="0" r="1" gradientUnits="userSpaceOnUse" gradientTransform="translate(5.83258 35.5555) rotate(90) scale(29.6976 29.7268)">
<stop stop-color="#19C2EF"/>
<stop offset="1" stop-color="#076CE9" stop-opacity="0"/>
</radialGradient>
</defs>
</svg>
