<svg width="49" height="33" viewBox="0 0 49 33" fill="none" xmlns="http://www.w3.org/2000/svg">
<ellipse opacity="0.55" cx="24.5531" cy="16.5003" rx="16.5177" ry="16.3333" fill="url(#paint0_radial_282_286)"/>
<path d="M36.607 16.5C36.6084 17.8022 36.3937 19.0958 35.9713 20.3292L34.9997 20.0034C34.4536 21.5832 33.5497 23.0188 32.357 24.2005C31.1644 25.3822 29.7144 26.2789 28.1179 26.8221L28.4495 27.7825C25.9231 28.6311 23.184 28.6311 20.6577 27.7825L20.9892 26.822C19.3927 26.2789 17.9428 25.3822 16.7501 24.2005C15.5575 23.0188 14.6536 21.5833 14.1076 20.0036L13.1358 20.3294C12.2882 17.8453 12.2882 15.1548 13.1358 12.6707L14.1076 12.9965C14.6549 11.4131 15.5615 9.97464 16.7581 8.79143C17.9547 7.60822 19.4093 6.71165 21.0106 6.17047L20.6812 5.20964C23.1933 4.37158 25.914 4.3716 28.4261 5.20969L28.0967 6.17057C29.6979 6.71177 31.1526 7.60834 32.3492 8.79156C33.5457 9.97478 34.4524 11.4132 34.9997 12.9966L35.9713 12.6708C36.3937 13.9043 36.6084 15.1978 36.607 16.5ZM24.5535 5.98088C22.4496 5.98089 20.3929 6.59783 18.6435 7.75369C16.8941 8.90954 15.5306 10.5524 14.7255 12.4745C13.9203 14.3966 13.7097 16.5117 14.1201 18.5522C14.5306 20.5927 15.5438 22.467 17.0315 23.9381C18.5192 25.4093 20.4147 26.4111 22.4782 26.817C24.5418 27.2229 26.6807 27.0146 28.6245 26.2184C30.5683 25.4222 32.2297 24.074 33.3986 22.3441C34.5675 20.6143 35.1914 18.5805 35.1914 16.5C35.1882 13.7111 34.0664 11.0374 32.0721 9.06534C30.0778 7.0933 27.3739 5.98403 24.5535 5.98088Z" fill="url(#paint1_linear_282_286)"/>
<path d="M7.85714 20.887C8.40322 22.4668 9.30707 23.9023 10.4997 25.084L10.7811 24.8216C9.29334 23.3505 8.28018 21.4761 7.86972 19.4356C7.45926 17.3951 7.66992 15.2801 8.47507 13.358C9.28022 11.4359 10.6437 9.793 12.3931 8.63714L11.6068 8.55465L10.5077 9.67488C9.31111 10.8581 8.40443 12.2965 7.85714 13.8799L6.88542 13.5542C6.03779 16.0382 6.03779 18.7287 6.88542 21.2128L7.85714 20.887Z" fill="#19C2EF" fill-opacity="0.3"/>
<path d="M1.16809 20.2078C1.56491 21.3048 2.22172 22.3015 3.08838 23.1221L3.29283 22.9399C2.21174 21.9184 1.4755 20.6169 1.17723 19.2C0.878957 17.7832 1.03204 16.3145 1.61712 14.9799C2.2022 13.6452 3.193 12.5045 4.46423 11.7019L3.89285 11.6446L3.09417 12.4224C2.22465 13.244 1.56579 14.2428 1.16809 15.3423L0.461965 15.1161C-0.153988 16.841 -0.153988 18.7092 0.461965 20.434L1.16809 20.2078Z" fill="#19C2EF" fill-opacity="0.15"/>
<path d="M41.1429 20.887C40.5968 22.4668 39.6929 23.9023 38.5003 25.084L38.2189 24.8216C39.7067 23.3505 40.7198 21.4761 41.1303 19.4356C41.5407 17.3951 41.3301 15.2801 40.5249 13.358C39.7198 11.4359 38.3563 9.793 36.6069 8.63714L37.3932 8.55465L38.4923 9.67488C39.6889 10.8581 40.5956 12.2965 41.1429 13.8799L42.1146 13.5542C42.9622 16.0382 42.9622 18.7287 42.1146 21.2128L41.1429 20.887Z" fill="#19C2EF" fill-opacity="0.3"/>
<path d="M47.8319 20.2078C47.4351 21.3048 46.7783 22.3015 45.9116 23.1221L45.7072 22.9399C46.7883 21.9184 47.5245 20.6169 47.8228 19.2C48.121 17.7832 47.968 16.3145 47.3829 14.9799C46.7978 13.6452 45.807 12.5045 44.5358 11.7019L45.1071 11.6446L45.9058 12.4224C46.7753 13.244 47.4342 14.2428 47.8319 15.3423L48.538 15.1161C49.154 16.841 49.154 18.7092 48.538 20.434L47.8319 20.2078Z" fill="#19C2EF" fill-opacity="0.15"/>
<defs>
<radialGradient id="paint0_radial_282_286" cx="0" cy="0" r="1" gradientUnits="userSpaceOnUse" gradientTransform="translate(24.5531 16.5003) rotate(90) scale(16.3333 16.5177)">
<stop stop-color="#19C2EF"/>
<stop offset="1" stop-color="#056CE9" stop-opacity="0"/>
</radialGradient>
<linearGradient id="paint1_linear_282_286" x1="24.5535" y1="28.4189" x2="24.5535" y2="4.58111" gradientUnits="userSpaceOnUse">
<stop stop-color="#0974F8"/>
<stop offset="1" stop-color="#4FB2FE"/>
</linearGradient>
</defs>
</svg>
