<svg width="15" height="15" viewBox="0 0 15 15" fill="none" xmlns="http://www.w3.org/2000/svg">
<path d="M7.50006 0C6.0167 0 4.56666 0.439867 3.33329 1.26398C2.09992 2.08809 1.13862 3.25943 0.570968 4.62987C0.00331066 6.00032 -0.145214 7.50832 0.144175 8.96317C0.433564 10.418 1.14787 11.7544 2.19676 12.8033C3.24566 13.8522 4.58203 14.5665 6.03689 14.8559C7.49174 15.1453 8.99974 14.9967 10.3702 14.4291C11.7406 13.8614 12.912 12.9001 13.7361 11.6668C14.5602 10.4334 15.0001 8.98336 15.0001 7.5C15.0001 6.51508 14.8061 5.53981 14.4292 4.62987C14.0522 3.71993 13.4998 2.89314 12.8034 2.1967C12.1069 1.50026 11.2801 0.947814 10.3702 0.570903C9.46025 0.193993 8.48498 0 7.50006 0ZM9.62106 4.3185L10.6823 3.25725C10.7515 3.18562 10.8343 3.12848 10.9258 3.08917C11.0173 3.04987 11.1157 3.02918 11.2153 3.02831C11.3148 3.02745 11.4136 3.04642 11.5058 3.08413C11.5979 3.12184 11.6817 3.17753 11.7521 3.24795C11.8225 3.31837 11.8782 3.40211 11.9159 3.49428C11.9536 3.58646 11.9726 3.68521 11.9717 3.7848C11.9709 3.88438 11.9502 3.9828 11.9109 4.0743C11.8716 4.1658 11.8144 4.24856 11.7428 4.31775L10.6816 5.379C10.5401 5.51562 10.3507 5.59121 10.154 5.5895C9.95736 5.58779 9.76925 5.50892 9.6302 5.36986C9.49114 5.23081 9.41227 5.0427 9.41056 4.84605C9.40885 4.6494 9.48444 4.45995 9.62106 4.3185ZM1.50006 7.5C1.50006 7.30109 1.57908 7.11032 1.71973 6.96967C1.86039 6.82902 2.05115 6.75 2.25006 6.75H3.75006C3.94898 6.75 4.13974 6.82902 4.28039 6.96967C4.42105 7.11032 4.50006 7.30109 4.50006 7.5C4.50006 7.69891 4.42105 7.88968 4.28039 8.03033C4.13974 8.17098 3.94898 8.25 3.75006 8.25H2.25006C2.05115 8.25 1.86039 8.17098 1.71973 8.03033C1.57908 7.88968 1.50006 7.69891 1.50006 7.5ZM5.37906 10.6815L4.31781 11.7427C4.17636 11.8794 3.98691 11.955 3.79026 11.9533C3.59362 11.9515 3.40551 11.8727 3.26645 11.7336C3.12739 11.5946 3.04852 11.4064 3.04681 11.2098C3.0451 11.0132 3.12069 10.8237 3.25731 10.6822L4.31856 9.621C4.46001 9.48438 4.64947 9.40878 4.84611 9.41049C5.04276 9.4122 5.23087 9.49108 5.36993 9.63013C5.50898 9.76919 5.58786 9.9573 5.58957 10.1539C5.59128 10.3506 5.51568 10.54 5.37906 10.6815ZM5.37906 5.379C5.23842 5.5196 5.04769 5.59859 4.84881 5.59859C4.64994 5.59859 4.45921 5.5196 4.31856 5.379L3.25731 4.31775C3.12069 4.1763 3.0451 3.98685 3.04681 3.7902C3.04852 3.59355 3.12739 3.40544 3.26645 3.26638C3.40551 3.12733 3.59362 3.04845 3.79026 3.04674C3.98691 3.04503 4.17636 3.12063 4.31781 3.25725L5.37906 4.3185C5.51967 4.45914 5.59865 4.64988 5.59865 4.84875C5.59865 5.04762 5.51967 5.23835 5.37906 5.379ZM8.25006 12.75C8.25006 12.9489 8.17105 13.1397 8.03039 13.2803C7.88974 13.421 7.69898 13.5 7.50006 13.5C7.30115 13.5 7.11039 13.421 6.96973 13.2803C6.82908 13.1397 6.75006 12.9489 6.75006 12.75V11.25C6.75006 11.0511 6.82908 10.8603 6.96973 10.7197C7.11039 10.579 7.30115 10.5 7.50006 10.5C7.69898 10.5 7.88974 10.579 8.03039 10.7197C8.17105 10.8603 8.25006 11.0511 8.25006 11.25V12.75ZM8.25006 3.75C8.25006 3.94891 8.17105 4.13968 8.03039 4.28033C7.88974 4.42098 7.69898 4.5 7.50006 4.5C7.30115 4.5 7.11039 4.42098 6.96973 4.28033C6.82908 4.13968 6.75006 3.94891 6.75006 3.75V2.25C6.75006 2.05109 6.82908 1.86032 6.96973 1.71967C7.11039 1.57902 7.30115 1.5 7.50006 1.5C7.69898 1.5 7.88974 1.57902 8.03039 1.71967C8.17105 1.86032 8.25006 2.05109 8.25006 2.25V3.75ZM11.7428 11.7427C11.6022 11.8833 11.4114 11.9623 11.2126 11.9623C11.0137 11.9623 10.823 11.8833 10.6823 11.7427L9.62106 10.6815C9.48444 10.54 9.40885 10.3506 9.41056 10.1539C9.41227 9.9573 9.49114 9.76919 9.6302 9.63013C9.76925 9.49108 9.95736 9.4122 10.154 9.41049C10.3507 9.40878 10.5401 9.48438 10.6816 9.621L11.7428 10.6822C11.8834 10.8229 11.9624 11.0136 11.9624 11.2125C11.9624 11.4114 11.8834 11.6021 11.7428 11.7427ZM13.5001 7.5C13.5001 7.69891 13.421 7.88968 13.2804 8.03033C13.1397 8.17098 12.949 8.25 12.7501 8.25H11.2501C11.0511 8.25 10.8604 8.17098 10.7197 8.03033C10.5791 7.88968 10.5001 7.69891 10.5001 7.5C10.5001 7.30109 10.5791 7.11032 10.7197 6.96967C10.8604 6.82902 11.0511 6.75 11.2501 6.75H12.7501C12.949 6.75 13.1397 6.82902 13.2804 6.96967C13.421 7.11032 13.5001 7.30109 13.5001 7.5Z" fill="#19C2EF"/>
</svg>
