<svg width="14" height="11" viewBox="0 0 14 11" fill="none" xmlns="http://www.w3.org/2000/svg">
<path d="M13.5906 0.690661C13.534 0.582958 13.4491 0.492752 13.345 0.429779C13.2409 0.366805 13.1216 0.333455 13 0.333328H0.999958C0.87852 0.33383 0.759517 0.367426 0.655745 0.430504C0.551973 0.493581 0.46736 0.583753 0.411004 0.691324C0.354648 0.798894 0.328681 0.919792 0.335897 1.04102C0.343113 1.16224 0.383238 1.2792 0.451958 1.37933L6.45196 10.046C6.51312 10.1348 6.59495 10.2075 6.69042 10.2576C6.78588 10.3078 6.89211 10.334 6.99996 10.334C7.1078 10.334 7.21403 10.3078 7.3095 10.2576C7.40496 10.2075 7.4868 10.1348 7.54796 10.046L13.548 1.37933C13.6173 1.27941 13.658 1.16238 13.6655 1.04096C13.6731 0.91954 13.6472 0.798382 13.5906 0.690661ZM6.99996 8.49533L2.27196 1.66666H11.728L6.99996 8.49533Z" fill="url(#paint0_linear_1_195)"/>
<defs>
<linearGradient id="paint0_linear_1_195" x1="7.00076" y1="0.333328" x2="7.00076" y2="10.334" gradientUnits="userSpaceOnUse">
<stop stop-color="#0974F8"/>
<stop offset="1" stop-color="#4FB2FE"/>
</linearGradient>
</defs>
</svg>
