<svg width="94" height="28" viewBox="0 0 94 28" fill="none" xmlns="http://www.w3.org/2000/svg">
<path opacity="0.25" d="M93.5 2.5V26C93.5 27.1046 92.6046 28 91.5 28H0L18.4142 9.58579C18.7893 9.21071 19.298 9 19.8284 9H37.1716C37.702 9 38.2107 8.78929 38.5858 8.41421L45.9142 1.08579C46.2893 0.710714 46.798 0.5 47.3284 0.5H91.5C92.6046 0.5 93.5 1.39543 93.5 2.5Z" fill="url(#paint0_linear_92_19462)"/>
<path opacity="0.3" d="M17.8636 17.5H40L30.1364 27.5H8L17.8636 17.5Z" fill="url(#paint1_linear_92_19462)"/>
<path opacity="0.7" d="M1 27.5L18.3284 10.1716C19.0786 9.42143 20.096 9 21.1569 9H36.8431C37.904 9 38.9214 8.57857 39.6716 7.82843L45.3284 2.17157C46.0786 1.42143 47.096 1 48.1569 1H93" stroke="url(#paint2_linear_92_19462)" stroke-width="1.25"/>
<defs>
<linearGradient id="paint0_linear_92_19462" x1="99.5" y1="13.75" x2="10" y2="13.75" gradientUnits="userSpaceOnUse">
<stop stop-color="#076CE9" stop-opacity="0"/>
<stop offset="1" stop-color="#19C2EF"/>
</linearGradient>
<linearGradient id="paint1_linear_92_19462" x1="10.8182" y1="21.0714" x2="52.5" y2="21.0714" gradientUnits="userSpaceOnUse">
<stop stop-color="#19C2EF"/>
<stop offset="1" stop-color="#076CE9" stop-opacity="0"/>
</linearGradient>
<linearGradient id="paint2_linear_92_19462" x1="12" y1="8.49999" x2="83" y2="8.49999" gradientUnits="userSpaceOnUse">
<stop stop-color="#19C2EF"/>
<stop offset="1" stop-color="#076CE9" stop-opacity="0"/>
</linearGradient>
</defs>
</svg>
