<svg width="42" height="43" viewBox="0 0 42 43" fill="none" xmlns="http://www.w3.org/2000/svg">
<circle cx="21" cy="21.5" r="21" fill="url(#paint0_radial_92_15066)" fill-opacity="0.5"/>
<path d="M42 21.5C42.0025 23.7943 41.6284 26.0735 40.8926 28.2467L39.1997 27.6727C38.2483 30.4561 36.6735 32.9854 34.5956 35.0675C32.5177 37.1496 29.9916 38.7294 27.21 39.6864L27.7877 41.3786C23.3862 42.8738 18.614 42.8738 14.2124 41.3786L14.79 39.6863C12.0085 38.7294 9.48243 37.1496 7.40456 35.0676C5.3267 32.9855 3.75197 30.4563 2.80056 27.6729L1.10759 28.2469C-0.369196 23.8702 -0.369196 19.1298 1.10759 14.7531L2.80056 15.3271C3.75407 12.5373 5.33373 10.0029 7.41844 7.91819C9.50315 5.83348 12.0375 4.25381 14.8273 3.3003L14.2534 1.60742C18.6301 0.130833 23.3703 0.130863 27.7469 1.6075L27.173 3.30048C29.9628 4.25401 32.4972 5.83369 34.5819 7.91842C36.6666 10.0031 38.2462 12.5375 39.1997 15.3273L40.8926 14.7533C41.6284 16.9265 42.0025 19.2057 42 21.5ZM21 2.96627C17.3344 2.96628 13.7511 4.05327 10.7032 6.08978C7.65541 8.12629 5.2799 11.0209 3.87714 14.4074C2.47437 17.794 2.10735 21.5205 2.82248 25.1157C3.5376 28.7109 5.30277 32.0133 7.89474 34.6053C10.4867 37.1972 13.7891 38.9624 17.3843 39.6775C20.9795 40.3926 24.706 40.0256 28.0925 38.6229C31.4791 37.2201 34.3737 34.8446 36.4102 31.7967C38.4467 28.7489 39.5337 25.1656 39.5337 21.5C39.5282 16.5862 37.5737 11.8753 34.0992 8.40079C30.6246 4.92624 25.9137 2.97181 21 2.96627Z" fill="url(#paint1_linear_92_15066)"/>
<path fill-rule="evenodd" clip-rule="evenodd" d="M9.99994 21.5C9.99994 15.4249 14.9248 10.5 20.9999 10.5C27.075 10.5 31.9999 15.4249 31.9999 21.5C31.9999 27.5751 27.075 32.5 20.9999 32.5C14.9248 32.5 9.99994 27.5751 9.99994 21.5ZM19.2499 20.5C19.2499 19.9477 19.6976 19.5 20.2499 19.5H21.7499C22.3022 19.5 22.7499 19.9477 22.7499 20.5V27.5C22.7499 28.0523 22.3022 28.5 21.7499 28.5H20.2499C19.6976 28.5 19.2499 28.0523 19.2499 27.5V20.5ZM22.9999 16.5C22.9999 15.3954 22.1045 14.5 20.9999 14.5C19.8953 14.5 18.9999 15.3954 18.9999 16.5C18.9999 17.6046 19.8953 18.5 20.9999 18.5C22.1045 18.5 22.9999 17.6046 22.9999 16.5Z" fill="url(#paint2_linear_92_15066)"/>
<path d="M20.9999 19H20.2499C19.4215 19 18.7499 19.6716 18.7499 20.5V27.5C18.7499 28.3284 19.4215 29 20.2499 29H21.7499C22.5784 29 23.2499 28.3284 23.2499 27.5V20.5C23.2499 19.6716 22.5784 19 21.7499 19H20.9999ZM20.9999 19C22.3807 19 23.4999 17.8807 23.4999 16.5C23.4999 15.1193 22.3807 14 20.9999 14C19.6192 14 18.4999 15.1193 18.4999 16.5C18.4999 17.8807 19.6192 19 20.9999 19ZM10.4999 21.5C10.4999 15.701 15.201 11 20.9999 11C26.7989 11 31.4999 15.701 31.4999 21.5C31.4999 27.299 26.7989 32 20.9999 32C15.201 32 10.4999 27.299 10.4999 21.5Z" stroke="#19C2EF" stroke-opacity="0.55"/>
<defs>
<radialGradient id="paint0_radial_92_15066" cx="0" cy="0" r="1" gradientUnits="userSpaceOnUse" gradientTransform="translate(21 21.5) rotate(90) scale(21)">
<stop stop-color="#0974F8"/>
<stop offset="1" stop-color="#054492" stop-opacity="0"/>
</radialGradient>
<linearGradient id="paint1_linear_92_15066" x1="21" y1="42.5" x2="21" y2="0.5" gradientUnits="userSpaceOnUse">
<stop stop-color="#0974F8"/>
<stop offset="1" stop-color="#4FB2FE"/>
</linearGradient>
<linearGradient id="paint2_linear_92_15066" x1="20.9999" y1="10.5" x2="20.9999" y2="32.5" gradientUnits="userSpaceOnUse">
<stop stop-color="#0974F8"/>
<stop offset="1" stop-color="#4FB2FE"/>
</linearGradient>
</defs>
</svg>
