<svg width="91" height="62" viewBox="0 0 91 62" fill="none" xmlns="http://www.w3.org/2000/svg">
<g opacity="0.25">
<path d="M90 0.5C90 0.223857 90.2239 0 90.5 0C90.7761 0 91 0.223858 91 0.5V61.5C91 61.7761 90.7761 62 90.5 62C90.2239 62 90 61.7761 90 61.5V0.5Z" fill="url(#paint0_linear_92_9730)"/>
<path d="M87 0.5C87 0.223857 87.2239 0 87.5 0C87.7761 0 88 0.223858 88 0.5V61.5C88 61.7761 87.7761 62 87.5 62C87.2239 62 87 61.7761 87 61.5V0.5Z" fill="url(#paint1_linear_92_9730)"/>
<path d="M84 0.5C84 0.223857 84.2239 0 84.5 0C84.7761 0 85 0.223858 85 0.5V61.5C85 61.7761 84.7761 62 84.5 62C84.2239 62 84 61.7761 84 61.5V0.5Z" fill="url(#paint2_linear_92_9730)"/>
<path d="M81 0.5C81 0.223857 81.2239 0 81.5 0C81.7761 0 82 0.223858 82 0.5V61.5C82 61.7761 81.7761 62 81.5 62C81.2239 62 81 61.7761 81 61.5V0.5Z" fill="url(#paint3_linear_92_9730)"/>
<path d="M78 0.5C78 0.223857 78.2239 0 78.5 0C78.7761 0 79 0.223858 79 0.5V61.5C79 61.7761 78.7761 62 78.5 62C78.2239 62 78 61.7761 78 61.5V0.5Z" fill="url(#paint4_linear_92_9730)"/>
<path d="M75 0.5C75 0.223857 75.2239 0 75.5 0C75.7761 0 76 0.223858 76 0.5V61.5C76 61.7761 75.7761 62 75.5 62C75.2239 62 75 61.7761 75 61.5V0.5Z" fill="url(#paint5_linear_92_9730)"/>
<path d="M72 0.5C72 0.223857 72.2239 0 72.5 0C72.7761 0 73 0.223858 73 0.5V61.5C73 61.7761 72.7761 62 72.5 62C72.2239 62 72 61.7761 72 61.5V0.5Z" fill="url(#paint6_linear_92_9730)"/>
<path d="M69 0.5C69 0.223857 69.2239 0 69.5 0C69.7761 0 70 0.223858 70 0.5V61.5C70 61.7761 69.7761 62 69.5 62C69.2239 62 69 61.7761 69 61.5V0.5Z" fill="url(#paint7_linear_92_9730)"/>
<path d="M66 0.5C66 0.223857 66.2239 0 66.5 0C66.7761 0 67 0.223858 67 0.5V61.5C67 61.7761 66.7761 62 66.5 62C66.2239 62 66 61.7761 66 61.5V0.5Z" fill="url(#paint8_linear_92_9730)"/>
<path d="M63 0.5C63 0.223857 63.2239 0 63.5 0C63.7761 0 64 0.223858 64 0.5V61.5C64 61.7761 63.7761 62 63.5 62C63.2239 62 63 61.7761 63 61.5V0.5Z" fill="url(#paint9_linear_92_9730)"/>
<path d="M60 0.5C60 0.223857 60.2239 0 60.5 0C60.7761 0 61 0.223858 61 0.5V61.5C61 61.7761 60.7761 62 60.5 62C60.2239 62 60 61.7761 60 61.5V0.5Z" fill="url(#paint10_linear_92_9730)"/>
<path d="M57 0.5C57 0.223857 57.2239 0 57.5 0C57.7761 0 58 0.223858 58 0.5V61.5C58 61.7761 57.7761 62 57.5 62C57.2239 62 57 61.7761 57 61.5V0.5Z" fill="url(#paint11_linear_92_9730)"/>
<path d="M54 0.5C54 0.223857 54.2239 0 54.5 0C54.7761 0 55 0.223858 55 0.5V61.5C55 61.7761 54.7761 62 54.5 62C54.2239 62 54 61.7761 54 61.5V0.5Z" fill="url(#paint12_linear_92_9730)"/>
<path d="M51 0.5C51 0.223857 51.2239 0 51.5 0C51.7761 0 52 0.223858 52 0.5V61.5C52 61.7761 51.7761 62 51.5 62C51.2239 62 51 61.7761 51 61.5V0.5Z" fill="url(#paint13_linear_92_9730)"/>
<path d="M48 0.5C48 0.223857 48.2239 0 48.5 0C48.7761 0 49 0.223858 49 0.5V61.5C49 61.7761 48.7761 62 48.5 62C48.2239 62 48 61.7761 48 61.5V0.5Z" fill="url(#paint14_linear_92_9730)"/>
<path d="M45 0.5C45 0.223857 45.2239 0 45.5 0C45.7761 0 46 0.223858 46 0.5V61.5C46 61.7761 45.7761 62 45.5 62C45.2239 62 45 61.7761 45 61.5V0.5Z" fill="url(#paint15_linear_92_9730)"/>
<path d="M42 0.5C42 0.223857 42.2239 0 42.5 0C42.7761 0 43 0.223858 43 0.5V61.5C43 61.7761 42.7761 62 42.5 62C42.2239 62 42 61.7761 42 61.5V0.5Z" fill="url(#paint16_linear_92_9730)"/>
<path d="M39 0.5C39 0.223857 39.2239 0 39.5 0C39.7761 0 40 0.223858 40 0.5V61.5C40 61.7761 39.7761 62 39.5 62C39.2239 62 39 61.7761 39 61.5V0.5Z" fill="url(#paint17_linear_92_9730)"/>
<path d="M36 0.5C36 0.223857 36.2239 0 36.5 0C36.7761 0 37 0.223858 37 0.5V61.5C37 61.7761 36.7761 62 36.5 62C36.2239 62 36 61.7761 36 61.5V0.5Z" fill="url(#paint18_linear_92_9730)"/>
<path d="M33 0.5C33 0.223857 33.2239 0 33.5 0C33.7761 0 34 0.223858 34 0.5V61.5C34 61.7761 33.7761 62 33.5 62C33.2239 62 33 61.7761 33 61.5V0.5Z" fill="url(#paint19_linear_92_9730)"/>
<path d="M30 0.5C30 0.223857 30.2239 0 30.5 0C30.7761 0 31 0.223858 31 0.5V61.5C31 61.7761 30.7761 62 30.5 62C30.2239 62 30 61.7761 30 61.5V0.5Z" fill="url(#paint20_linear_92_9730)"/>
<path d="M27 0.5C27 0.223857 27.2239 0 27.5 0C27.7761 0 28 0.223858 28 0.5V61.5C28 61.7761 27.7761 62 27.5 62C27.2239 62 27 61.7761 27 61.5V0.5Z" fill="url(#paint21_linear_92_9730)"/>
<path d="M24 0.5C24 0.223857 24.2239 0 24.5 0C24.7761 0 25 0.223858 25 0.5V61.5C25 61.7761 24.7761 62 24.5 62C24.2239 62 24 61.7761 24 61.5V0.5Z" fill="url(#paint22_linear_92_9730)"/>
<path d="M21 0.5C21 0.223857 21.2239 0 21.5 0C21.7761 0 22 0.223858 22 0.5V61.5C22 61.7761 21.7761 62 21.5 62C21.2239 62 21 61.7761 21 61.5V0.5Z" fill="url(#paint23_linear_92_9730)"/>
<path d="M18 0.5C18 0.223857 18.2239 0 18.5 0C18.7761 0 19 0.223858 19 0.5V61.5C19 61.7761 18.7761 62 18.5 62C18.2239 62 18 61.7761 18 61.5V0.5Z" fill="url(#paint24_linear_92_9730)"/>
<path d="M15 0.5C15 0.223857 15.2239 0 15.5 0C15.7761 0 16 0.223858 16 0.5V61.5C16 61.7761 15.7761 62 15.5 62C15.2239 62 15 61.7761 15 61.5V0.5Z" fill="url(#paint25_linear_92_9730)"/>
<path d="M12 0.5C12 0.223857 12.2239 0 12.5 0C12.7761 0 13 0.223858 13 0.5V61.5C13 61.7761 12.7761 62 12.5 62C12.2239 62 12 61.7761 12 61.5V0.5Z" fill="url(#paint26_linear_92_9730)"/>
<path d="M9 0.5C9 0.223857 9.22386 0 9.5 0C9.77614 0 10 0.223858 10 0.5V61.5C10 61.7761 9.77614 62 9.5 62C9.22386 62 9 61.7761 9 61.5V0.5Z" fill="url(#paint27_linear_92_9730)"/>
<path d="M6 0.5C6 0.223857 6.22386 0 6.5 0C6.77614 0 7 0.223858 7 0.5V61.5C7 61.7761 6.77614 62 6.5 62C6.22386 62 6 61.7761 6 61.5V0.5Z" fill="url(#paint28_linear_92_9730)"/>
<path d="M3 0.5C3 0.223857 3.22386 0 3.5 0C3.77614 0 4 0.223858 4 0.5V61.5C4 61.7761 3.77614 62 3.5 62C3.22386 62 3 61.7761 3 61.5V0.5Z" fill="url(#paint29_linear_92_9730)"/>
<path d="M0 0.5C0 0.223857 0.223858 0 0.5 0C0.776142 0 1 0.223858 1 0.5V61.5C1 61.7761 0.776142 62 0.5 62C0.223858 62 0 61.7761 0 61.5V0.5Z" fill="url(#paint30_linear_92_9730)"/>
</g>
<defs>
<linearGradient id="paint0_linear_92_9730" x1="0.363014" y1="1.58974" x2="0.359772" y2="62" gradientUnits="userSpaceOnUse">
<stop stop-color="#076CE9" stop-opacity="0"/>
<stop offset="1" stop-color="#19C2EF"/>
</linearGradient>
<linearGradient id="paint1_linear_92_9730" x1="0.363014" y1="1.58974" x2="0.359772" y2="62" gradientUnits="userSpaceOnUse">
<stop stop-color="#076CE9" stop-opacity="0"/>
<stop offset="1" stop-color="#19C2EF"/>
</linearGradient>
<linearGradient id="paint2_linear_92_9730" x1="0.363014" y1="1.58974" x2="0.359772" y2="62" gradientUnits="userSpaceOnUse">
<stop stop-color="#076CE9" stop-opacity="0"/>
<stop offset="1" stop-color="#19C2EF"/>
</linearGradient>
<linearGradient id="paint3_linear_92_9730" x1="0.363014" y1="1.58974" x2="0.359772" y2="62" gradientUnits="userSpaceOnUse">
<stop stop-color="#076CE9" stop-opacity="0"/>
<stop offset="1" stop-color="#19C2EF"/>
</linearGradient>
<linearGradient id="paint4_linear_92_9730" x1="0.363014" y1="1.58974" x2="0.359772" y2="62" gradientUnits="userSpaceOnUse">
<stop stop-color="#076CE9" stop-opacity="0"/>
<stop offset="1" stop-color="#19C2EF"/>
</linearGradient>
<linearGradient id="paint5_linear_92_9730" x1="0.363014" y1="1.58974" x2="0.359772" y2="62" gradientUnits="userSpaceOnUse">
<stop stop-color="#076CE9" stop-opacity="0"/>
<stop offset="1" stop-color="#19C2EF"/>
</linearGradient>
<linearGradient id="paint6_linear_92_9730" x1="0.363014" y1="1.58974" x2="0.359772" y2="62" gradientUnits="userSpaceOnUse">
<stop stop-color="#076CE9" stop-opacity="0"/>
<stop offset="1" stop-color="#19C2EF"/>
</linearGradient>
<linearGradient id="paint7_linear_92_9730" x1="0.363014" y1="1.58974" x2="0.359772" y2="62" gradientUnits="userSpaceOnUse">
<stop stop-color="#076CE9" stop-opacity="0"/>
<stop offset="1" stop-color="#19C2EF"/>
</linearGradient>
<linearGradient id="paint8_linear_92_9730" x1="0.363014" y1="1.58974" x2="0.359772" y2="62" gradientUnits="userSpaceOnUse">
<stop stop-color="#076CE9" stop-opacity="0"/>
<stop offset="1" stop-color="#19C2EF"/>
</linearGradient>
<linearGradient id="paint9_linear_92_9730" x1="0.363014" y1="1.58974" x2="0.359772" y2="62" gradientUnits="userSpaceOnUse">
<stop stop-color="#076CE9" stop-opacity="0"/>
<stop offset="1" stop-color="#19C2EF"/>
</linearGradient>
<linearGradient id="paint10_linear_92_9730" x1="0.363014" y1="1.58974" x2="0.359772" y2="62" gradientUnits="userSpaceOnUse">
<stop stop-color="#076CE9" stop-opacity="0"/>
<stop offset="1" stop-color="#19C2EF"/>
</linearGradient>
<linearGradient id="paint11_linear_92_9730" x1="0.363014" y1="1.58974" x2="0.359772" y2="62" gradientUnits="userSpaceOnUse">
<stop stop-color="#076CE9" stop-opacity="0"/>
<stop offset="1" stop-color="#19C2EF"/>
</linearGradient>
<linearGradient id="paint12_linear_92_9730" x1="0.363014" y1="1.58974" x2="0.359772" y2="62" gradientUnits="userSpaceOnUse">
<stop stop-color="#076CE9" stop-opacity="0"/>
<stop offset="1" stop-color="#19C2EF"/>
</linearGradient>
<linearGradient id="paint13_linear_92_9730" x1="0.363014" y1="1.58974" x2="0.359772" y2="62" gradientUnits="userSpaceOnUse">
<stop stop-color="#076CE9" stop-opacity="0"/>
<stop offset="1" stop-color="#19C2EF"/>
</linearGradient>
<linearGradient id="paint14_linear_92_9730" x1="0.363014" y1="1.58974" x2="0.359772" y2="62" gradientUnits="userSpaceOnUse">
<stop stop-color="#076CE9" stop-opacity="0"/>
<stop offset="1" stop-color="#19C2EF"/>
</linearGradient>
<linearGradient id="paint15_linear_92_9730" x1="0.363014" y1="1.58974" x2="0.359772" y2="62" gradientUnits="userSpaceOnUse">
<stop stop-color="#076CE9" stop-opacity="0"/>
<stop offset="1" stop-color="#19C2EF"/>
</linearGradient>
<linearGradient id="paint16_linear_92_9730" x1="0.363014" y1="1.58974" x2="0.359772" y2="62" gradientUnits="userSpaceOnUse">
<stop stop-color="#076CE9" stop-opacity="0"/>
<stop offset="1" stop-color="#19C2EF"/>
</linearGradient>
<linearGradient id="paint17_linear_92_9730" x1="0.363014" y1="1.58974" x2="0.359772" y2="62" gradientUnits="userSpaceOnUse">
<stop stop-color="#076CE9" stop-opacity="0"/>
<stop offset="1" stop-color="#19C2EF"/>
</linearGradient>
<linearGradient id="paint18_linear_92_9730" x1="0.363014" y1="1.58974" x2="0.359772" y2="62" gradientUnits="userSpaceOnUse">
<stop stop-color="#076CE9" stop-opacity="0"/>
<stop offset="1" stop-color="#19C2EF"/>
</linearGradient>
<linearGradient id="paint19_linear_92_9730" x1="0.363014" y1="1.58974" x2="0.359772" y2="62" gradientUnits="userSpaceOnUse">
<stop stop-color="#076CE9" stop-opacity="0"/>
<stop offset="1" stop-color="#19C2EF"/>
</linearGradient>
<linearGradient id="paint20_linear_92_9730" x1="0.363014" y1="1.58974" x2="0.359772" y2="62" gradientUnits="userSpaceOnUse">
<stop stop-color="#076CE9" stop-opacity="0"/>
<stop offset="1" stop-color="#19C2EF"/>
</linearGradient>
<linearGradient id="paint21_linear_92_9730" x1="0.363014" y1="1.58974" x2="0.359772" y2="62" gradientUnits="userSpaceOnUse">
<stop stop-color="#076CE9" stop-opacity="0"/>
<stop offset="1" stop-color="#19C2EF"/>
</linearGradient>
<linearGradient id="paint22_linear_92_9730" x1="0.363014" y1="1.58974" x2="0.359772" y2="62" gradientUnits="userSpaceOnUse">
<stop stop-color="#076CE9" stop-opacity="0"/>
<stop offset="1" stop-color="#19C2EF"/>
</linearGradient>
<linearGradient id="paint23_linear_92_9730" x1="0.363014" y1="1.58974" x2="0.359772" y2="62" gradientUnits="userSpaceOnUse">
<stop stop-color="#076CE9" stop-opacity="0"/>
<stop offset="1" stop-color="#19C2EF"/>
</linearGradient>
<linearGradient id="paint24_linear_92_9730" x1="0.363014" y1="1.58974" x2="0.359772" y2="62" gradientUnits="userSpaceOnUse">
<stop stop-color="#076CE9" stop-opacity="0"/>
<stop offset="1" stop-color="#19C2EF"/>
</linearGradient>
<linearGradient id="paint25_linear_92_9730" x1="0.363014" y1="1.58974" x2="0.359772" y2="62" gradientUnits="userSpaceOnUse">
<stop stop-color="#076CE9" stop-opacity="0"/>
<stop offset="1" stop-color="#19C2EF"/>
</linearGradient>
<linearGradient id="paint26_linear_92_9730" x1="0.363014" y1="1.58974" x2="0.359772" y2="62" gradientUnits="userSpaceOnUse">
<stop stop-color="#076CE9" stop-opacity="0"/>
<stop offset="1" stop-color="#19C2EF"/>
</linearGradient>
<linearGradient id="paint27_linear_92_9730" x1="0.363014" y1="1.58974" x2="0.359772" y2="62" gradientUnits="userSpaceOnUse">
<stop stop-color="#076CE9" stop-opacity="0"/>
<stop offset="1" stop-color="#19C2EF"/>
</linearGradient>
<linearGradient id="paint28_linear_92_9730" x1="0.363014" y1="1.58974" x2="0.359772" y2="62" gradientUnits="userSpaceOnUse">
<stop stop-color="#076CE9" stop-opacity="0"/>
<stop offset="1" stop-color="#19C2EF"/>
</linearGradient>
<linearGradient id="paint29_linear_92_9730" x1="0.363014" y1="1.58974" x2="0.359772" y2="62" gradientUnits="userSpaceOnUse">
<stop stop-color="#076CE9" stop-opacity="0"/>
<stop offset="1" stop-color="#19C2EF"/>
</linearGradient>
<linearGradient id="paint30_linear_92_9730" x1="0.363014" y1="1.58974" x2="0.359772" y2="62" gradientUnits="userSpaceOnUse">
<stop stop-color="#076CE9" stop-opacity="0"/>
<stop offset="1" stop-color="#19C2EF"/>
</linearGradient>
</defs>
</svg>
