<svg width="22" height="23" viewBox="0 0 22 23" fill="none" xmlns="http://www.w3.org/2000/svg">
<path d="M18.4278 0.5H3.57074C0.839049 0.5 -0.892366 3.44668 0.481949 5.82881L9.6512 21.7217C10.2495 22.7594 11.749 22.7594 12.3474 21.7217L21.5185 5.82881C22.8909 3.45049 21.1595 0.5 18.4297 0.5H18.4278ZM9.64374 16.9557L7.64683 13.0909L2.82849 4.47322C2.51063 3.92165 2.90324 3.21483 3.56888 3.21483H9.64188V16.9575L9.64374 16.9557ZM19.1664 4.47136L14.3499 13.0928L12.353 16.9557V3.21297H18.426C19.0916 3.21297 19.4842 3.91978 19.1664 4.47136Z" fill="url(#paint0_linear_92_9722)"/>
<path d="M10.0844 21.4719L10.0843 21.4718L0.915042 5.57895C0.915041 5.57895 0.91504 5.57895 0.915039 5.57895C-0.26452 3.53438 1.21898 1 3.57074 1H18.4278H18.4297C20.7794 1 22.2632 3.53798 21.0854 5.57891L21.5185 5.82881L21.0854 5.57891L11.9143 21.4718L11.9142 21.4719C11.5083 22.176 10.4903 22.176 10.0844 21.4719ZM9.9972 17.3093L10.2557 17.0509L10.1419 16.8305V3.21483V2.71483H9.64188H3.56888C2.51838 2.71483 1.88748 3.83652 2.3935 4.71978L7.2064 13.3277L9.14188 17.0736V18.1642L9.99534 17.3112L9.9972 17.3093ZM11.853 16.9557L12.7971 17.1853L14.7903 13.3296L19.6014 4.71787C20.1073 3.83462 19.4765 2.71297 18.426 2.71297H12.353H11.853V3.21297V16.9557Z" stroke="#19C2EF" stroke-opacity="0.55"/>
<defs>
<linearGradient id="paint0_linear_92_9722" x1="10.9997" y1="0.5" x2="10.9997" y2="22.5" gradientUnits="userSpaceOnUse">
<stop stop-color="#0974F8"/>
<stop offset="1" stop-color="#4FB2FE"/>
</linearGradient>
</defs>
</svg>
