<svg width="24" height="23" viewBox="0 0 24 23" fill="none" xmlns="http://www.w3.org/2000/svg">
<path d="M24.0112 10.8936C24.0112 9.38607 19.9091 8.12827 14.4579 7.83808L14.4574 5.43604H21.264V0.437012H2.65213V5.43604H9.45811V7.84983C4.10614 8.15991 0.102661 9.40459 0.102661 10.8936C0.102661 12.3829 4.10614 13.6277 9.45811 13.9372V22.5629H14.4574V13.949C19.9091 13.6594 24.0112 12.4012 24.0112 10.8936ZM12.0569 12.3788C6.20571 12.3788 1.46227 11.4732 1.46227 10.3554C1.46227 9.40893 4.86357 8.61435 9.45811 8.39327V8.96295H9.45864V11.2975C10.287 11.3439 11.1575 11.3683 12.0569 11.3683C12.885 11.3683 13.6892 11.3472 14.458 11.3087V8.38459C19.1521 8.59212 22.6517 9.39506 22.6517 10.3554C22.6516 11.4732 17.9081 12.3788 12.0569 12.3788Z" fill="url(#paint0_linear_92_9727)"/>
<path d="M13.9579 7.83817L13.958 8.31218L13.958 8.31218V8.38459V10.8307C13.3431 10.8551 12.7075 10.8683 12.0569 10.8683C11.336 10.8683 10.6342 10.8525 9.95864 10.8221V8.96295V8.46295H9.95811V8.39327V8.3217V7.86863V7.84983V5.43604V4.93604H9.45811H3.15213V0.937012H20.764V4.93604H14.4574H13.9574L13.9574 5.43613L13.9579 7.83817ZM0.962293 10.3488C0.962278 10.351 0.96227 10.3532 0.96227 10.3554C0.96227 10.6857 1.13949 10.945 1.33634 11.1287C1.53354 11.3128 1.79649 11.4667 2.08909 11.5988C2.67746 11.8645 3.49744 12.0913 4.4716 12.2774C6.42817 12.651 9.10971 12.8788 12.0569 12.8788C15.0041 12.8788 17.6856 12.651 19.6422 12.2774C20.6164 12.0913 21.4364 11.8645 22.0248 11.5988C22.3174 11.4667 22.5804 11.3128 22.7776 11.1288C22.9745 10.945 23.1517 10.6857 23.1517 10.3554V10.3554C23.1517 10.3531 23.1517 10.3509 23.1517 10.3487C23.4421 10.5913 23.5112 10.7788 23.5112 10.8936C23.5112 11.0268 23.4183 11.2577 22.9951 11.559C22.5857 11.8505 21.9581 12.1391 21.1281 12.4013C19.4745 12.9236 17.1311 13.3063 14.4309 13.4497L13.9574 13.4748V13.949V22.0629H9.95811V13.9372V13.4653L9.48698 13.4381C6.83635 13.2847 4.54256 12.9006 2.92622 12.3817C2.11487 12.1213 1.50289 11.8358 1.10428 11.5484C0.69289 11.2517 0.602661 11.025 0.602661 10.8936C0.602661 10.7791 0.671353 10.5918 0.962293 10.3488Z" stroke="#19C2EF" stroke-opacity="0.55"/>
<defs>
<linearGradient id="paint0_linear_92_9727" x1="12.0569" y1="0.437012" x2="12.0569" y2="22.5629" gradientUnits="userSpaceOnUse">
<stop stop-color="#0974F8"/>
<stop offset="1" stop-color="#4FB2FE"/>
</linearGradient>
</defs>
</svg>
